<svg xmlns="http://www.w3.org/2000/svg" xmlns:xlink="http://www.w3.org/1999/xlink" contentStyleType="text/css" data-diagram-type="CLASS" height="685px" preserveAspectRatio="none" style="width:2450px;height:685px;" version="1.1" viewBox="0 0 2450 685" width="2450px" zoomAndPan="magnify"><defs/><g><!--class Ticket--><g class="entity" data-entity="Ticket" data-source-line="42" data-uid="ent0002" id="entity_Ticket"><rect fill="#EEEEEE" fill-opacity="0.40000" height="145.7813" rx="2.5" ry="2.5" style="stroke:#181818;stroke-width:0.5;" width="202.709" x="457.13" y="51.88"/><ellipse cx="533.0602" cy="67.88" fill="#ADD1B2" rx="11" ry="11" style="stroke:#181818;stroke-width:1;"/><path d="M536.0289,73.5206 Q535.4508,73.8175 534.8102,73.9581 Q534.1696,74.1144 533.4664,74.1144 Q530.9664,74.1144 529.6383,72.4738 Q528.3258,70.8175 528.3258,67.6925 Q528.3258,64.5675 529.6383,62.9112 Q530.9664,61.255 533.4664,61.255 Q534.1696,61.255 534.8102,61.4112 Q535.4664,61.5675 536.0289,61.8644 L536.0289,64.5831 Q535.4039,64.005 534.8102,63.7394 Q534.2164,63.4581 533.5914,63.4581 Q532.2477,63.4581 531.5602,64.5363 Q530.8727,65.5988 530.8727,67.6925 Q530.8727,69.7863 531.5602,70.8644 Q532.2477,71.9269 533.5914,71.9269 Q534.2164,71.9269 534.8102,71.6613 Q535.4039,71.38 536.0289,70.8019 L536.0289,73.5206 Z " fill="#000000"/><text fill="#000000" font-family="sans-serif" font-size="14" lengthAdjust="spacing" textLength="42.3486" x="553.5602" y="72.7267">Ticket</text><line style="stroke:#181818;stroke-width:0.5;" x1="458.13" x2="658.839" y1="83.88" y2="83.88"/><rect fill="none" height="6" style="stroke:#C82930;stroke-width:1;" width="6" x="465.13" y="94.5284"/><text fill="#000000" font-family="sans-serif" font-size="14" lengthAdjust="spacing" textLength="40.1953" x="477.13" y="100.8751">id: int</text><rect fill="none" height="6" style="stroke:#C82930;stroke-width:1;" width="6" x="465.13" y="110.8253"/><text fill="#000000" font-family="sans-serif" font-size="14" lengthAdjust="spacing" textLength="78.3193" x="477.13" y="117.172">title: String</text><rect fill="none" height="6" style="stroke:#C82930;stroke-width:1;" width="6" x="465.13" y="127.1222"/><text fill="#000000" font-family="sans-serif" font-size="14" lengthAdjust="spacing" textLength="128.7891" x="477.13" y="133.4689">description: String</text><rect fill="none" height="6" style="stroke:#C82930;stroke-width:1;" width="6" x="465.13" y="143.4191"/><text fill="#000000" font-family="sans-serif" font-size="14" lengthAdjust="spacing" textLength="89.7832" x="477.13" y="149.7657">notes: String</text><rect fill="none" height="6" style="stroke:#C82930;stroke-width:1;" width="6" x="465.13" y="159.7159"/><text fill="#000000" font-family="sans-serif" font-size="14" lengthAdjust="spacing" textLength="176.709" x="477.13" y="166.0626">department: Department</text><rect fill="none" height="6" style="stroke:#C82930;stroke-width:1;" width="6" x="465.13" y="176.0128"/><text fill="#000000" font-family="sans-serif" font-size="14" lengthAdjust="spacing" textLength="139.1455" x="477.13" y="182.3595">status: TicketStatus</text><line style="stroke:#181818;stroke-width:0.5;" x1="458.13" x2="658.839" y1="189.6613" y2="189.6613"/></g><!--class User--><g class="entity" data-entity="User" data-source-line="51" data-uid="ent0003" id="entity_User"><rect fill="#EEEEEE" fill-opacity="0.40000" height="96.8906" rx="2.5" ry="2.5" style="stroke:#181818;stroke-width:0.5;" width="116.6514" x="648.15" y="327.68"/><ellipse cx="686.8835" cy="343.68" fill="#ADD1B2" rx="11" ry="11" style="stroke:#181818;stroke-width:1;"/><path d="M689.8523,349.3206 Q689.2742,349.6175 688.6335,349.7581 Q687.9929,349.9144 687.2898,349.9144 Q684.7898,349.9144 683.4617,348.2738 Q682.1492,346.6175 682.1492,343.4925 Q682.1492,340.3675 683.4617,338.7113 Q684.7898,337.055 687.2898,337.055 Q687.9929,337.055 688.6335,337.2113 Q689.2898,337.3675 689.8523,337.6644 L689.8523,340.3831 Q689.2273,339.805 688.6335,339.5394 Q688.0398,339.2581 687.4148,339.2581 Q686.071,339.2581 685.3835,340.3363 Q684.696,341.3988 684.696,343.4925 Q684.696,345.5863 685.3835,346.6644 Q686.071,347.7269 687.4148,347.7269 Q688.0398,347.7269 688.6335,347.4613 Q689.2273,347.18 689.8523,346.6019 L689.8523,349.3206 Z " fill="#000000"/><text fill="#000000" font-family="sans-serif" font-size="14" lengthAdjust="spacing" textLength="31.9102" x="706.1577" y="348.5267">User</text><line style="stroke:#181818;stroke-width:0.5;" x1="649.15" x2="763.8014" y1="359.68" y2="359.68"/><rect fill="none" height="6" style="stroke:#C82930;stroke-width:1;" width="6" x="656.15" y="370.3284"/><text fill="#000000" font-family="sans-serif" font-size="14" lengthAdjust="spacing" textLength="40.1953" x="668.15" y="376.6751">id: int</text><rect fill="none" height="6" style="stroke:#C82930;stroke-width:1;" width="6" x="656.15" y="386.6253"/><text fill="#000000" font-family="sans-serif" font-size="14" lengthAdjust="spacing" textLength="90.6514" x="668.15" y="392.972">name: String</text><rect fill="none" height="6" style="stroke:#C82930;stroke-width:1;" width="6" x="656.15" y="402.9222"/><text fill="#000000" font-family="sans-serif" font-size="14" lengthAdjust="spacing" textLength="66.7871" x="668.15" y="409.2689">role: Role</text><line style="stroke:#181818;stroke-width:0.5;" x1="649.15" x2="763.8014" y1="416.5706" y2="416.5706"/></g><!--class Department--><g class="entity" data-entity="Department" data-source-line="58" data-uid="ent0004" id="entity_Department"><rect fill="#EEEEEE" fill-opacity="0.40000" height="80.5938" rx="2.5" ry="2.5" style="stroke:#181818;stroke-width:0.5;" width="116.7178" x="516.12" y="593.85"/><ellipse cx="531.12" cy="609.85" fill="#ADD1B2" rx="11" ry="11" style="stroke:#181818;stroke-width:1;"/><path d="M534.0888,615.4906 Q533.5106,615.7875 532.87,615.9281 Q532.2294,616.0844 531.5263,616.0844 Q529.0263,616.0844 527.6981,614.4438 Q526.3856,612.7875 526.3856,609.6625 Q526.3856,606.5375 527.6981,604.8813 Q529.0263,603.225 531.5263,603.225 Q532.2294,603.225 532.87,603.3813 Q533.5263,603.5375 534.0888,603.8344 L534.0888,606.5531 Q533.4638,605.975 532.87,605.7094 Q532.2763,605.4281 531.6513,605.4281 Q530.3075,605.4281 529.62,606.5063 Q528.9325,607.5688 528.9325,609.6625 Q528.9325,611.7563 529.62,612.8344 Q530.3075,613.8969 531.6513,613.8969 Q532.2763,613.8969 532.87,613.6313 Q533.4638,613.35 534.0888,612.7719 L534.0888,615.4906 Z " fill="#000000"/><text fill="#000000" font-family="sans-serif" font-size="14" lengthAdjust="spacing" textLength="84.7178" x="545.12" y="614.6967">Department</text><line style="stroke:#181818;stroke-width:0.5;" x1="517.12" x2="631.8378" y1="625.85" y2="625.85"/><rect fill="none" height="6" style="stroke:#C82930;stroke-width:1;" width="6" x="524.12" y="636.4984"/><text fill="#000000" font-family="sans-serif" font-size="14" lengthAdjust="spacing" textLength="40.1953" x="536.12" y="642.8451">id: int</text><rect fill="none" height="6" style="stroke:#C82930;stroke-width:1;" width="6" x="524.12" y="652.7953"/><text fill="#000000" font-family="sans-serif" font-size="14" lengthAdjust="spacing" textLength="90.6514" x="536.12" y="659.142">name: String</text><line style="stroke:#181818;stroke-width:0.5;" x1="517.12" x2="631.8378" y1="666.4438" y2="666.4438"/></g><!--class Audit--><g class="entity" data-entity="Audit" data-source-line="63" data-uid="ent0005" id="entity_Audit"><rect fill="#EEEEEE" fill-opacity="0.40000" height="80.5938" rx="2.5" ry="2.5" style="stroke:#181818;stroke-width:0.5;" width="212.2998" x="695.33" y="84.47"/><ellipse cx="778.872" cy="100.47" fill="#ADD1B2" rx="11" ry="11" style="stroke:#181818;stroke-width:1;"/><path d="M781.8407,106.1106 Q781.2626,106.4075 780.622,106.5481 Q779.9814,106.7044 779.2782,106.7044 Q776.7782,106.7044 775.4501,105.0638 Q774.1376,103.4075 774.1376,100.2825 Q774.1376,97.1575 775.4501,95.5013 Q776.7782,93.845 779.2782,93.845 Q779.9814,93.845 780.622,94.0013 Q781.2782,94.1575 781.8407,94.4544 L781.8407,97.1731 Q781.2157,96.595 780.622,96.3294 Q780.0282,96.0481 779.4032,96.0481 Q778.0595,96.0481 777.372,97.1263 Q776.6845,98.1888 776.6845,100.2825 Q776.6845,102.3763 777.372,103.4544 Q778.0595,104.5169 779.4032,104.5169 Q780.0282,104.5169 780.622,104.2513 Q781.2157,103.97 781.8407,103.3919 L781.8407,106.1106 Z " fill="#000000"/><text fill="#000000" font-family="sans-serif" font-size="14" lengthAdjust="spacing" textLength="36.7158" x="799.372" y="105.3167">Audit</text><line style="stroke:#181818;stroke-width:0.5;" x1="696.33" x2="906.6298" y1="116.47" y2="116.47"/><rect fill="none" height="6" style="stroke:#C82930;stroke-width:1;" width="6" x="703.33" y="127.1184"/><text fill="#000000" font-family="sans-serif" font-size="14" lengthAdjust="spacing" textLength="40.1953" x="715.33" y="133.4651">id: int</text><rect fill="none" height="6" style="stroke:#C82930;stroke-width:1;" width="6" x="703.33" y="143.4153"/><text fill="#000000" font-family="sans-serif" font-size="14" lengthAdjust="spacing" textLength="186.2998" x="715.33" y="149.762">crudType: AuditCRUDType</text><line style="stroke:#181818;stroke-width:0.5;" x1="696.33" x2="906.6298" y1="157.0638" y2="157.0638"/></g><!--class TicketUseCases--><g class="entity" data-entity="TicketUseCases" data-source-line="71" data-uid="ent0006" id="entity_TicketUseCases"><rect fill="#EEEEEE" fill-opacity="0.40000" height="235.5313" rx="2.5" ry="2.5" style="stroke:#181818;stroke-width:0.5;" width="174.4629" x="942.25" y="7"/><ellipse cx="971.8319" cy="27.1328" fill="#B4A7E5" rx="11" ry="11" style="stroke:#181818;stroke-width:1;"/><path d="M967.7538,22.8984 L967.7538,20.7422 L975.1444,20.7422 L975.1444,22.8984 L972.6757,22.8984 L972.6757,30.9766 L975.1444,30.9766 L975.1444,33.1328 L967.7538,33.1328 L967.7538,30.9766 L970.2226,30.9766 L970.2226,22.8984 L967.7538,22.8984 Z " fill="#000000"/><text fill="#000000" font-family="sans-serif" font-size="12" font-style="italic" lengthAdjust="spacing" textLength="73.9629" x="1007.1202" y="23.1387">&#171;input port&#187;</text><text fill="#000000" font-family="sans-serif" font-size="14" font-style="italic" lengthAdjust="spacing" textLength="110.0586" x="989.0724" y="38.9639">TicketUseCases</text><line style="stroke:#181818;stroke-width:0.5;" x1="943.25" x2="1115.7129" y1="47.2656" y2="47.2656"/><ellipse cx="953.25" cy="60.9141" fill="none" rx="3" ry="3" style="stroke:#038048;stroke-width:1;"/><text fill="#000000" font-family="sans-serif" font-size="14" lengthAdjust="spacing" textLength="87.0967" x="962.25" y="64.2607">createTicket</text><ellipse cx="953.25" cy="77.2109" fill="none" rx="3" ry="3" style="stroke:#038048;stroke-width:1;"/><text fill="#000000" font-family="sans-serif" font-size="14" lengthAdjust="spacing" textLength="65.3379" x="962.25" y="80.5576">getTicket</text><ellipse cx="953.25" cy="93.5078" fill="none" rx="3" ry="3" style="stroke:#038048;stroke-width:1;"/><text fill="#000000" font-family="sans-serif" font-size="14" lengthAdjust="spacing" textLength="133.998" x="962.25" y="96.8545">getManagerTickets</text><ellipse cx="953.25" cy="109.8047" fill="none" rx="3" ry="3" style="stroke:#038048;stroke-width:1;"/><text fill="#000000" font-family="sans-serif" font-size="14" lengthAdjust="spacing" textLength="148.1689" x="962.25" y="113.1514">getTechnicianTickets</text><ellipse cx="953.25" cy="126.1016" fill="none" rx="3" ry="3" style="stroke:#038048;stroke-width:1;"/><text fill="#000000" font-family="sans-serif" font-size="14" lengthAdjust="spacing" textLength="105.4443" x="962.25" y="129.4482">getStaffTickets</text><ellipse cx="953.25" cy="142.3984" fill="none" rx="3" ry="3" style="stroke:#038048;stroke-width:1;"/><text fill="#000000" font-family="sans-serif" font-size="14" lengthAdjust="spacing" textLength="136.8213" x="962.25" y="145.7451">getAvailableTickets</text><ellipse cx="953.25" cy="158.6953" fill="none" rx="3" ry="3" style="stroke:#038048;stroke-width:1;"/><text fill="#000000" font-family="sans-serif" font-size="14" lengthAdjust="spacing" textLength="104.1797" x="962.25" y="162.042">setTicketNotes</text><ellipse cx="953.25" cy="174.9922" fill="none" rx="3" ry="3" style="stroke:#038048;stroke-width:1;"/><text fill="#000000" font-family="sans-serif" font-size="14" lengthAdjust="spacing" textLength="108.3564" x="962.25" y="178.3389">setTicketStatus</text><ellipse cx="953.25" cy="191.2891" fill="none" rx="3" ry="3" style="stroke:#038048;stroke-width:1;"/><text fill="#000000" font-family="sans-serif" font-size="14" lengthAdjust="spacing" textLength="148.4629" x="962.25" y="194.6357">setTicketDepartment</text><ellipse cx="953.25" cy="207.5859" fill="none" rx="3" ry="3" style="stroke:#038048;stroke-width:1;"/><text fill="#000000" font-family="sans-serif" font-size="14" lengthAdjust="spacing" textLength="120.3535" x="962.25" y="210.9326">assignTechnician</text><ellipse cx="953.25" cy="223.8828" fill="none" rx="3" ry="3" style="stroke:#038048;stroke-width:1;"/><text fill="#000000" font-family="sans-serif" font-size="14" lengthAdjust="spacing" textLength="144.0127" x="962.25" y="227.2295">dischargeTechnician</text><line style="stroke:#181818;stroke-width:0.5;" x1="943.25" x2="1115.7129" y1="234.5313" y2="234.5313"/></g><!--class UserUseCases--><g class="entity" data-entity="UserUseCases" data-source-line="85" data-uid="ent0007" id="entity_UserUseCases"><rect fill="#EEEEEE" fill-opacity="0.40000" height="56.2656" rx="2.5" ry="2.5" style="stroke:#181818;stroke-width:0.5;" width="131.6201" x="1151.67" y="96.63"/><ellipse cx="1166.67" cy="116.7628" fill="#B4A7E5" rx="11" ry="11" style="stroke:#181818;stroke-width:1;"/><path d="M1162.5919,112.5284 L1162.5919,110.3722 L1169.9825,110.3722 L1169.9825,112.5284 L1167.5138,112.5284 L1167.5138,120.6066 L1169.9825,120.6066 L1169.9825,122.7628 L1162.5919,122.7628 L1162.5919,120.6066 L1165.0606,120.6066 L1165.0606,112.5284 L1162.5919,112.5284 Z " fill="#000000"/><text fill="#000000" font-family="sans-serif" font-size="12" font-style="italic" lengthAdjust="spacing" textLength="73.9629" x="1193.4986" y="112.7687">&#171;input port&#187;</text><text fill="#000000" font-family="sans-serif" font-size="14" font-style="italic" lengthAdjust="spacing" textLength="99.6201" x="1180.67" y="128.5939">UserUseCases</text><line style="stroke:#181818;stroke-width:0.5;" x1="1152.67" x2="1282.2901" y1="136.8956" y2="136.8956"/><line style="stroke:#181818;stroke-width:0.5;" x1="1152.67" x2="1282.2901" y1="144.8956" y2="144.8956"/></g><!--class AuditUseCases--><g class="entity" data-entity="AuditUseCases" data-source-line="89" data-uid="ent0008" id="entity_AuditUseCases"><rect fill="#EEEEEE" fill-opacity="0.40000" height="56.2656" rx="2.5" ry="2.5" style="stroke:#181818;stroke-width:0.5;" width="136.4258" x="1318.27" y="96.63"/><ellipse cx="1333.27" cy="116.7628" fill="#B4A7E5" rx="11" ry="11" style="stroke:#181818;stroke-width:1;"/><path d="M1329.1919,112.5284 L1329.1919,110.3722 L1336.5825,110.3722 L1336.5825,112.5284 L1334.1138,112.5284 L1334.1138,120.6066 L1336.5825,120.6066 L1336.5825,122.7628 L1329.1919,122.7628 L1329.1919,120.6066 L1331.6606,120.6066 L1331.6606,112.5284 L1329.1919,112.5284 Z " fill="#000000"/><text fill="#000000" font-family="sans-serif" font-size="12" font-style="italic" lengthAdjust="spacing" textLength="73.9629" x="1362.5014" y="112.7687">&#171;input port&#187;</text><text fill="#000000" font-family="sans-serif" font-size="14" font-style="italic" lengthAdjust="spacing" textLength="104.4258" x="1347.27" y="128.5939">AuditUseCases</text><line style="stroke:#181818;stroke-width:0.5;" x1="1319.27" x2="1453.6958" y1="136.8956" y2="136.8956"/><line style="stroke:#181818;stroke-width:0.5;" x1="1319.27" x2="1453.6958" y1="144.8956" y2="144.8956"/></g><!--class AuditRepository--><g class="entity" data-entity="AuditRepository" data-source-line="96" data-uid="ent0009" id="entity_AuditRepository"><rect fill="#EEEEEE" fill-opacity="0.40000" height="88.8594" rx="2.5" ry="2.5" style="stroke:#181818;stroke-width:0.5;" width="253.1514" x="1853.9" y="589.72"/><ellipse cx="1920.3316" cy="609.8528" fill="#B4A7E5" rx="11" ry="11" style="stroke:#181818;stroke-width:1;"/><path d="M1916.2535,605.6184 L1916.2535,603.4622 L1923.6441,603.4622 L1923.6441,605.6184 L1921.1754,605.6184 L1921.1754,613.6966 L1923.6441,613.6966 L1923.6441,615.8528 L1916.2535,615.8528 L1916.2535,613.6966 L1918.7223,613.6966 L1918.7223,605.6184 L1916.2535,605.6184 Z " fill="#000000"/><text fill="#000000" font-family="sans-serif" font-size="12" font-style="italic" lengthAdjust="spacing" textLength="82.6758" x="1955.3878" y="605.8587">&#171;output port&#187;</text><text fill="#000000" font-family="sans-serif" font-size="14" font-style="italic" lengthAdjust="spacing" textLength="111.7881" x="1940.8316" y="621.6839">AuditRepository</text><line style="stroke:#181818;stroke-width:0.5;" x1="1854.9" x2="2106.0514" y1="629.9856" y2="629.9856"/><line style="stroke:#181818;stroke-width:0.5;" x1="1854.9" x2="2106.0514" y1="637.9856" y2="637.9856"/><ellipse cx="1864.9" cy="651.6341" fill="#84BE84" rx="3" ry="3" style="stroke:#038048;stroke-width:1;"/><text fill="#000000" font-family="sans-serif" font-size="14" lengthAdjust="spacing" textLength="227.1514" x="1873.9" y="654.9807">saveAudit(audit: Audit): boolean</text><ellipse cx="1864.9" cy="667.9309" fill="#84BE84" rx="3" ry="3" style="stroke:#038048;stroke-width:1;"/><text fill="#000000" font-family="sans-serif" font-size="14" lengthAdjust="spacing" textLength="224.4922" x="1873.9" y="671.2776">getAudits30Days(): List&lt;Audit&gt;</text></g><!--class UserRepository--><g class="entity" data-entity="UserRepository" data-source-line="101" data-uid="ent0010" id="entity_UserRepository"><rect fill="#EEEEEE" fill-opacity="0.40000" height="88.8594" rx="2.5" ry="2.5" style="stroke:#181818;stroke-width:0.5;" width="286.6543" x="1532.15" y="589.72"/><ellipse cx="1617.7359" cy="609.8528" fill="#B4A7E5" rx="11" ry="11" style="stroke:#181818;stroke-width:1;"/><path d="M1613.6578,605.6184 L1613.6578,603.4622 L1621.0484,603.4622 L1621.0484,605.6184 L1618.5797,605.6184 L1618.5797,613.6966 L1621.0484,613.6966 L1621.0484,615.8528 L1613.6578,615.8528 L1613.6578,613.6966 L1616.1266,613.6966 L1616.1266,605.6184 L1613.6578,605.6184 Z " fill="#000000"/><text fill="#000000" font-family="sans-serif" font-size="12" font-style="italic" lengthAdjust="spacing" textLength="82.6758" x="1650.3893" y="605.8587">&#171;output port&#187;</text><text fill="#000000" font-family="sans-serif" font-size="14" font-style="italic" lengthAdjust="spacing" textLength="106.9824" x="1638.2359" y="621.6839">UserRepository</text><line style="stroke:#181818;stroke-width:0.5;" x1="1533.15" x2="1817.8043" y1="629.9856" y2="629.9856"/><line style="stroke:#181818;stroke-width:0.5;" x1="1533.15" x2="1817.8043" y1="637.9856" y2="637.9856"/><ellipse cx="1543.15" cy="651.6341" fill="#84BE84" rx="3" ry="3" style="stroke:#038048;stroke-width:1;"/><text fill="#000000" font-family="sans-serif" font-size="14" lengthAdjust="spacing" textLength="212.3584" x="1552.15" y="654.9807">saveUser(user: User): boolean</text><ellipse cx="1543.15" cy="667.9309" fill="#84BE84" rx="3" ry="3" style="stroke:#038048;stroke-width:1;"/><text fill="#000000" font-family="sans-serif" font-size="14" lengthAdjust="spacing" textLength="260.6543" x="1552.15" y="671.2776">getUserById(id: int): Optional&lt;User&gt;</text></g><!--class TicketRepository--><g class="entity" data-entity="TicketRepository" data-source-line="106" data-uid="ent0011" id="entity_TicketRepository"><rect fill="#EEEEEE" fill-opacity="0.40000" height="88.8594" rx="2.5" ry="2.5" style="stroke:#181818;stroke-width:0.5;" width="307.5313" x="1189.71" y="589.72"/><ellipse cx="1280.5152" cy="609.8528" fill="#B4A7E5" rx="11" ry="11" style="stroke:#181818;stroke-width:1;"/><path d="M1276.4371,605.6184 L1276.4371,603.4622 L1283.8277,603.4622 L1283.8277,605.6184 L1281.3589,605.6184 L1281.3589,613.6966 L1283.8277,613.6966 L1283.8277,615.8528 L1276.4371,615.8528 L1276.4371,613.6966 L1278.9058,613.6966 L1278.9058,605.6184 L1276.4371,605.6184 Z " fill="#000000"/><text fill="#000000" font-family="sans-serif" font-size="12" font-style="italic" lengthAdjust="spacing" textLength="82.6758" x="1318.3877" y="605.8587">&#171;output port&#187;</text><text fill="#000000" font-family="sans-serif" font-size="14" font-style="italic" lengthAdjust="spacing" textLength="117.4209" x="1301.0152" y="621.6839">TicketRepository</text><line style="stroke:#181818;stroke-width:0.5;" x1="1190.71" x2="1496.2413" y1="629.9856" y2="629.9856"/><line style="stroke:#181818;stroke-width:0.5;" x1="1190.71" x2="1496.2413" y1="637.9856" y2="637.9856"/><ellipse cx="1200.71" cy="651.6341" fill="#84BE84" rx="3" ry="3" style="stroke:#038048;stroke-width:1;"/><text fill="#000000" font-family="sans-serif" font-size="14" lengthAdjust="spacing" textLength="241.9854" x="1209.71" y="654.9807">saveTicket(ticket: Ticket): boolean</text><ellipse cx="1200.71" cy="667.9309" fill="#84BE84" rx="3" ry="3" style="stroke:#038048;stroke-width:1;"/><text fill="#000000" font-family="sans-serif" font-size="14" lengthAdjust="spacing" textLength="281.5313" x="1209.71" y="671.2776">getTicketById(id: int): Optional&lt;Ticket&gt;</text></g><!--class TokenProcessor--><g class="entity" data-entity="TokenProcessor" data-source-line="111" data-uid="ent0012" id="entity_TokenProcessor"><rect fill="#EEEEEE" fill-opacity="0.40000" height="72.5625" rx="2.5" ry="2.5" style="stroke:#181818;stroke-width:0.5;" width="301.5771" x="2141.69" y="597.87"/><ellipse cx="2232.8814" cy="618.0028" fill="#B4A7E5" rx="11" ry="11" style="stroke:#181818;stroke-width:1;"/><path d="M2228.8033,613.7684 L2228.8033,611.6122 L2236.1939,611.6122 L2236.1939,613.7684 L2233.7252,613.7684 L2233.7252,621.8466 L2236.1939,621.8466 L2236.1939,624.0028 L2228.8033,624.0028 L2228.8033,621.8466 L2231.272,621.8466 L2231.272,613.7684 L2228.8033,613.7684 Z " fill="#000000"/><text fill="#000000" font-family="sans-serif" font-size="12" font-style="italic" lengthAdjust="spacing" textLength="82.6758" x="2267.3907" y="614.0087">&#171;output port&#187;</text><text fill="#000000" font-family="sans-serif" font-size="14" font-style="italic" lengthAdjust="spacing" textLength="110.6943" x="2253.3814" y="629.8339">TokenProcessor</text><line style="stroke:#181818;stroke-width:0.5;" x1="2142.69" x2="2442.2671" y1="638.1356" y2="638.1356"/><line style="stroke:#181818;stroke-width:0.5;" x1="2142.69" x2="2442.2671" y1="646.1356" y2="646.1356"/><ellipse cx="2152.69" cy="659.7841" fill="#84BE84" rx="3" ry="3" style="stroke:#038048;stroke-width:1;"/><text fill="#000000" font-family="sans-serif" font-size="14" lengthAdjust="spacing" textLength="275.5771" x="2161.69" y="663.1307">getUserIdFromToken(token: String): int</text></g><!--class Service--><g class="entity" data-entity="Service" data-source-line="118" data-uid="ent0013" id="entity_Service"><rect fill="#EEEEEE" fill-opacity="0.40000" height="48" rx="2.5" ry="2.5" style="stroke:#181818;stroke-width:0.5;" width="83.7412" x="1806.61" y="100.77"/><ellipse cx="1821.61" cy="116.77" fill="#A9DCDF" rx="11" ry="11" style="stroke:#181818;stroke-width:1;"/><path d="M1821.7194,112.1138 L1820.5631,117.1919 L1822.8913,117.1919 L1821.7194,112.1138 Z M1820.235,109.8794 L1823.2194,109.8794 L1826.5788,122.27 L1824.1256,122.27 L1823.36,119.2075 L1820.0788,119.2075 L1819.3288,122.27 L1816.8913,122.27 L1820.235,109.8794 Z " fill="#000000"/><text fill="#000000" font-family="sans-serif" font-size="14" font-style="italic" lengthAdjust="spacing" textLength="51.7412" x="1835.61" y="121.6167">Service</text><line style="stroke:#181818;stroke-width:0.5;" x1="1807.61" x2="1889.3512" y1="132.77" y2="132.77"/><line style="stroke:#181818;stroke-width:0.5;" x1="1807.61" x2="1889.3512" y1="140.77" y2="140.77"/></g><polygon fill="none" points="1836.2136,148.77,1833.3442,169.7644,1820.8782,163.3928" style="stroke:#181818;stroke-width:1;"/><line style="stroke:#181818;stroke-width:1;" x1="1827.1112" x2="1825.48" y1="166.5786" y2="169.77"/><line style="stroke:#181818;stroke-width:1;" x1="1859.637" x2="1869.12" y1="148.77" y2="169.17"/><line style="stroke:#181818;stroke-width:1;" x1="1870.8929" x2="1889.85" y1="148.77" y2="169.07"/><!--class TicketService--><g class="entity" data-entity="TicketService" data-source-line="120" data-uid="ent0014" id="entity_TicketService"><rect fill="#EEEEEE" fill-opacity="0.40000" height="48" rx="2.5" ry="2.5" style="stroke:#181818;stroke-width:0.5;" width="126.0898" x="1478.44" y="352.13"/><ellipse cx="1493.44" cy="368.13" fill="#ADD1B2" rx="11" ry="11" style="stroke:#181818;stroke-width:1;"/><path d="M1496.4088,373.7706 Q1495.8306,374.0675 1495.19,374.2081 Q1494.5494,374.3644 1493.8463,374.3644 Q1491.3463,374.3644 1490.0181,372.7238 Q1488.7056,371.0675 1488.7056,367.9425 Q1488.7056,364.8175 1490.0181,363.1613 Q1491.3463,361.505 1493.8463,361.505 Q1494.5494,361.505 1495.19,361.6613 Q1495.8463,361.8175 1496.4088,362.1144 L1496.4088,364.8331 Q1495.7838,364.255 1495.19,363.9894 Q1494.5963,363.7081 1493.9713,363.7081 Q1492.6275,363.7081 1491.94,364.7863 Q1491.2525,365.8488 1491.2525,367.9425 Q1491.2525,370.0363 1491.94,371.1144 Q1492.6275,372.1769 1493.9713,372.1769 Q1494.5963,372.1769 1495.19,371.9113 Q1495.7838,371.63 1496.4088,371.0519 L1496.4088,373.7706 Z " fill="#000000"/><text fill="#000000" font-family="sans-serif" font-size="14" lengthAdjust="spacing" textLength="94.0898" x="1507.44" y="372.9767">TicketService</text><line style="stroke:#181818;stroke-width:0.5;" x1="1479.44" x2="1603.5298" y1="384.13" y2="384.13"/><line style="stroke:#181818;stroke-width:0.5;" x1="1479.44" x2="1603.5298" y1="392.13" y2="392.13"/></g><!--class UserService--><g class="entity" data-entity="UserService" data-source-line="122" data-uid="ent0017" id="entity_UserService"><rect fill="#EEEEEE" fill-opacity="0.40000" height="48" rx="2.5" ry="2.5" style="stroke:#181818;stroke-width:0.5;" width="115.6514" x="1639.65" y="352.13"/><ellipse cx="1654.65" cy="368.13" fill="#ADD1B2" rx="11" ry="11" style="stroke:#181818;stroke-width:1;"/><path d="M1657.6188,373.7706 Q1657.0406,374.0675 1656.4,374.2081 Q1655.7594,374.3644 1655.0563,374.3644 Q1652.5563,374.3644 1651.2281,372.7238 Q1649.9156,371.0675 1649.9156,367.9425 Q1649.9156,364.8175 1651.2281,363.1613 Q1652.5563,361.505 1655.0563,361.505 Q1655.7594,361.505 1656.4,361.6613 Q1657.0563,361.8175 1657.6188,362.1144 L1657.6188,364.8331 Q1656.9938,364.255 1656.4,363.9894 Q1655.8063,363.7081 1655.1813,363.7081 Q1653.8375,363.7081 1653.15,364.7863 Q1652.4625,365.8488 1652.4625,367.9425 Q1652.4625,370.0363 1653.15,371.1144 Q1653.8375,372.1769 1655.1813,372.1769 Q1655.8063,372.1769 1656.4,371.9113 Q1656.9938,371.63 1657.6188,371.0519 L1657.6188,373.7706 Z " fill="#000000"/><text fill="#000000" font-family="sans-serif" font-size="14" lengthAdjust="spacing" textLength="83.6514" x="1668.65" y="372.9767">UserService</text><line style="stroke:#181818;stroke-width:0.5;" x1="1640.65" x2="1754.3014" y1="384.13" y2="384.13"/><line style="stroke:#181818;stroke-width:0.5;" x1="1640.65" x2="1754.3014" y1="392.13" y2="392.13"/></g><!--class AuditService--><g class="entity" data-entity="AuditService" data-source-line="124" data-uid="ent0020" id="entity_AuditService"><rect fill="#EEEEEE" fill-opacity="0.40000" height="48" rx="2.5" ry="2.5" style="stroke:#181818;stroke-width:0.5;" width="120.457" x="1790.25" y="352.13"/><ellipse cx="1805.25" cy="368.13" fill="#ADD1B2" rx="11" ry="11" style="stroke:#181818;stroke-width:1;"/><path d="M1808.2188,373.7706 Q1807.6406,374.0675 1807,374.2081 Q1806.3594,374.3644 1805.6563,374.3644 Q1803.1563,374.3644 1801.8281,372.7238 Q1800.5156,371.0675 1800.5156,367.9425 Q1800.5156,364.8175 1801.8281,363.1613 Q1803.1563,361.505 1805.6563,361.505 Q1806.3594,361.505 1807,361.6613 Q1807.6563,361.8175 1808.2188,362.1144 L1808.2188,364.8331 Q1807.5938,364.255 1807,363.9894 Q1806.4063,363.7081 1805.7813,363.7081 Q1804.4375,363.7081 1803.75,364.7863 Q1803.0625,365.8488 1803.0625,367.9425 Q1803.0625,370.0363 1803.75,371.1144 Q1804.4375,372.1769 1805.7813,372.1769 Q1806.4063,372.1769 1807,371.9113 Q1807.5938,371.63 1808.2188,371.0519 L1808.2188,373.7706 Z " fill="#000000"/><text fill="#000000" font-family="sans-serif" font-size="14" lengthAdjust="spacing" textLength="88.457" x="1819.25" y="372.9767">AuditService</text><line style="stroke:#181818;stroke-width:0.5;" x1="1791.25" x2="1909.707" y1="384.13" y2="384.13"/><line style="stroke:#181818;stroke-width:0.5;" x1="1791.25" x2="1909.707" y1="392.13" y2="392.13"/></g><!--class TicketStatus--><g class="entity" data-entity="TicketStatus" data-source-line="129" data-uid="ent0023" id="entity_TicketStatus"><rect fill="#EEEEEE" fill-opacity="0.40000" height="129.4844" rx="2.5" ry="2.5" style="stroke:#181818;stroke-width:0.5;" width="118.96" x="7" y="60.03"/><ellipse cx="22" cy="76.03" fill="#EB937F" rx="11" ry="11" style="stroke:#181818;stroke-width:1;"/><path d="M26.1094,82.03 L18.3906,82.03 L18.3906,69.6394 L26.1094,69.6394 L26.1094,71.7956 L20.8438,71.7956 L20.8438,74.4675 L25.6094,74.4675 L25.6094,76.6238 L20.8438,76.6238 L20.8438,79.8738 L26.1094,79.8738 L26.1094,82.03 Z " fill="#000000"/><text fill="#000000" font-family="sans-serif" font-size="14" lengthAdjust="spacing" textLength="86.96" x="36" y="80.8767">TicketStatus</text><line style="stroke:#181818;stroke-width:0.5;" x1="8" x2="124.96" y1="92.03" y2="92.03"/><text fill="#000000" font-family="sans-serif" font-size="14" lengthAdjust="spacing" textLength="38.7803" x="13" y="109.0251">OPEN</text><text fill="#000000" font-family="sans-serif" font-size="14" lengthAdjust="spacing" textLength="95.4365" x="13" y="125.322">IN PROGRESS</text><text fill="#000000" font-family="sans-serif" font-size="14" lengthAdjust="spacing" textLength="66.0693" x="13" y="141.6189">ON HOLD</text><text fill="#000000" font-family="sans-serif" font-size="14" lengthAdjust="spacing" textLength="75.4824" x="13" y="157.9157">RESOLVED</text><text fill="#000000" font-family="sans-serif" font-size="14" lengthAdjust="spacing" textLength="57.1074" x="13" y="174.2126">CLOSED</text><line style="stroke:#181818;stroke-width:0.5;" x1="8" x2="124.96" y1="181.5144" y2="181.5144"/></g><!--class Role--><g class="entity" data-entity="Role" data-source-line="137" data-uid="ent0024" id="entity_Role"><rect fill="#EEEEEE" fill-opacity="0.40000" height="96.8906" rx="2.5" ry="2.5" style="stroke:#181818;stroke-width:0.5;" width="98.2559" x="161.35" y="76.32"/><ellipse cx="192.307" cy="92.32" fill="#EB937F" rx="11" ry="11" style="stroke:#181818;stroke-width:1;"/><path d="M196.4164,98.32 L188.6976,98.32 L188.6976,85.9294 L196.4164,85.9294 L196.4164,88.0856 L191.1507,88.0856 L191.1507,90.7575 L195.9164,90.7575 L195.9164,92.9138 L191.1507,92.9138 L191.1507,96.1638 L196.4164,96.1638 L196.4164,98.32 Z " fill="#000000"/><text fill="#000000" font-family="sans-serif" font-size="14" lengthAdjust="spacing" textLength="30.7959" x="209.853" y="97.1667">Role</text><line style="stroke:#181818;stroke-width:0.5;" x1="162.35" x2="258.6059" y1="108.32" y2="108.32"/><text fill="#000000" font-family="sans-serif" font-size="14" lengthAdjust="spacing" textLength="43.1211" x="167.35" y="125.3151">STAFF</text><text fill="#000000" font-family="sans-serif" font-size="14" lengthAdjust="spacing" textLength="86.2559" x="167.35" y="141.612">TECHNICIAN</text><text fill="#000000" font-family="sans-serif" font-size="14" lengthAdjust="spacing" textLength="71.1279" x="167.35" y="157.9089">MANAGER</text><line style="stroke:#181818;stroke-width:0.5;" x1="162.35" x2="258.6059" y1="165.2106" y2="165.2106"/></g><!--class AuditCRUDType--><g class="entity" data-entity="AuditCRUDType" data-source-line="143" data-uid="ent0025" id="entity_AuditCRUDType"><rect fill="#EEEEEE" fill-opacity="0.40000" height="113.1875" rx="2.5" ry="2.5" style="stroke:#181818;stroke-width:0.5;" width="143.583" x="51.69" y="319.53"/><ellipse cx="66.69" cy="335.53" fill="#EB937F" rx="11" ry="11" style="stroke:#181818;stroke-width:1;"/><path d="M70.7994,341.53 L63.0806,341.53 L63.0806,329.1394 L70.7994,329.1394 L70.7994,331.2956 L65.5338,331.2956 L65.5338,333.9675 L70.2994,333.9675 L70.2994,336.1238 L65.5338,336.1238 L65.5338,339.3738 L70.7994,339.3738 L70.7994,341.53 Z " fill="#000000"/><text fill="#000000" font-family="sans-serif" font-size="14" lengthAdjust="spacing" textLength="111.583" x="80.69" y="340.3767">AuditCRUDType</text><line style="stroke:#181818;stroke-width:0.5;" x1="52.69" x2="194.273" y1="351.53" y2="351.53"/><text fill="#000000" font-family="sans-serif" font-size="14" lengthAdjust="spacing" textLength="55.3232" x="57.69" y="368.5251">CREATE</text><text fill="#000000" font-family="sans-serif" font-size="14" lengthAdjust="spacing" textLength="38.9307" x="57.69" y="384.822">READ</text><text fill="#000000" font-family="sans-serif" font-size="14" lengthAdjust="spacing" textLength="56.4443" x="57.69" y="401.1189">UPDATE</text><text fill="#000000" font-family="sans-serif" font-size="14" lengthAdjust="spacing" textLength="53.6689" x="57.69" y="417.4157">DELETE</text><line style="stroke:#181818;stroke-width:0.5;" x1="52.69" x2="194.273" y1="424.7175" y2="424.7175"/></g><g class="entity" data-entity="N1" data-source-line="171" data-uid="ent0036" id="entity_N1"><path d="M275.03,333.29 L275.03,418.9541 L441.9245,418.9541 L441.9245,343.29 L431.9245,333.29 L275.03,333.29" fill="#FFFF00" fill-opacity="0.40000" style="stroke:#181818;stroke-width:0.5;"/><path d="M431.9245,333.29 L431.9245,343.29 L441.9245,343.29 L431.9245,333.29" fill="#FFFF00" fill-opacity="0.40000" style="stroke:#181818;stroke-width:1;"/><text fill="#000000" font-family="sans-serif" font-size="13" lengthAdjust="spacing" textLength="145.8945" x="281.03" y="350.3569">We assume all classes</text><text fill="#000000" font-family="sans-serif" font-size="13" lengthAdjust="spacing" textLength="111.5474" x="281.03" y="365.4897">have basic CRUD</text><text fill="#000000" font-family="sans-serif" font-size="13" lengthAdjust="spacing" textLength="123.3223" x="281.03" y="380.6225">operations, in case</text><text fill="#000000" font-family="sans-serif" font-size="13" lengthAdjust="spacing" textLength="130.2666" x="281.03" y="395.7553">they arent explicitly</text><text fill="#000000" font-family="sans-serif" font-size="13" lengthAdjust="spacing" textLength="48.9277" x="281.03" y="410.8881">defined</text></g><!--reverse link Service to TicketService--><g class="link" data-entity-1="Service" data-entity-2="TicketService" data-source-line="120" data-uid="lnk15" id="link_Service_TicketService"><path d="M1825.48,169.77 C1825.48,169.77 1648.22,297.94 1573.78,351.77" fill="none" id="Service-backto-TicketService" style="stroke:#181818;stroke-width:1;"/></g><!--reverse link TicketUseCases to TicketService--><g class="link" data-entity-1="TicketUseCases" data-entity-2="TicketService" data-source-line="120" data-uid="lnk16" id="link_TicketUseCases_TicketService"><path d="M1130.718,248.9392 C1136.388,253.6892 1128.46,246.55 1134.48,250.53 C1242.66,322.05 1393.8,354.07 1478.15,367.13" fill="none" id="TicketUseCases-backto-TicketService" style="stroke:#181818;stroke-width:1;stroke-dasharray:7,7;"/><polygon fill="none" points="1116.92,237.38,1126.865,253.5385,1134.5711,244.3398,1116.92,237.38" style="stroke:#181818;stroke-width:1;"/></g><!--reverse link Service to UserService--><g class="link" data-entity-1="Service" data-entity-2="UserService" data-source-line="122" data-uid="lnk18" id="link_Service_UserService"><path d="M1825.48,169.77 C1825.48,169.77 1745.39,298.26 1711.91,351.97" fill="none" id="Service-backto-UserService" style="stroke:#181818;stroke-width:1;"/></g><!--reverse link UserUseCases to UserService--><g class="link" data-entity-1="UserUseCases" data-entity-2="UserService" data-source-line="122" data-uid="lnk19" id="link_UserUseCases_UserService"><path d="M1235.5651,169.6854 C1248.3551,198.5354 1265.2,226.53 1300.48,250.53 C1421.49,332.86 1489.11,259.25 1622.48,319.53 C1640.35,327.61 1658.08,340.47 1671.82,351.79" fill="none" id="UserUseCases-backto-UserService" style="stroke:#181818;stroke-width:1;stroke-dasharray:7,7;"/><polygon fill="none" points="1228.27,153.23,1230.08,172.1171,1241.0503,167.2537,1228.27,153.23" style="stroke:#181818;stroke-width:1;"/></g><!--reverse link Service to AuditService--><g class="link" data-entity-1="Service" data-entity-2="AuditService" data-source-line="124" data-uid="lnk21" id="link_Service_AuditService"><path d="M1825.48,169.77 C1825.48,169.77 1841.12,298.26 1847.66,351.97" fill="none" id="Service-backto-AuditService" style="stroke:#181818;stroke-width:1;"/></g><!--reverse link AuditUseCases to AuditService--><g class="link" data-entity-1="AuditUseCases" data-entity-2="AuditService" data-source-line="124" data-uid="lnk22" id="link_AuditUseCases_AuditService"><path d="M1402.3011,169.9133 C1413.5111,198.7033 1428.66,226.32 1462.48,250.53 C1577.25,332.7 1643.55,262.09 1772.48,319.53 C1790.86,327.72 1809.29,340.59 1823.62,351.88" fill="none" id="AuditUseCases-backto-AuditService" style="stroke:#181818;stroke-width:1;stroke-dasharray:7,7;"/><polygon fill="none" points="1395.77,153.14,1396.7099,172.0904,1407.8922,167.7363,1395.77,153.14" style="stroke:#181818;stroke-width:1;"/></g><!--link Ticket to User--><g class="link" data-entity-1="Ticket" data-entity-2="User" data-source-line="153" data-uid="lnk26" id="link_Ticket_User"><path codeLine="153" d="M601.29,197.89 C625.96,239.46 650.1646,280.2511 671.9146,316.8911" fill="none" id="Ticket-to-User" style="stroke:#181818;stroke-width:1;"/><polygon fill="none" points="678.04,327.21,678.4169,320.0088,671.9146,316.8911,671.5377,324.0924,678.04,327.21" style="stroke:#181818;stroke-width:1;"/><text fill="#000000" font-family="sans-serif" font-size="13" lengthAdjust="spacing" textLength="69.8813" x="655.38" y="285.5969">created by</text><text fill="#000000" font-family="sans-serif" font-size="13" lengthAdjust="spacing" textLength="23.0356" x="581.2755" y="217.6473">0..*</text><text fill="#000000" font-family="sans-serif" font-size="13" lengthAdjust="spacing" textLength="8.271" x="665.6997" y="316.705">1</text></g><!--link Ticket to User--><g class="link" data-entity-1="Ticket" data-entity-2="User" data-source-line="162" data-uid="lnk29" id="link_Ticket_User"><path codeLine="162" d="M543.5,197.77 C541,228.2 543.56,262.72 560.48,289.53 C576.6,315.08 595.23,304.57 621.48,319.53 C630.21,324.51 634.2002,326.8211 643.0002,332.3911" fill="none" id="Ticket-to-User-1" style="stroke:#181818;stroke-width:1;"/><polygon fill="#181818" points="648.07,335.6,642.6046,327.4067,643.8452,332.9259,638.326,334.1664,648.07,335.6" style="stroke:#181818;stroke-width:1;"/><text fill="#000000" font-family="sans-serif" font-size="13" lengthAdjust="spacing" textLength="75.0483" x="561.48" y="285.5969">assigned to</text><text fill="#000000" font-family="sans-serif" font-size="13" lengthAdjust="spacing" textLength="23.0356" x="517.8947" y="217.7676">0..*</text><text fill="#000000" font-family="sans-serif" font-size="13" lengthAdjust="spacing" textLength="23.0356" x="616.9892" y="327.1216">0..*</text></g><!--link Ticket to Department--><g class="link" data-entity-1="Ticket" data-entity-2="Department" data-source-line="154" data-uid="lnk27" id="link_Ticket_Department"><path codeLine="154" d="M545.18,198.11 C535.23,262 524.73,357.67 533.48,440.72 C539.12,494.22 550.3053,543.1201 560.4053,581.7601" fill="none" id="Ticket-to-Department" style="stroke:#181818;stroke-width:1;"/><polygon fill="none" points="563.44,593.37,565.7926,586.5535,560.4053,581.7601,558.0527,588.5766,563.44,593.37" style="stroke:#181818;stroke-width:1;"/><text fill="#000000" font-family="sans-serif" font-size="13" lengthAdjust="spacing" textLength="95.3164" x="534.48" y="380.6969">categorized as</text><text fill="#000000" font-family="sans-serif" font-size="13" lengthAdjust="spacing" textLength="23.0356" x="545.0153" y="217.6354">0..*</text><text fill="#000000" font-family="sans-serif" font-size="13" lengthAdjust="spacing" textLength="24.8066" x="535.8325" y="582.7534">0..1</text></g><!--link User to Department--><g class="link" data-entity-1="User" data-entity-2="Department" data-source-line="155" data-uid="lnk28" id="link_User_Department"><path codeLine="155" d="M681.81,424.98 C656.73,473.61 623.8495,537.4044 600.4195,582.8444" fill="none" id="User-to-Department" style="stroke:#181818;stroke-width:1;"/><polygon fill="none" points="594.92,593.51,601.2249,590.0103,600.4195,582.8444,594.1145,586.344,594.92,593.51" style="stroke:#181818;stroke-width:1;"/><text fill="#000000" font-family="sans-serif" font-size="13" lengthAdjust="spacing" textLength="68.2627" x="709.8926" y="475.7869">belongs to</text><path d="M665.02,484.8528 L665.02,554.8528 L823.02,554.8528 L823.02,494.8528 L813.02,484.8528 L665.02,484.8528" fill="#FFFF00" fill-opacity="0.40000" style="stroke:#181818;stroke-width:0.5;"/><path d="M813.02,484.8528 L813.02,494.8528 L823.02,494.8528 L813.02,484.8528" fill="#FFFF00" fill-opacity="0.40000" style="stroke:#181818;stroke-width:0.5;"/><text fill="#000000" font-family="sans-serif" font-size="13" lengthAdjust="spacing" textLength="106.4185" x="671.02" y="501.9197">If and only if the</text><text fill="#000000" font-family="sans-serif" font-size="13" lengthAdjust="spacing" textLength="129.2446" x="671.02" y="517.0525">user is a Technician</text><text fill="#000000" font-family="sans-serif" font-size="13" lengthAdjust="spacing" textLength="137.0078" x="671.02" y="532.1853">will they be assigned</text><text fill="#000000" font-family="sans-serif" font-size="13" lengthAdjust="spacing" textLength="110.3223" x="671.02" y="547.3181">to a department.</text><text fill="#000000" font-family="sans-serif" font-size="13" lengthAdjust="spacing" textLength="23.0356" x="653.9526" y="444.6285">0..*</text><text fill="#000000" font-family="sans-serif" font-size="13" lengthAdjust="spacing" textLength="24.8066" x="572.3296" y="582.9157">0..1</text></g><!--link Audit to User--><g class="link" data-entity-1="Audit" data-entity-2="User" data-source-line="163" data-uid="lnk30" id="link_Audit_User"><path codeLine="163" d="M795.23,165.28 C789.02,199.18 777.88,248.84 760.48,289.53 C755.02,302.3 750.9496,310.2293 743.5596,322.1593" fill="none" id="Audit-to-User" style="stroke:#181818;stroke-width:1;"/><polygon fill="#181818" points="740.4,327.26,748.5399,321.7154,743.033,323.0094,741.7389,317.5026,740.4,327.26" style="stroke:#181818;stroke-width:1;"/><text fill="#000000" font-family="sans-serif" font-size="13" lengthAdjust="spacing" textLength="69.418" x="768.22" y="285.5969">references</text><text fill="#000000" font-family="sans-serif" font-size="13" lengthAdjust="spacing" textLength="23.0356" x="769.4039" y="185.0096">0..*</text><text fill="#000000" font-family="sans-serif" font-size="13" lengthAdjust="spacing" textLength="8.271" x="736.4393" y="316.7617">1</text></g><!--link Service to AuditRepository--><g class="link" data-entity-1="Service" data-entity-2="AuditRepository" data-source-line="164" data-uid="lnk31" id="link_Service_AuditRepository"><path codeLine="164" d="M1869.12,169.17 C1886.87,207.89 1912.13,266.5 1928.48,319.53 C1947.64,381.67 1947.64,398.61 1958.48,462.72 C1965.71,505.52 1971.1494,548.7587 1975.0894,583.2687" fill="none" id="Service-to-AuditRepository" style="stroke:#181818;stroke-width:1;"/><polygon fill="#181818" points="1975.77,589.23,1978.7233,579.8344,1975.2028,584.2623,1970.7749,580.7418,1975.77,589.23" style="stroke:#181818;stroke-width:1;"/><text fill="#000000" font-family="sans-serif" font-size="13" lengthAdjust="spacing" textLength="64.7969" x="1955.65" y="380.6969">records in</text><text fill="#000000" font-family="sans-serif" font-size="13" lengthAdjust="spacing" textLength="23.0356" x="1847.465" y="188.8695">0..*</text><text fill="#000000" font-family="sans-serif" font-size="13" lengthAdjust="spacing" textLength="8.271" x="1966.5113" y="578.6075">1</text></g><!--link Service to TokenProcessor--><g class="link" data-entity-1="Service" data-entity-2="TokenProcessor" data-source-line="165" data-uid="lnk32" id="link_Service_TokenProcessor"><path codeLine="165" d="M1889.85,169.07 C1926.73,207.98 1981.94,266.91 2028.48,319.53 C2115.94,418.43 2211.4697,534.027 2259.5397,592.757" fill="none" id="Service-to-TokenProcessor" style="stroke:#181818;stroke-width:1;"/><polygon fill="#181818" points="2263.34,597.4,2260.7349,587.9019,2260.1731,593.5308,2254.5442,592.969,2263.34,597.4" style="stroke:#181818;stroke-width:1;"/><text fill="#000000" font-family="sans-serif" font-size="13" lengthAdjust="spacing" textLength="29.7832" x="2131.74" y="380.6969">uses</text><text fill="#000000" font-family="sans-serif" font-size="13" lengthAdjust="spacing" textLength="23.0356" x="1897.6178" y="188.7548">0..*</text><text fill="#000000" font-family="sans-serif" font-size="13" lengthAdjust="spacing" textLength="8.271" x="2249.6676" y="586.8726">1</text></g><!--link AuditService to AuditRepository--><g class="link" data-entity-1="AuditService" data-entity-2="AuditRepository" data-source-line="166" data-uid="lnk33" id="link_AuditService_AuditRepository"><path codeLine="166" d="M1845.3,400.43 C1838.47,437.18 1830.54,509.56 1860.48,559.72 C1867.24,571.05 1871.8347,577.0748 1882.2147,585.5148" fill="none" id="AuditService-to-AuditRepository" style="stroke:#181818;stroke-width:1;"/><polygon fill="#181818" points="1886.87,589.3,1882.4105,580.5186,1882.9906,586.1456,1877.3635,586.7257,1886.87,589.3" style="stroke:#181818;stroke-width:1;"/><text fill="#000000" font-family="sans-serif" font-size="13" lengthAdjust="spacing" textLength="92.5298" x="1861.48" y="515.7869">retrieves from</text><text fill="#000000" font-family="sans-serif" font-size="13" lengthAdjust="spacing" textLength="8.271" x="1835.0958" y="420.2643">1</text><text fill="#000000" font-family="sans-serif" font-size="13" lengthAdjust="spacing" textLength="8.271" x="1864.5541" y="578.6878">1</text></g><!--link TicketService to TicketRepository--><g class="link" data-entity-1="TicketService" data-entity-2="TicketRepository" data-source-line="167" data-uid="lnk34" id="link_TicketService_TicketRepository"><path codeLine="167" d="M1523.56,400.3 C1490.53,443.01 1423.2201,530.0334 1380.9101,584.7534" fill="none" id="TicketService-to-TicketRepository" style="stroke:#181818;stroke-width:1;"/><polygon fill="#181818" points="1377.24,589.5,1385.9096,584.8268,1380.2984,585.5445,1379.5808,579.9334,1377.24,589.5" style="stroke:#181818;stroke-width:1;"/><text fill="#000000" font-family="sans-serif" font-size="13" lengthAdjust="spacing" textLength="59.8584" x="1472.78" y="515.7869">manages</text><text fill="#000000" font-family="sans-serif" font-size="13" lengthAdjust="spacing" textLength="8.271" x="1510.2488" y="420.1026">1</text><text fill="#000000" font-family="sans-serif" font-size="13" lengthAdjust="spacing" textLength="8.271" x="1373.8184" y="578.5916">1</text></g><!--link UserService to UserRepository--><g class="link" data-entity-1="UserService" data-entity-2="UserRepository" data-source-line="168" data-uid="lnk35" id="link_UserService_UserRepository"><path codeLine="168" d="M1695.49,400.3 C1691.82,443.01 1684.4435,528.802 1679.7435,583.522" fill="none" id="UserService-to-UserRepository" style="stroke:#181818;stroke-width:1;"/><polygon fill="#181818" points="1679.23,589.5,1683.9855,580.8753,1679.6579,584.5183,1676.0149,580.1907,1679.23,589.5" style="stroke:#181818;stroke-width:1;"/><text fill="#000000" font-family="sans-serif" font-size="13" lengthAdjust="spacing" textLength="59.8584" x="1690.74" y="515.7869">manages</text><text fill="#000000" font-family="sans-serif" font-size="13" lengthAdjust="spacing" textLength="8.271" x="1686.064" y="420.1026">1</text><text fill="#000000" font-family="sans-serif" font-size="13" lengthAdjust="spacing" textLength="8.271" x="1671.2129" y="578.5916">1</text></g><!--SRC=[bLVVR-8u47xFNp7NVLXszrfrxwHzG5Kb2caR2HAKmExZoIG6V0GxiftkSbN_znixWVmW59Q747k-6N-U6OydQiDuHYJPmagAF6DyJINJXCSK_dBKGJXcdEfTHY7EvGjrd8ymOPnjIGfwJRUq3p_NJ5DOarG0GKCy0PgYW6i5WgSxfsPhGUBDocA68XKIj2HSeGZ1pXy9NU9IC0p6GVZFmnDyeFRtxLjBv0Sp5puiyNTxYq8av7ALImeaJK4i_gKnhhmcBpW1NF3hsY8r0ZLMQ9tagOPN1-2XnN3FndchxoDEYLBdy1KyGn1PqSiL9Ew1y5Nw6ogns6Q2cprUhCA5Vcy1u-S6diGQXPTxALSq9khi7Z22es0oy7n7YnN5f9Al3cf0wUKPYpTKlzePyxi6blI1OSPKCvhf53CnqfBnLMq-eIgMBDDCy0wfsR_gr4B-scHm7qQ7znf0QQ9pr2oeHNPanMzrudDbTl8URKwsNQobC9i9yRatMhDQ4VfDsmrkWpnXPmp4CazcUExx1NWOpaTcMDf2QnyzVpgVmJG8Pr4jT4QEbgXS4gmaXOlG5KFC10LtTvWSkOPCI7r_Nn7uWijHeca1hqsZrQwv2U5ue6GXKYqyZTUSnOpmJZ66Qxdib0nU24l98gN7KhMduPkSwHBKig0bwKYXBu11O2jUKQs94gRYDP4hsfAM0QnyQnBif6UxLMmep-cOs0RpsVdWMciXpOHYM1bsQ4_akZky2kknXVU8UPP9zQaF2u5vtjY_YOGHghzlHsIdUWWQCwNlxEJzQLTSJiIWUrYTPDygdc9XP0yxB-cLXmDnWQqb9BqpiXDSYgXVpgR0zxJzsnULKvmAwIbMXVGKBx6XV2f5J9N22lmEgtBlNl8enTQgzRHvxkl9fwfM5DaIkU5tR-YsCuKi55w-iOQ8oXSMq-EoNWg0_jAK9seF1BRDzZr4iuAq2-m51kh7vAW6Ng3VE3Dskwu_dxJtIdc-RLm8bKE3gUiV1fuFqp1u2jqegW0-F0VZqM6Cmc3ytQqcXkCWAeTbMErovegebebcWyV7msZc3fzzR-WDggKd0t_mv8P7PXhrlR8t3Dq1TW0LgK55Q3uTrMKZT-oMmxVYHW_TyM3c1Nxqx4qZf_0BNDtUt7o-khuMLr-lR5ZwPTbFOB4x1k4BuaQrspX6x4f8zXzg4EKO4-_Y5pGLVAL02ylDDZo2GyhunavuIo3Ohves5TZIDBHssfG6O0hxnrO9_ibIs_Rkq79PmcbY9HgRtrhZS5DwDx5hjhTsNxoKBjZRCInjA6guWvyaNLBiOF7iEliKRQ1QfTWen49YGZFUhT2i1dspP-KqZWIYJXl7Ea1Vy0fPOeLmccUvqcjNmZvixRrTHEuOtwpY5TgnWICA_A_E3-luV5kq-_Oa8yAs-mkYM0mcaHsHKKbCKLH_eWV0jA6EZLln6K1_PIb6LUFNIV5faJZxMFqF]--></g></svg>