<svg xmlns="http://www.w3.org/2000/svg" xmlns:xlink="http://www.w3.org/1999/xlink" contentStyleType="text/css" data-diagram-type="DESCRIPTION" height="848px" preserveAspectRatio="none" style="width:1091px;height:848px;background:#FFFFFF;" version="1.1" viewBox="0 0 1091 848" width="1091px" zoomAndPan="magnify"><defs/><g><!--cluster Hospital Incident Manager--><g class="cluster" data-entity="Hospital Incident Manager" data-source-line="8" data-uid="ent0009" id="cluster_Hospital Incident Manager"><rect fill="none" height="835" rx="2.5" ry="2.5" style="stroke:#181818;stroke-width:1;" width="661.45" x="212.62" y="7"/><text fill="#000000" font-family="sans-serif" font-size="14" font-weight="bold" lengthAdjust="spacing" textLength="189.6494" x="448.5203" y="22.5352">Hospital Incident Manager</text></g><!--entity UC1 - login--><g class="entity" data-entity="UC1 - login" data-source-line="9" data-uid="ent0010" id="entity_UC1 - login"><ellipse cx="361.061" cy="754.999" fill="#F1F1F1" rx="59.081" ry="14.659" style="stroke:#181818;stroke-width:0.5;"/><text fill="#000000" font-family="sans-serif" font-size="14" lengthAdjust="spacing" textLength="79.3105" x="321.4058" y="759.7431">UC1 - login</text></g><!--entity UC2 - authenticate--><g class="entity" data-entity="UC2 - authenticate" data-source-line="9" data-uid="ent0011" id="entity_UC2 - authenticate"><ellipse cx="731.7937" cy="808.0007" fill="#F1F1F1" rx="79.6537" ry="18.3307" style="stroke:#181818;stroke-width:0.5;"/><text fill="#000000" font-family="sans-serif" font-size="14" lengthAdjust="spacing" textLength="129.2539" x="667.1667" y="812.7449">UC2 - authenticate</text></g><!--entity UC6 - create ticket--><g class="entity" data-entity="UC6 - create ticket" data-source-line="10" data-uid="ent0013" id="entity_UC6 - create ticket"><ellipse cx="361.0592" cy="93.9998" fill="#F1F1F1" rx="79.4492" ry="18.2898" style="stroke:#181818;stroke-width:0.5;"/><text fill="#000000" font-family="sans-serif" font-size="14" lengthAdjust="spacing" textLength="128.7686" x="296.6749" y="98.744">UC6 - create ticket</text></g><!--entity UC8 - visualize global tickets--><g class="entity" data-entity="UC8 - visualize global tickets" data-source-line="11" data-uid="ent0014" id="entity_UC8 - visualize global tickets"><ellipse cx="361.0589" cy="254.9958" fill="#F1F1F1" rx="110.9789" ry="24.5958" style="stroke:#181818;stroke-width:0.5;"/><text fill="#000000" font-family="sans-serif" font-size="14" lengthAdjust="spacing" textLength="199.6025" x="261.2576" y="259.7399">UC8 - visualize global tickets</text></g><!--entity UC14 - visualize department tickets--><g class="entity" data-entity="UC14 - visualize department tickets" data-source-line="12" data-uid="ent0015" id="entity_UC14 - visualize department tickets"><ellipse cx="361.0605" cy="442.9981" fill="#F1F1F1" rx="132.4405" ry="28.8881" style="stroke:#181818;stroke-width:0.5;"/><text fill="#000000" font-family="sans-serif" font-size="14" lengthAdjust="spacing" textLength="245.4033" x="238.3588" y="447.7422">UC14 - visualize department tickets</text></g><!--entity UC11 - filter tickets--><g class="entity" data-entity="UC11 - filter tickets" data-source-line="13" data-uid="ent0016" id="entity_UC11 - filter tickets"><ellipse cx="731.7878" cy="233.0036" fill="#F1F1F1" rx="82.2178" ry="18.8436" style="stroke:#181818;stroke-width:0.5;"/><text fill="#000000" font-family="sans-serif" font-size="14" lengthAdjust="spacing" textLength="135.2969" x="664.1393" y="237.7477">UC11 - filter tickets</text></g><!--entity UC10 - download ticket list--><g class="entity" data-entity="UC10 - download ticket list" data-source-line="15" data-uid="ent0021" id="entity_UC10 - download ticket list"><ellipse cx="731.7912" cy="155.9982" fill="#F1F1F1" rx="105.2412" ry="23.4482" style="stroke:#181818;stroke-width:0.5;"/><text fill="#000000" font-family="sans-serif" font-size="14" lengthAdjust="spacing" textLength="187.127" x="638.2278" y="160.7424">UC10 - download ticket list</text></g><!--entity UC12 - comment on ticket--><g class="entity" data-entity="UC12 - comment on ticket" data-source-line="17" data-uid="ent0026" id="entity_UC12 - comment on ticket"><ellipse cx="731.7866" cy="309.9953" fill="#F1F1F1" rx="102.6766" ry="22.9353" style="stroke:#181818;stroke-width:0.5;"/><text fill="#000000" font-family="sans-serif" font-size="14" lengthAdjust="spacing" textLength="181.5078" x="641.0327" y="314.7395">UC12 - comment on ticket</text></g><!--entity UC7 - visualize my incidents--><g class="entity" data-entity="UC7 - visualize my incidents" data-source-line="19" data-uid="ent0031" id="entity_UC7 - visualize my incidents"><ellipse cx="361.0609" cy="170.9962" fill="#F1F1F1" rx="108.7809" ry="24.1562" style="stroke:#181818;stroke-width:0.5;"/><text fill="#000000" font-family="sans-serif" font-size="14" lengthAdjust="spacing" textLength="194.8379" x="263.6419" y="175.7403">UC7 - visualize my incidents</text></g><!--entity UC9 - assign department to ticket--><g class="entity" data-entity="UC9 - assign department to ticket" data-source-line="20" data-uid="ent0032" id="entity_UC9 - assign department to ticket"><ellipse cx="731.7857" cy="69.9971" fill="#F1F1F1" rx="126.2857" ry="27.6571" style="stroke:#181818;stroke-width:0.5;"/><text fill="#000000" font-family="sans-serif" font-size="14" lengthAdjust="spacing" textLength="232.3809" x="615.5953" y="74.7413">UC9 - assign department to ticket</text></g><!--entity UC5 - mark notification as read--><g class="entity" data-entity="UC5 - mark notification as read" data-source-line="21" data-uid="ent0035" id="entity_UC5 - mark notification as read"><ellipse cx="731.7895" cy="649.0019" fill="#F1F1F1" rx="118.3095" ry="26.0619" style="stroke:#181818;stroke-width:0.5;"/><text fill="#000000" font-family="sans-serif" font-size="14" lengthAdjust="spacing" textLength="215.3799" x="624.0995" y="653.746">UC5 - mark notification as read</text></g><!--entity UC4 - open notification tray--><g class="entity" data-entity="UC4 - open notification tray" data-source-line="21" data-uid="ent0036" id="entity_UC4 - open notification tray"><ellipse cx="361.0618" cy="649.0024" fill="#F1F1F1" rx="107.1118" ry="23.8224" style="stroke:#181818;stroke-width:0.5;"/><text fill="#000000" font-family="sans-serif" font-size="14" lengthAdjust="spacing" textLength="191.208" x="265.4578" y="653.7465">UC4 - open notification tray</text></g><!--entity UC3 - receive notification--><g class="entity" data-entity="UC3 - receive notification" data-source-line="22" data-uid="ent0039" id="entity_UC3 - receive notification"><ellipse cx="731.7891" cy="731.9958" fill="#F1F1F1" rx="99.4791" ry="22.2958" style="stroke:#181818;stroke-width:0.5;"/><text fill="#000000" font-family="sans-serif" font-size="14" lengthAdjust="spacing" textLength="174.46" x="644.5591" y="736.74">UC3 - receive notification</text></g><!--entity UC13 - view audit log--><g class="entity" data-entity="UC13 - view audit log" data-source-line="23" data-uid="ent0042" id="entity_UC13 - view audit log"><ellipse cx="361.0641" cy="338.0008" fill="#F1F1F1" rx="88.0041" ry="20.0008" style="stroke:#181818;stroke-width:0.5;"/><text fill="#000000" font-family="sans-serif" font-size="14" lengthAdjust="spacing" textLength="148.6816" x="286.7233" y="342.745">UC13 - view audit log</text></g><!--entity UC16 - update ticket notes--><g class="entity" data-entity="UC16 - update ticket notes" data-source-line="24" data-uid="ent0043" id="entity_UC16 - update ticket notes"><ellipse cx="731.7856" cy="473.9951" fill="#F1F1F1" rx="104.3256" ry="23.2651" style="stroke:#181818;stroke-width:0.5;"/><text fill="#000000" font-family="sans-serif" font-size="14" lengthAdjust="spacing" textLength="185.124" x="639.2236" y="478.7393">UC16 - update ticket notes</text></g><!--entity UC15 - update ticket status--><g class="entity" data-entity="UC15 - update ticket status" data-source-line="25" data-uid="ent0046" id="entity_UC15 - update ticket status"><ellipse cx="731.7906" cy="392.0041" fill="#F1F1F1" rx="106.0206" ry="23.6041" style="stroke:#181818;stroke-width:0.5;"/><text fill="#000000" font-family="sans-serif" font-size="14" lengthAdjust="spacing" textLength="188.8291" x="637.3761" y="396.7483">UC15 - update ticket status</text></g><!--entity UC17 - assign technician to ticket--><g class="entity" data-entity="UC17 - assign technician to ticket" data-source-line="26" data-uid="ent0049" id="entity_UC17 - assign technician to ticket"><ellipse cx="731.7921" cy="560.0024" fill="#F1F1F1" rx="125.9121" ry="27.5824" style="stroke:#181818;stroke-width:0.5;"/><text fill="#000000" font-family="sans-serif" font-size="14" lengthAdjust="spacing" textLength="231.5879" x="615.9982" y="564.7466">UC17 - assign technician to ticket</text></g><!--entity user--><g class="entity" data-entity="user" data-source-line="4" data-uid="ent0002" id="entity_user"><ellipse cx="20.6768" cy="423.26" fill="#F1F1F1" rx="4.5" ry="4.5" style="stroke:#181818;stroke-width:0.5;"/><path d="M8.1768,429.76 L8.1768,434.76 L17.6768,434.76 L17.6768,437.0174 L8.1768,446.5174 L12.4194,450.76 L20.6768,442.5026 L28.9341,450.76 L33.1768,446.5174 L23.6768,437.0174 L23.6768,434.76 L33.1768,434.76 L33.1768,429.76 L8.1768,429.76" fill="#F1F1F1" style="stroke:#181818;stroke-width:0.5;"/><text fill="#000000" font-family="sans-serif" font-size="14" lengthAdjust="spacing" textLength="29.3535" x="6" y="464.7952">user</text></g><!--entity staff--><g class="entity" data-entity="staff" data-source-line="4" data-uid="ent0003" id="entity_staff"><ellipse cx="130.9897" cy="151.26" fill="#F1F1F1" rx="4.5" ry="4.5" style="stroke:#181818;stroke-width:0.5;"/><path d="M118.4897,157.76 L118.4897,162.76 L127.9897,162.76 L127.9897,165.0174 L118.4897,174.5174 L122.7323,178.76 L130.9897,170.5026 L139.2471,178.76 L143.4897,174.5174 L133.9897,165.0174 L133.9897,162.76 L143.4897,162.76 L143.4897,157.76 L118.4897,157.76" fill="#F1F1F1" style="stroke:#181818;stroke-width:0.5;"/><text fill="#000000" font-family="sans-serif" font-size="14" lengthAdjust="spacing" textLength="30.3994" x="115.79" y="192.7952">staff</text></g><!--entity manager--><g class="entity" data-entity="manager" data-source-line="5" data-uid="ent0005" id="entity_manager"><ellipse cx="130.9897" cy="318.26" fill="#F1F1F1" rx="4.5" ry="4.5" style="stroke:#181818;stroke-width:0.5;"/><path d="M118.4897,324.76 L118.4897,329.76 L127.9897,329.76 L127.9897,332.0174 L118.4897,341.5174 L122.7324,345.76 L130.9897,337.5026 L139.2471,345.76 L143.4897,341.5174 L133.9897,332.0174 L133.9897,329.76 L143.4897,329.76 L143.4897,324.76 L118.4897,324.76" fill="#F1F1F1" style="stroke:#181818;stroke-width:0.5;"/><text fill="#000000" font-family="sans-serif" font-size="14" lengthAdjust="spacing" textLength="59.4795" x="101.25" y="359.7952">manager</text></g><!--entity technician--><g class="entity" data-entity="technician" data-source-line="6" data-uid="ent0007" id="entity_technician"><ellipse cx="130.9843" cy="423.26" fill="#F1F1F1" rx="4.5" ry="4.5" style="stroke:#181818;stroke-width:0.5;"/><path d="M118.4843,429.76 L118.4843,434.76 L127.9843,434.76 L127.9843,437.0174 L118.4843,446.5174 L122.7269,450.76 L130.9843,442.5026 L139.2416,450.76 L143.4843,446.5174 L133.9843,437.0174 L133.9843,434.76 L143.4843,434.76 L143.4843,429.76 L118.4843,429.76" fill="#F1F1F1" style="stroke:#181818;stroke-width:0.5;"/><text fill="#000000" font-family="sans-serif" font-size="14" lengthAdjust="spacing" textLength="69.2686" x="96.35" y="464.7952">technician</text></g><!--entity authentication authority--><g class="entity" data-entity="authentication authority" data-source-line="40" data-uid="ent0059" id="entity_authentication authority"><ellipse cx="1002.715" cy="788.26" fill="#F1F1F1" rx="4.5" ry="4.5" style="stroke:#181818;stroke-width:0.5;"/><path d="M990.215,794.76 L990.215,799.76 L999.715,799.76 L999.715,802.0174 L990.215,811.5174 L994.4577,815.76 L1002.715,807.5026 L1010.9724,815.76 L1015.215,811.5174 L1005.715,802.0174 L1005.715,799.76 L1015.215,799.76 L1015.215,794.76 L990.215,794.76" fill="#F1F1F1" style="stroke:#181818;stroke-width:0.5;"/><text fill="#000000" font-family="sans-serif" font-size="14" lengthAdjust="spacing" textLength="163.29" x="921.07" y="829.7952">authentication authority</text></g><!--reverse link user to staff--><g class="link" data-entity-1="user" data-entity-2="staff" data-source-line="4" data-uid="lnk4" id="link_user_staff"><path d="M38.3305,401.1776 C58.9705,349.3576 99.4,247.81 120.02,196.04" fill="none" id="user-backto-staff" style="stroke:#181818;stroke-width:1;"/><polygon fill="none" points="31.67,417.9,43.9047,403.3978,32.7564,398.9575,31.67,417.9" style="stroke:#181818;stroke-width:1;"/></g><!--reverse link user to manager--><g class="link" data-entity-1="user" data-entity-2="manager" data-source-line="5" data-uid="lnk6" id="link_user_manager"><path d="M48.7642,416.7415 C66.0742,399.9615 82.8,383.75 104.2,363" fill="none" id="user-backto-manager" style="stroke:#181818;stroke-width:1;"/><polygon fill="none" points="35.84,429.27,52.9404,421.0496,44.5881,412.4334,35.84,429.27" style="stroke:#181818;stroke-width:1;"/></g><!--reverse link user to technician--><g class="link" data-entity-1="user" data-entity-2="technician" data-source-line="6" data-uid="lnk8" id="link_user_technician"><path d="M53.84,443 C69.09,443 75.91,443 96.23,443" fill="none" id="user-backto-technician" style="stroke:#181818;stroke-width:1;"/><polygon fill="none" points="35.84,443,53.84,449,53.84,437,35.84,443" style="stroke:#181818;stroke-width:1;"/></g><!--link UC1 - login to UC2 - authenticate--><g class="link" data-entity-1="UC1 - login" data-entity-2="UC2 - authenticate" data-source-line="9" data-uid="lnk12" id="link_UC1 - login_UC2 - authenticate"><path d="M412.22,762.57 C444.08,767.35 486.2,773.62 523.5,779 C569.9,785.69 616.2267,792.1872 656.6767,797.7872" fill="none" id="UC1 - login-to-UC2 - authenticate" style="stroke:#181818;stroke-width:1;stroke-dasharray:7,7;"/><polygon fill="#181818" points="662.62,798.61,654.2536,793.4136,657.6672,797.9243,653.1565,801.338,662.62,798.61" style="stroke:#181818;stroke-width:1;"/><text fill="#000000" font-family="sans-serif" font-size="13" lengthAdjust="spacing" textLength="45.7349" x="527" y="775.5684">include</text></g><!--reverse link UC8 - visualize global tickets to UC11 - filter tickets--><g class="link" data-entity-1="UC8 - visualize global tickets" data-entity-2="UC11 - filter tickets" data-source-line="13" data-uid="lnk18" id="link_UC8 - visualize global tickets_UC11 - filter tickets"><path d="M436.8237,234.1564 C465.2237,227.1164 492.79,221.47 523.5,218 C570.47,212.69 623.65,216.74 664.38,221.96" fill="none" id="UC8 - visualize global tickets-backto-UC11 - filter tickets" style="stroke:#181818;stroke-width:1;stroke-dasharray:7,7;"/><polygon fill="#181818" points="431,235.6,440.698,237.317,435.8531,234.397,438.7732,229.5521,431,235.6" style="stroke:#181818;stroke-width:1;"/><text fill="#000000" font-family="sans-serif" font-size="13" lengthAdjust="spacing" textLength="50.1973" x="524.5" y="212.0784">extends</text></g><!--reverse link UC14 - visualize department tickets to UC11 - filter tickets--><g class="link" data-entity-1="UC14 - visualize department tickets" data-entity-2="UC11 - filter tickets" data-source-line="14" data-uid="lnk20" id="link_UC14 - visualize department tickets_UC11 - filter tickets"><path d="M437.5752,415.8745 C483.1852,396.7945 535.84,368.87 575.5,327 C595.19,306.22 583.36,288.15 605.5,270 C621.38,256.99 641.68,248.55 661.31,243.08" fill="none" id="UC14 - visualize department tickets-backto-UC11 - filter tickets" style="stroke:#181818;stroke-width:1;stroke-dasharray:7,7;"/><polygon fill="#181818" points="432.04,418.19,441.8865,418.4068,436.6527,416.2604,438.7991,411.0266,432.04,418.19" style="stroke:#181818;stroke-width:1;"/><text fill="#000000" font-family="sans-serif" font-size="13" lengthAdjust="spacing" textLength="50.1973" x="524.5" y="323.5684">extends</text></g><!--reverse link UC8 - visualize global tickets to UC10 - download ticket list--><g class="link" data-entity-1="UC8 - visualize global tickets" data-entity-2="UC10 - download ticket list" data-source-line="15" data-uid="lnk23" id="link_UC8 - visualize global tickets_UC10 - download ticket list"><path d="M440.7365,234.4675 C460.2465,228.2475 475.25,222.29 493.5,213 C508.24,205.5 508.27,197.44 523.5,191 C557.12,176.79 596.1,168.34 631.13,163.32" fill="none" id="UC8 - visualize global tickets-backto-UC10 - download ticket list" style="stroke:#181818;stroke-width:1;stroke-dasharray:7,7;"/><polygon fill="#181818" points="435.02,236.29,444.8098,237.3673,439.7838,234.7713,442.3798,229.7453,435.02,236.29" style="stroke:#181818;stroke-width:1;"/><text fill="#000000" font-family="sans-serif" font-size="13" lengthAdjust="spacing" textLength="50.1973" x="524.5" y="171.3684">extends</text></g><!--reverse link UC14 - visualize department tickets to UC10 - download ticket list--><g class="link" data-entity-1="UC14 - visualize department tickets" data-entity-2="UC10 - download ticket list" data-source-line="16" data-uid="lnk25" id="link_UC14 - visualize department tickets_UC10 - download ticket list"><path d="M440.2642,416.1141 C461.7042,405.8741 478.1,394.51 493.5,376 C523.46,340.01 495.02,312.17 523.5,275 C540.01,253.46 556.06,261.94 575.5,243 C592.99,225.97 586.14,211.86 605.5,197 C619.66,186.13 636.83,178.08 653.85,172.14" fill="none" id="UC14 - visualize department tickets-backto-UC10 - download ticket list" style="stroke:#181818;stroke-width:1;stroke-dasharray:7,7;"/><polygon fill="#181818" points="434.85,418.7,444.6952,418.4306,439.3618,416.5451,441.2473,411.2117,434.85,418.7" style="stroke:#181818;stroke-width:1;"/><text fill="#000000" font-family="sans-serif" font-size="13" lengthAdjust="spacing" textLength="50.1973" x="524.5" y="239.5684">extends</text></g><!--reverse link UC8 - visualize global tickets to UC12 - comment on ticket--><g class="link" data-entity-1="UC8 - visualize global tickets" data-entity-2="UC12 - comment on ticket" data-source-line="17" data-uid="lnk28" id="link_UC8 - visualize global tickets_UC12 - comment on ticket"><path d="M434.4407,276.3709 C463.3407,284.2109 491.95,290.97 523.5,296 C557.88,301.48 595.79,304.82 629.69,306.85" fill="none" id="UC8 - visualize global tickets-backto-UC12 - comment on ticket" style="stroke:#181818;stroke-width:1;stroke-dasharray:7,7;"/><polygon fill="#181818" points="428.65,274.8,436.2888,281.0168,433.4756,276.1091,438.3833,273.2959,428.65,274.8" style="stroke:#181818;stroke-width:1;"/><text fill="#000000" font-family="sans-serif" font-size="13" lengthAdjust="spacing" textLength="50.1973" x="524.5" y="292.5684">extends</text></g><!--reverse link UC14 - visualize department tickets to UC12 - comment on ticket--><g class="link" data-entity-1="UC14 - visualize department tickets" data-entity-2="UC12 - comment on ticket" data-source-line="18" data-uid="lnk30" id="link_UC14 - visualize department tickets_UC12 - comment on ticket"><path d="M499.6824,441.1322 C528.6524,435.8422 551.82,427.16 575.5,410 C599.33,392.74 583.16,370.14 605.5,351 C619.06,339.39 635.99,331.04 652.97,325.06" fill="none" id="UC14 - visualize department tickets-backto-UC12 - comment on ticket" style="stroke:#181818;stroke-width:1;stroke-dasharray:7,7;"/><polygon fill="#181818" points="493.78,442.21,503.3521,444.5282,498.6987,441.3118,501.9151,436.6584,493.78,442.21" style="stroke:#181818;stroke-width:1;"/><text fill="#000000" font-family="sans-serif" font-size="13" lengthAdjust="spacing" textLength="50.1973" x="524.5" y="406.5684">extends</text></g><!--reverse link UC8 - visualize global tickets to UC9 - assign department to ticket--><g class="link" data-entity-1="UC8 - visualize global tickets" data-entity-2="UC9 - assign department to ticket" data-source-line="20" data-uid="lnk34" id="link_UC8 - visualize global tickets_UC9 - assign department to ticket"><path d="M452.6393,237.0109 C469.3993,230.9209 480.24,224.58 493.5,213 C516.86,192.6 501.13,171.48 523.5,150 C554.81,119.95 598.63,100.86 637.92,88.9" fill="none" id="UC8 - visualize global tickets-backto-UC9 - assign department to ticket" style="stroke:#181818;stroke-width:1;stroke-dasharray:7,7;"/><polygon fill="#181818" points="447,239.06,456.8249,239.7458,451.6994,237.3524,454.0928,232.2268,447,239.06" style="stroke:#181818;stroke-width:1;"/><text fill="#000000" font-family="sans-serif" font-size="13" lengthAdjust="spacing" textLength="50.1973" x="524.5" y="111.9884">extends</text></g><!--reverse link UC4 - open notification tray to UC5 - mark notification as read--><g class="link" data-entity-1="UC4 - open notification tray" data-entity-2="UC5 - mark notification as read" data-source-line="21" data-uid="lnk38" id="link_UC4 - open notification tray_UC5 - mark notification as read"><path d="M474.22,649 C519.53,649 566.59,649 613.1,649" fill="none" id="UC4 - open notification tray-backto-UC5 - mark notification as read" style="stroke:#181818;stroke-width:1;stroke-dasharray:7,7;"/><polygon fill="#181818" points="468.22,649,477.22,653,473.22,649,477.22,645,468.22,649" style="stroke:#181818;stroke-width:1;"/><text fill="#000000" font-family="sans-serif" font-size="13" lengthAdjust="spacing" textLength="50.1973" x="524.5" y="645.5684">extends</text></g><!--reverse link UC4 - open notification tray to UC3 - receive notification--><g class="link" data-entity-1="UC4 - open notification tray" data-entity-2="UC3 - receive notification" data-source-line="22" data-uid="lnk41" id="link_UC4 - open notification tray_UC3 - receive notification"><path d="M443.4236,667.3175 C508.7336,682.0175 596.6,701.79 660.38,716.15" fill="none" id="UC4 - open notification tray-backto-UC3 - receive notification" style="stroke:#181818;stroke-width:1;stroke-dasharray:7,7;"/><polygon fill="#181818" points="437.57,666,445.472,671.8787,442.448,667.0979,447.2287,664.0739,437.57,666" style="stroke:#181818;stroke-width:1;"/><text fill="#000000" font-family="sans-serif" font-size="13" lengthAdjust="spacing" textLength="45.7349" x="527" y="682.0984">include</text></g><!--reverse link UC14 - visualize department tickets to UC16 - update ticket notes--><g class="link" data-entity-1="UC14 - visualize department tickets" data-entity-2="UC16 - update ticket notes" data-source-line="24" data-uid="lnk45" id="link_UC14 - visualize department tickets_UC16 - update ticket notes"><path d="M408.9427,473.9038 C440.3627,493.0638 480.17,513.74 523.5,524 C545.99,529.33 552.67,527.59 575.5,524 C580.59,523.2 630.06,507.16 671.81,493.46" fill="none" id="UC14 - visualize department tickets-backto-UC16 - update ticket notes" style="stroke:#181818;stroke-width:1;stroke-dasharray:7,7;"/><polygon fill="#181818" points="403.82,470.78,409.4215,478.8808,408.0889,473.3832,413.5866,472.0506,403.82,470.78" style="stroke:#181818;stroke-width:1;"/><text fill="#000000" font-family="sans-serif" font-size="13" lengthAdjust="spacing" textLength="50.1973" x="524.5" y="520.5684">extends</text></g><!--reverse link UC14 - visualize department tickets to UC15 - update ticket status--><g class="link" data-entity-1="UC14 - visualize department tickets" data-entity-2="UC15 - update ticket status" data-source-line="25" data-uid="lnk48" id="link_UC14 - visualize department tickets_UC15 - update ticket status"><path d="M435.5556,469.6196 C478.9756,481.5496 529.79,487.63 575.5,467 C593.87,458.71 588.67,444.08 605.5,433 C620.99,422.81 639.22,414.96 656.9,409" fill="none" id="UC14 - visualize department tickets-backto-UC15 - update ticket status" style="stroke:#181818;stroke-width:1;stroke-dasharray:7,7;"/><polygon fill="#181818" points="429.77,468.03,437.3886,474.2715,434.5913,469.3547,439.5081,466.5574,429.77,468.03" style="stroke:#181818;stroke-width:1;"/><text fill="#000000" font-family="sans-serif" font-size="13" lengthAdjust="spacing" textLength="50.1973" x="524.5" y="463.5684">extends</text></g><!--reverse link UC14 - visualize department tickets to UC17 - assign technician to ticket--><g class="link" data-entity-1="UC14 - visualize department tickets" data-entity-2="UC17 - assign technician to ticket" data-source-line="26" data-uid="lnk51" id="link_UC14 - visualize department tickets_UC17 - assign technician to ticket"><path d="M397.1407,475.312 C427.6707,501.682 472.72,535.38 523.5,552 C550.46,560.82 580.44,564.97 609.05,566.49" fill="none" id="UC14 - visualize department tickets-backto-UC17 - assign technician to ticket" style="stroke:#181818;stroke-width:1;stroke-dasharray:7,7;"/><polygon fill="#181818" points="392.6,471.39,396.7964,480.3001,396.3839,474.6583,402.0257,474.2458,392.6,471.39" style="stroke:#181818;stroke-width:1;"/><text fill="#000000" font-family="sans-serif" font-size="13" lengthAdjust="spacing" textLength="50.1973" x="524.5" y="548.5684">extends</text></g><!--link user to UC1 - login--><g class="link" data-entity-1="user" data-entity-2="UC1 - login" data-source-line="29" data-uid="lnk52" id="link_user_UC1 - login"><path d="M34.33,468.21 C60.09,517.22 123.14,626.15 204.62,690 C238.81,716.79 279.8954,732.638 313.1954,742.678" fill="none" id="user-to-UC1 - login" style="stroke:#181818;stroke-width:1;"/><polygon fill="#181818" points="318.94,744.41,311.4778,737.9823,314.1529,742.9667,309.1685,745.6417,318.94,744.41" style="stroke:#181818;stroke-width:1;"/></g><!--link user to UC4 - open notification tray--><g class="link" data-entity-1="user" data-entity-2="UC4 - open notification tray" data-source-line="30" data-uid="lnk53" id="link_user_UC4 - open notification tray"><path d="M35.79,451.59 C84.76,481.4 243.315,577.93 317.645,623.18" fill="none" id="user-to-UC4 - open notification tray" style="stroke:#181818;stroke-width:1;"/><polygon fill="#181818" points="322.77,626.3,317.1624,618.2034,318.4992,623.7,313.0025,625.0367,322.77,626.3" style="stroke:#181818;stroke-width:1;"/></g><!--link staff to UC6 - create ticket--><g class="link" data-entity-1="staff" data-entity-2="UC6 - create ticket" data-source-line="32" data-uid="lnk54" id="link_staff_UC6 - create ticket"><path d="M146.62,160.75 C160.83,151.24 183.32,137.33 204.62,129 C233.22,117.81 260.3527,110.9074 288.5827,105.3574" fill="none" id="staff-to-UC6 - create ticket" style="stroke:#181818;stroke-width:1;"/><polygon fill="#181818" points="294.47,104.2,284.8674,102.0113,289.5639,105.1645,286.4107,109.861,294.47,104.2" style="stroke:#181818;stroke-width:1;"/></g><!--link staff to UC7 - visualize my incidents--><g class="link" data-entity-1="staff" data-entity-2="UC7 - visualize my incidents" data-source-line="33" data-uid="lnk55" id="link_staff_UC7 - visualize my incidents"><path d="M146.6,171 C168.18,171 204.49,171 245.79,171" fill="none" id="staff-to-UC7 - visualize my incidents" style="stroke:#181818;stroke-width:1;"/><polygon fill="#181818" points="251.79,171,242.79,167,246.79,171,242.79,175,251.79,171" style="stroke:#181818;stroke-width:1;"/></g><!--link manager to UC8 - visualize global tickets--><g class="link" data-entity-1="manager" data-entity-2="UC8 - visualize global tickets" data-source-line="35" data-uid="lnk56" id="link_manager_UC8 - visualize global tickets"><path d="M161.04,321.09 C174.08,313.96 189.83,305.94 204.62,300 C230.43,289.63 253.7504,282.1713 279.7204,274.9313" fill="none" id="manager-to-UC8 - visualize global tickets" style="stroke:#181818;stroke-width:1;"/><polygon fill="#181818" points="285.5,273.32,275.7564,271.8838,280.6837,274.6627,277.9048,279.59,285.5,273.32" style="stroke:#181818;stroke-width:1;"/></g><!--link manager to UC13 - view audit log--><g class="link" data-entity-1="manager" data-entity-2="UC13 - view audit log" data-source-line="36" data-uid="lnk57" id="link_manager_UC13 - view audit log"><path d="M160.87,338 C188.98,338 227.13,338 266.72,338" fill="none" id="manager-to-UC13 - view audit log" style="stroke:#181818;stroke-width:1;"/><polygon fill="#181818" points="272.72,338,263.72,334,267.72,338,263.72,342,272.72,338" style="stroke:#181818;stroke-width:1;"/></g><!--link technician to UC14 - visualize department tickets--><g class="link" data-entity-1="technician" data-entity-2="UC14 - visualize department tickets" data-source-line="38" data-uid="lnk58" id="link_technician_UC14 - visualize department tickets"><path d="M165.64,443 C182.86,443 199.07,443 222.27,443" fill="none" id="technician-to-UC14 - visualize department tickets" style="stroke:#181818;stroke-width:1;"/><polygon fill="#181818" points="228.27,443,219.27,439,223.27,443,219.27,447,228.27,443" style="stroke:#181818;stroke-width:1;"/></g><!--link UC2 - authenticate to authentication authority--><g class="link" data-entity-1="UC2 - authenticate" data-entity-2="authentication authority" data-source-line="40" data-uid="lnk60" id="link_UC2 - authenticate_authentication authority"><path d="M811.66,808 C846.07,808 880.37,808 914.98,808" fill="none" id="UC2 - authenticate-to-authentication authority" style="stroke:#181818;stroke-width:1;"/><polygon fill="#181818" points="920.98,808,911.98,804,915.98,808,911.98,812,920.98,808" style="stroke:#181818;stroke-width:1;"/></g><!--SRC=[dLJBRjim4BppAnO-nGSPTTCqYL7aqajowAde1x3YIbwO8WLo5STz_7kNibMBhI73Fd8vEnpkO-A6NAk3Ra2NxCDNtbc4Ps-jtogB5GDx25Il6Gm5B9cyKwgB6E3JhwA0oBggHkT6ErrZ64KOoxMZahJa9GBjQdbXzknZIwmjlBYI33g6B_lKsKzry-tp4WgmlYOtNnY_TOidYRsNcEvuBM0gDUDyHQwqdS6Ky54kou0I1hdT8CzJz46YhnGxRUa7GctzTtbnVnzxmF93XZ0ejU0coSbGIKv5bkLJGtpHjRsgoITM-CReJ3n7Sbv6nlHEqAaircjpG82bo5U8EajreRJKfD8tFS2xeHUNwvhckKpKVGPkTa27cTjtzp7DLOnKkup8Not-3j8YX0quprIbMPMjaIT0vjFyfKjVy2sw7CL1xpAoMu79tY2zOeQSGqy4qqomWj6IB6_xB-1MziWGfmtRptVQdgurn-r9L7ZrVDxzHoS-mTtLVFV73Xtjv4I7Bg3zVN2nekXBUFIRB3nHMQLwxnkG9_mdkv-QGNLmpG4xxLh_W4_sL8tADE3EEvqwPR9z_cmKwcTPZZuGxsRg3m00]--></g></svg>