<svg xmlns="http://www.w3.org/2000/svg" xmlns:xlink="http://www.w3.org/1999/xlink" contentStyleType="text/css" data-diagram-type="DESCRIPTION" height="1307px" preserveAspectRatio="none" style="width:1229px;height:1307px;background:#FFFFFF;" version="1.1" viewBox="0 0 1229 1307" width="1229px" zoomAndPan="magnify"><defs/><g><!--cluster Hospital Incident Manager--><g class="cluster" data-entity="Hospital Incident Manager" data-source-line="8" data-uid="ent0009" id="cluster_Hospital Incident Manager"><rect fill="none" height="1230" rx="2.5" ry="2.5" style="stroke:#181818;stroke-width:1;" width="1006.65" x="217.01" y="7"/><text fill="#000000" font-family="sans-serif" font-size="14" font-weight="bold" lengthAdjust="spacing" textLength="208.8379" x="615.9161" y="21.9951">Hospital Incident Manager</text></g><!--cluster notifications--><g class="cluster" data-entity="notifications" data-source-line="9" data-uid="ent0010" id="cluster_notifications"><rect fill="none" height="184" rx="2.5" ry="2.5" style="stroke:#181818;stroke-width:1;" width="636.96" x="267.84" y="902"/><path d="M376.9611,902 L376.9611,911.2969 L366.9611,921.2969 L267.84,921.2969" fill="none" style="stroke:#181818;stroke-width:1;"/><text fill="#000000" font-family="sans-serif" font-size="14" font-weight="bold" lengthAdjust="spacing" textLength="99.1211" x="270.84" y="915.9951">notifications</text></g><!--cluster login--><g class="cluster" data-entity="login" data-source-line="14" data-uid="ent0014" id="cluster_login"><rect fill="none" height="103" rx="2.5" ry="2.5" style="stroke:#181818;stroke-width:1;" width="547.22" x="318.4" y="1110"/><path d="M367.6041,1110 L367.6041,1119.2969 L357.6041,1129.2969 L318.4,1129.2969" fill="none" style="stroke:#181818;stroke-width:1;"/><text fill="#000000" font-family="sans-serif" font-size="14" font-weight="bold" lengthAdjust="spacing" textLength="39.2041" x="321.4" y="1123.9951">login</text></g><!--cluster staff_actions--><g class="cluster" data-entity="staff_actions" data-source-line="19" data-uid="ent0017" id="cluster_staff_actions"><rect fill="none" height="171" rx="2.5" ry="2.5" style="stroke:#181818;stroke-width:1;" width="251.99" x="265.85" y="50"/><path d="M376.6596,50 L376.6596,59.2969 L366.6596,69.2969 L265.85,69.2969" fill="none" style="stroke:#181818;stroke-width:1;"/><text fill="#000000" font-family="sans-serif" font-size="14" font-weight="bold" lengthAdjust="spacing" textLength="100.8096" x="268.85" y="63.9951">staff_actions</text></g><!--cluster manager_actions--><g class="cluster" data-entity="manager_actions" data-source-line="24" data-uid="ent0020" id="cluster_manager_actions"><rect fill="none" height="179" rx="2.5" ry="2.5" style="stroke:#181818;stroke-width:1;" width="649.43" x="264.06" y="245"/><path d="M408.0854,245 L408.0854,254.2969 L398.0854,264.2969 L264.06,264.2969" fill="none" style="stroke:#181818;stroke-width:1;"/><text fill="#000000" font-family="sans-serif" font-size="14" font-weight="bold" lengthAdjust="spacing" textLength="134.0254" x="267.06" y="258.9951">manager_actions</text></g><!--cluster technician_actions--><g class="cluster" data-entity="technician_actions" data-source-line="31" data-uid="ent0025" id="cluster_technician_actions"><rect fill="none" height="184" rx="2.5" ry="2.5" style="stroke:#181818;stroke-width:1;" width="671.8" x="241.01" y="694"/><path d="M396.8957,694 L396.8957,703.2969 L386.8957,713.2969 L241.01,713.2969" fill="none" style="stroke:#181818;stroke-width:1;"/><text fill="#000000" font-family="sans-serif" font-size="14" font-weight="bold" lengthAdjust="spacing" textLength="145.8857" x="244.01" y="707.9951">technician_actions</text></g><!--cluster manager_and_technician--><g class="cluster" data-entity="manager_and_technician" data-source-line="37" data-uid="ent0029" id="cluster_manager_and_technician"><rect fill="none" height="206" rx="2.5" ry="2.5" style="stroke:#181818;stroke-width:1;" width="552.13" x="639.53" y="456"/><path d="M844.5661,456 L844.5661,465.2969 L834.5661,475.2969 L639.53,475.2969" fill="none" style="stroke:#181818;stroke-width:1;"/><text fill="#000000" font-family="sans-serif" font-size="14" font-weight="bold" lengthAdjust="spacing" textLength="195.0361" x="642.53" y="469.9951">manager_and_technician</text></g><!--entity UC4--><g class="entity" data-entity="UC4" data-source-line="10" data-uid="ent0011" id="entity_UC4"><ellipse cx="391.836" cy="963.0012" fill="#F1F1F1" rx="108.006" ry="24.0012" style="stroke:#181818;stroke-width:0.5;"/><text fill="#000000" font-family="sans-serif" font-size="14" lengthAdjust="spacing" textLength="193.5596" x="295.0562" y="967.6496">UC4 - open notification tray</text></g><!--entity UC3--><g class="entity" data-entity="UC3" data-source-line="11" data-uid="ent0012" id="entity_UC3"><ellipse cx="769.0783" cy="1047.0037" fill="#F1F1F1" rx="100.6683" ry="22.5337" style="stroke:#181818;stroke-width:0.5;"/><text fill="#000000" font-family="sans-serif" font-size="14" lengthAdjust="spacing" textLength="177.5293" x="680.3136" y="1051.6521">UC3 - receive notification</text></g><!--entity UC5--><g class="entity" data-entity="UC5" data-source-line="12" data-uid="ent0013" id="entity_UC5"><ellipse cx="769.0768" cy="963.0034" fill="#F1F1F1" rx="119.7168" ry="26.3434" style="stroke:#181818;stroke-width:0.5;"/><text fill="#000000" font-family="sans-serif" font-size="14" lengthAdjust="spacing" textLength="218.75" x="659.7018" y="967.6518">UC5 - mark notification as read</text></g><!--entity UC1--><g class="entity" data-entity="UC1" data-source-line="15" data-uid="ent0015" id="entity_UC1"><ellipse cx="391.8376" cy="1161.0036" fill="#F1F1F1" rx="57.4376" ry="14.5236" style="stroke:#181818;stroke-width:0.5;"/><text fill="#000000" font-family="sans-serif" font-size="14" lengthAdjust="spacing" textLength="76.9863" x="353.3444" y="1165.6521">UC1 - login</text></g><!--entity UC2--><g class="entity" data-entity="UC2" data-source-line="16" data-uid="ent0016" id="entity_UC2"><ellipse cx="769.0771" cy="1170.9974" fill="#F1F1F1" rx="80.5371" ry="18.5074" style="stroke:#181818;stroke-width:0.5;"/><text fill="#000000" font-family="sans-serif" font-size="14" lengthAdjust="spacing" textLength="131.9404" x="703.1068" y="1175.6458">UC2 - authenticate</text></g><!--entity UC6--><g class="entity" data-entity="UC6" data-source-line="20" data-uid="ent0018" id="entity_UC6"><ellipse cx="391.8429" cy="102.9986" fill="#F1F1F1" rx="80.2929" ry="18.4586" style="stroke:#181818;stroke-width:0.5;"/><text fill="#000000" font-family="sans-serif" font-size="14" lengthAdjust="spacing" textLength="131.3662" x="326.1598" y="107.647">UC6 - create ticket</text></g><!--entity UC7--><g class="entity" data-entity="UC7" data-source-line="21" data-uid="ent0019" id="entity_UC7"><ellipse cx="391.837" cy="180.9994" fill="#F1F1F1" rx="109.997" ry="24.3994" style="stroke:#181818;stroke-width:0.5;"/><text fill="#000000" font-family="sans-serif" font-size="14" lengthAdjust="spacing" textLength="197.873" x="292.9005" y="185.6478">UC7 - visualize my incidents</text></g><!--entity UC8--><g class="entity" data-entity="UC8" data-source-line="25" data-uid="ent0021" id="entity_UC8"><ellipse cx="391.8388" cy="307.9958" fill="#F1F1F1" rx="111.7788" ry="24.7558" style="stroke:#181818;stroke-width:0.5;"/><text fill="#000000" font-family="sans-serif" font-size="14" lengthAdjust="spacing" textLength="201.7217" x="290.978" y="312.6442">UC8 - visualize global tickets</text></g><!--entity UC9--><g class="entity" data-entity="UC9" data-source-line="26" data-uid="ent0022" id="entity_UC9"><ellipse cx="769.0795" cy="380.0019" fill="#F1F1F1" rx="128.4095" ry="28.0819" style="stroke:#181818;stroke-width:0.5;"/><text fill="#000000" font-family="sans-serif" font-size="14" lengthAdjust="spacing" textLength="237.2139" x="650.4725" y="384.6503">UC9 - assign department to ticket</text></g><!--entity UC17--><g class="entity" data-entity="UC17" data-source-line="27" data-uid="ent0023" id="entity_UC17"><ellipse cx="769.0759" cy="297.9972" fill="#F1F1F1" rx="80.3859" ry="18.4772" style="stroke:#181818;stroke-width:0.5;"/><text fill="#000000" font-family="sans-serif" font-size="14" lengthAdjust="spacing" textLength="131.585" x="703.2834" y="302.6456">UC17 - close ticket</text></g><!--entity UC13--><g class="entity" data-entity="UC13" data-source-line="28" data-uid="ent0024" id="entity_UC13"><ellipse cx="391.8362" cy="387.9992" fill="#F1F1F1" rx="88.3462" ry="20.0692" style="stroke:#181818;stroke-width:0.5;"/><text fill="#000000" font-family="sans-serif" font-size="14" lengthAdjust="spacing" textLength="149.9873" x="316.8425" y="392.6477">UC13 - view audit log</text></g><!--entity UC14--><g class="entity" data-entity="UC14" data-source-line="32" data-uid="ent0026" id="entity_UC14"><ellipse cx="391.8415" cy="757.9963" fill="#F1F1F1" rx="134.8315" ry="29.3663" style="stroke:#181818;stroke-width:0.5;"/><text fill="#000000" font-family="sans-serif" font-size="14" lengthAdjust="spacing" textLength="250.7559" x="266.4636" y="762.6447">UC14 - visualize department tickets</text></g><!--entity UC16--><g class="entity" data-entity="UC16" data-source-line="33" data-uid="ent0027" id="entity_UC16"><ellipse cx="769.0776" cy="833.9955" fill="#F1F1F1" rx="127.7276" ry="27.9455" style="stroke:#181818;stroke-width:0.5;"/><text fill="#000000" font-family="sans-serif" font-size="14" lengthAdjust="spacing" textLength="235.7715" x="651.1919" y="838.644">UC16 - assign technician to ticket</text></g><!--entity UC15--><g class="entity" data-entity="UC15" data-source-line="34" data-uid="ent0028" id="entity_UC15"><ellipse cx="769.0787" cy="749.9977" fill="#F1F1F1" rx="94.7387" ry="21.3477" style="stroke:#181818;stroke-width:0.5;"/><text fill="#000000" font-family="sans-serif" font-size="14" lengthAdjust="spacing" textLength="164.3906" x="686.8834" y="754.6462">UC15 - set ticket status</text></g><!--entity UC10--><g class="entity" data-entity="UC10" data-source-line="38" data-uid="ent0030" id="entity_UC10"><ellipse cx="769.0772" cy="614.0014" fill="#F1F1F1" rx="105.5572" ry="23.5114" style="stroke:#181818;stroke-width:0.5;"/><text fill="#000000" font-family="sans-serif" font-size="14" lengthAdjust="spacing" textLength="188.2344" x="674.96" y="618.6499">UC10 - download ticket list</text></g><!--entity UC11--><g class="entity" data-entity="UC11" data-source-line="39" data-uid="ent0031" id="entity_UC11"><ellipse cx="769.0779" cy="537.0016" fill="#F1F1F1" rx="82.0079" ry="18.8016" style="stroke:#181818;stroke-width:0.5;"/><text fill="#000000" font-family="sans-serif" font-size="14" lengthAdjust="spacing" textLength="135.3857" x="701.385" y="541.65">UC11 - filter tickets</text></g><!--entity UC12--><g class="entity" data-entity="UC12" data-source-line="40" data-uid="ent0032" id="entity_UC12"><ellipse cx="1064.0847" cy="613.9969" fill="#F1F1F1" rx="103.5847" ry="23.1169" style="stroke:#181818;stroke-width:0.5;"/><text fill="#000000" font-family="sans-serif" font-size="14" lengthAdjust="spacing" textLength="183.9277" x="972.1208" y="618.6454">UC12 - comment on ticket</text></g><!--entity user--><g class="entity" data-entity="user" data-source-line="4" data-uid="ent0002" id="entity_user"><ellipse cx="21.2681" cy="738.35" fill="#F1F1F1" rx="4.5" ry="4.5" style="stroke:#181818;stroke-width:0.5;"/><path d="M8.7681,744.85 L8.7681,749.85 L18.2681,749.85 L18.2681,752.1074 L8.7681,761.6074 L13.0107,765.85 L21.2681,757.5926 L29.5254,765.85 L33.7681,761.6074 L24.2681,752.1074 L24.2681,749.85 L33.7681,749.85 L33.7681,744.85 L8.7681,744.85" fill="#F1F1F1" style="stroke:#181818;stroke-width:0.5;"/><text fill="#000000" font-family="sans-serif" font-size="14" lengthAdjust="spacing" textLength="30.5361" x="6" y="779.3451">user</text></g><!--entity staff--><g class="entity" data-entity="staff" data-source-line="4" data-uid="ent0003" id="entity_staff"><ellipse cx="133.7699" cy="161.35" fill="#F1F1F1" rx="4.5" ry="4.5" style="stroke:#181818;stroke-width:0.5;"/><path d="M121.2699,167.85 L121.2699,172.85 L130.7699,172.85 L130.7699,175.1074 L121.2699,184.6074 L125.5125,188.85 L133.7699,180.5926 L142.0272,188.85 L146.2699,184.6074 L136.7699,175.1074 L136.7699,172.85 L146.2699,172.85 L146.2699,167.85 L121.2699,167.85" fill="#F1F1F1" style="stroke:#181818;stroke-width:0.5;"/><text fill="#000000" font-family="sans-serif" font-size="14" lengthAdjust="spacing" textLength="31.2197" x="118.16" y="202.3451">staff</text></g><!--entity manager--><g class="entity" data-entity="manager" data-source-line="5" data-uid="ent0005" id="entity_manager"><ellipse cx="133.7724" cy="368.35" fill="#F1F1F1" rx="4.5" ry="4.5" style="stroke:#181818;stroke-width:0.5;"/><path d="M121.2724,374.85 L121.2724,379.85 L130.7724,379.85 L130.7724,382.1074 L121.2724,391.6074 L125.515,395.85 L133.7724,387.5926 L142.0298,395.85 L146.2724,391.6074 L136.7724,382.1074 L136.7724,379.85 L146.2724,379.85 L146.2724,374.85 L121.2724,374.85" fill="#F1F1F1" style="stroke:#181818;stroke-width:0.5;"/><text fill="#000000" font-family="sans-serif" font-size="14" lengthAdjust="spacing" textLength="62.9248" x="102.31" y="409.3451">manager</text></g><!--entity technician--><g class="entity" data-entity="technician" data-source-line="6" data-uid="ent0007" id="entity_technician"><ellipse cx="133.7773" cy="738.35" fill="#F1F1F1" rx="4.5" ry="4.5" style="stroke:#181818;stroke-width:0.5;"/><path d="M121.2773,744.85 L121.2773,749.85 L130.7773,749.85 L130.7773,752.1074 L121.2773,761.6074 L125.5199,765.85 L133.7773,757.5926 L142.0347,765.85 L146.2773,761.6074 L136.7773,752.1074 L136.7773,749.85 L146.2773,749.85 L146.2773,744.85 L121.2773,744.85" fill="#F1F1F1" style="stroke:#181818;stroke-width:0.5;"/><text fill="#000000" font-family="sans-serif" font-size="14" lengthAdjust="spacing" textLength="72.4746" x="97.54" y="779.3451">technician</text></g><!--entity authentication authority--><g class="entity" data-entity="authentication authority" data-source-line="64" data-uid="ent0057" id="entity_authentication authority"><ellipse cx="1064.0817" cy="1258.35" fill="#F1F1F1" rx="4.5" ry="4.5" style="stroke:#181818;stroke-width:0.5;"/><path d="M1051.5817,1264.85 L1051.5817,1269.85 L1061.0817,1269.85 L1061.0817,1272.1074 L1051.5817,1281.6074 L1055.8244,1285.85 L1064.0817,1277.5926 L1072.3391,1285.85 L1076.5817,1281.6074 L1067.0817,1272.1074 L1067.0817,1269.85 L1076.5817,1269.85 L1076.5817,1264.85 L1051.5817,1264.85" fill="#F1F1F1" style="stroke:#181818;stroke-width:0.5;"/><text fill="#000000" font-family="sans-serif" font-size="14" lengthAdjust="spacing" textLength="170.0234" x="979.07" y="1299.3451">authentication authority</text></g><!--reverse link user to staff--><g class="link" data-entity-1="user" data-entity-2="staff" data-source-line="4" data-uid="lnk4" id="link_user_staff"><path d="M30.0441,715.4529 C46.3141,626.3729 97.54,346 97.54,346 C97.54,346 117.56,252.22 127.42,206.06" fill="none" id="user-backto-staff" style="stroke:#181818;stroke-width:1;"/><polygon fill="none" points="26.81,733.16,35.9465,716.531,24.1417,714.3749,26.81,733.16" style="stroke:#181818;stroke-width:1;"/></g><!--reverse link user to manager--><g class="link" data-entity-1="user" data-entity-2="manager" data-source-line="5" data-uid="lnk6" id="link_user_manager"><path d="M34.9317,715.613 C55.1417,647.953 105.35,479.83 125.4,412.69" fill="none" id="user-backto-manager" style="stroke:#181818;stroke-width:1;"/><polygon fill="none" points="29.78,732.86,40.6807,717.3302,29.1827,713.8957,29.78,732.86" style="stroke:#181818;stroke-width:1;"/></g><!--reverse link user to technician--><g class="link" data-entity-1="user" data-entity-2="technician" data-source-line="6" data-uid="lnk8" id="link_user_technician"><path d="M54.71,758 C70.04,758 76.84,758 97.4,758" fill="none" id="user-backto-technician" style="stroke:#181818;stroke-width:1;"/><polygon fill="none" points="36.71,758,54.71,764,54.71,752,36.71,758" style="stroke:#181818;stroke-width:1;"/></g><!--link UC1 to UC2--><g class="link" data-entity-1="UC1" data-entity-2="UC2" data-source-line="42" data-uid="lnk33" id="link_UC1_UC2"><path d="M449.43,1162.51 C513.1,1164.21 610.9921,1166.8204 682.7521,1168.7304" fill="none" id="UC1-to-UC2" style="stroke:#181818;stroke-width:1;stroke-dasharray:7,7;"/><polygon fill="#181818" points="688.75,1168.89,679.8596,1164.652,683.7518,1168.757,679.6468,1172.6491,688.75,1168.89" style="stroke:#181818;stroke-width:1;"/><text fill="#000000" font-family="sans-serif" font-size="13" lengthAdjust="spacing" textLength="47.0996" x="560.17" y="1161.4669">include</text></g><!--reverse link UC8 to manager_and_technician--><g class="link" data-entity-1="UC8" data-entity-2="manager_and_technician" data-source-line="43" data-uid="lnk35" id="link_UC8_manager_and_technician"><path d="M463.5248,330.1863 C497.6248,340.8863 526.67,350 526.67,350 C526.67,350 556.67,373 556.67,373 C556.67,373 623.53,424 623.53,424 C623.53,424 658.5475,438.2925 694.1125,452.8088 C696.3353,453.716 698.5603,454.6242 700.7789,455.5297 C701.0563,455.6429 701.3335,455.7561 701.6106,455.8692" fill="none" id="UC8-backto-manager_and_technician" style="stroke:#181818;stroke-width:1;stroke-dasharray:7,7;"/><polygon fill="#181818" points="457.8,328.39,465.1896,334.901,462.5707,329.887,467.5847,327.268,457.8,328.39" style="stroke:#181818;stroke-width:1;"/><text fill="#000000" font-family="sans-serif" font-size="13" lengthAdjust="spacing" textLength="52.0508" x="557.67" y="369.0669">extends</text></g><!--reverse link UC14 to manager_and_technician--><g class="link" data-entity-1="UC14" data-entity-2="manager_and_technician" data-source-line="44" data-uid="lnk37" id="link_UC14_manager_and_technician"><path d="M422.8765,724.6727 C483.2065,657.7227 623.53,502 623.53,502 C623.53,502 625.7186,501.7123 629.5572,501.2078 C631.4765,500.9556 633.8083,500.6491 636.4853,500.2973 C637.1545,500.2093 637.8453,500.1185 638.5567,500.025 C638.7345,500.0017 638.9136,499.9781 639.094,499.9544" fill="none" id="UC14-backto-manager_and_technician" style="stroke:#181818;stroke-width:1;stroke-dasharray:7,7;"/><polygon fill="#181818" points="418.86,729.13,427.8563,725.1218,422.2071,725.4156,421.9133,719.7664,418.86,729.13" style="stroke:#181818;stroke-width:1;"/><text fill="#000000" font-family="sans-serif" font-size="13" lengthAdjust="spacing" textLength="52.0508" x="557.67" y="515.6369">extends</text></g><!--reverse link UC8 to UC9--><g class="link" data-entity-1="UC8" data-entity-2="UC9" data-source-line="45" data-uid="lnk39" id="link_UC8_UC9"><path d="M483.4126,325.3802 C541.0226,336.4302 611.49,349.95 671.47,361.46" fill="none" id="UC8-backto-UC9" style="stroke:#181818;stroke-width:1;stroke-dasharray:7,7;"/><polygon fill="#181818" points="477.52,324.25,485.6054,329.8737,482.4305,325.1919,487.1124,322.017,477.52,324.25" style="stroke:#181818;stroke-width:1;"/><text fill="#000000" font-family="sans-serif" font-size="13" lengthAdjust="spacing" textLength="52.0508" x="557.67" y="335.7569">extends</text></g><!--reverse link UC4 to UC5--><g class="link" data-entity-1="UC4" data-entity-2="UC5" data-source-line="46" data-uid="lnk41" id="link_UC4_UC5"><path d="M506.12,963 C552.69,963 601.4,963 649.2,963" fill="none" id="UC4-backto-UC5" style="stroke:#181818;stroke-width:1;stroke-dasharray:7,7;"/><polygon fill="#181818" points="500.12,963,509.12,967,505.12,963,509.12,959,500.12,963" style="stroke:#181818;stroke-width:1;"/><text fill="#000000" font-family="sans-serif" font-size="13" lengthAdjust="spacing" textLength="52.0508" x="557.67" y="959.0669">extends</text></g><!--reverse link UC4 to UC3--><g class="link" data-entity-1="UC4" data-entity-2="UC3" data-source-line="47" data-uid="lnk43" id="link_UC4_UC3"><path d="M475.085,981.4111 C541.625,996.3111 631.51,1016.43 696.57,1030.99" fill="none" id="UC4-backto-UC3" style="stroke:#181818;stroke-width:1;stroke-dasharray:7,7;"/><polygon fill="#181818" points="469.23,980.1,477.1384,985.97,474.1092,981.1926,478.8866,978.1633,469.23,980.1" style="stroke:#181818;stroke-width:1;"/><text fill="#000000" font-family="sans-serif" font-size="13" lengthAdjust="spacing" textLength="47.0996" x="560.17" y="996.0369">include</text></g><!--reverse link UC14 to UC15--><g class="link" data-entity-1="UC14" data-entity-2="UC15" data-source-line="48" data-uid="lnk45" id="link_UC14_UC15"><path d="M532.4586,755.0226 C581.4186,753.9826 629.73,752.95 674.45,752" fill="none" id="UC14-backto-UC15" style="stroke:#181818;stroke-width:1;stroke-dasharray:7,7;"/><polygon fill="#181818" points="526.46,755.15,535.5429,758.958,531.4589,755.0438,535.373,750.9598,526.46,755.15" style="stroke:#181818;stroke-width:1;"/><text fill="#000000" font-family="sans-serif" font-size="13" lengthAdjust="spacing" textLength="52.0508" x="557.67" y="749.5869">extends</text></g><!--reverse link UC14 to UC16--><g class="link" data-entity-1="UC14" data-entity-2="UC16" data-source-line="49" data-uid="lnk47" id="link_UC14_UC16"><path d="M497.8007,779.2607 C554.1507,790.6707 618.44,803.69 673.95,814.94" fill="none" id="UC14-backto-UC16" style="stroke:#181818;stroke-width:1;stroke-dasharray:7,7;"/><polygon fill="#181818" points="491.92,778.07,499.9472,783.7766,496.8205,779.0623,501.5348,775.9357,491.92,778.07" style="stroke:#181818;stroke-width:1;"/><text fill="#000000" font-family="sans-serif" font-size="13" lengthAdjust="spacing" textLength="52.0508" x="557.67" y="787.5169">extends</text></g><!--reverse link UC8 to UC17--><g class="link" data-entity-1="UC8" data-entity-2="UC17" data-source-line="50" data-uid="lnk49" id="link_UC8_UC17"><path d="M509.1379,304.8999 C568.7079,303.3099 634.89,301.55 688.85,300.11" fill="none" id="UC8-backto-UC17" style="stroke:#181818;stroke-width:1;stroke-dasharray:7,7;"/><polygon fill="#181818" points="503.14,305.06,512.2435,308.8184,508.1382,304.9266,512.0301,300.8213,503.14,305.06" style="stroke:#181818;stroke-width:1;"/><text fill="#000000" font-family="sans-serif" font-size="13" lengthAdjust="spacing" textLength="52.0508" x="557.67" y="298.4669">extends</text></g><!--link user to UC1--><g class="link" data-entity-1="user" data-entity-2="UC1" data-source-line="53" data-uid="lnk50" id="link_user_UC1"><path d="M36.46,782.92 C80.04,859.47 209.01,1086 209.01,1086 C209.01,1086 303.0932,1124.8125 354.8632,1146.1625" fill="none" id="user-to-UC1" style="stroke:#181818;stroke-width:1;"/><polygon fill="#181818" points="360.41,1148.45,353.6148,1141.3208,355.7876,1146.5437,350.5648,1148.7166,360.41,1148.45" style="stroke:#181818;stroke-width:1;"/></g><!--link user to UC4--><g class="link" data-entity-1="user" data-entity-2="UC4" data-source-line="54" data-uid="lnk51" id="link_user_UC4"><path d="M36.92,767.42 C80.94,795.71 209.01,878 209.01,878 C209.01,878 284.7043,913.3897 338.5843,938.5697" fill="none" id="user-to-UC4" style="stroke:#181818;stroke-width:1;"/><polygon fill="#181818" points="344.02,941.11,337.56,933.6758,339.4902,938.9931,334.1729,940.9234,344.02,941.11" style="stroke:#181818;stroke-width:1;"/></g><!--link staff to UC6--><g class="link" data-entity-1="staff" data-entity-2="UC6" data-source-line="56" data-uid="lnk52" id="link_staff_UC6"><path d="M149.8,172.5 C171.49,160.23 209.01,139 209.01,139 C209.01,139 271.0843,126.7156 323.9043,116.2556" fill="none" id="staff-to-UC6" style="stroke:#181818;stroke-width:1;"/><polygon fill="#181818" points="329.79,115.09,320.1844,112.9145,324.8852,116.0613,321.7385,120.7621,329.79,115.09" style="stroke:#181818;stroke-width:1;"/></g><!--link staff to UC7--><g class="link" data-entity-1="staff" data-entity-2="UC7" data-source-line="57" data-uid="lnk53" id="link_staff_UC7"><path d="M149.65,181 C175.43,181 224.55,181 275.6,181" fill="none" id="staff-to-UC7" style="stroke:#181818;stroke-width:1;"/><polygon fill="#181818" points="281.6,181,272.6,177,276.6,181,272.6,185,281.6,181" style="stroke:#181818;stroke-width:1;"/></g><!--link manager to UC8--><g class="link" data-entity-1="manager" data-entity-2="UC8" data-source-line="59" data-uid="lnk54" id="link_manager_UC8"><path d="M165.4,372.33 C185.85,361.86 209.01,350 209.01,350 C209.01,350 257.9338,338.6998 307.3538,327.2898" fill="none" id="manager-to-UC8" style="stroke:#181818;stroke-width:1;"/><polygon fill="#181818" points="313.2,325.94,303.5308,324.0672,308.3282,327.0648,305.3305,331.8621,313.2,325.94" style="stroke:#181818;stroke-width:1;"/></g><!--link manager to UC13--><g class="link" data-entity-1="manager" data-entity-2="UC13" data-source-line="60" data-uid="lnk55" id="link_manager_UC13"><path d="M165.66,388 C199.58,388 249.57,388 297.23,388" fill="none" id="manager-to-UC13" style="stroke:#181818;stroke-width:1;"/><polygon fill="#181818" points="303.23,388,294.23,384,298.23,388,294.23,392,303.23,388" style="stroke:#181818;stroke-width:1;"/></g><!--link technician to UC14--><g class="link" data-entity-1="technician" data-entity-2="UC14" data-source-line="62" data-uid="lnk56" id="link_technician_UC14"><path d="M170.38,758 C193.33,758 218.76,758 250.7,758" fill="none" id="technician-to-UC14" style="stroke:#181818;stroke-width:1;"/><polygon fill="#181818" points="256.7,758,247.7,754,251.7,758,247.7,762,256.7,758" style="stroke:#181818;stroke-width:1;"/></g><!--link UC2 to authentication authority--><g class="link" data-entity-1="UC2" data-entity-2="authentication authority" data-source-line="64" data-uid="lnk58" id="link_UC2_authentication authority"><path d="M813.32,1186.79 C860.99,1204.2 932.7142,1230.3913 988.7242,1250.8513" fill="none" id="UC2-to-authentication authority" style="stroke:#181818;stroke-width:1;"/><polygon fill="#181818" points="994.36,1252.91,987.2788,1246.0648,989.6635,1251.1944,984.5339,1253.5791,994.36,1252.91" style="stroke:#181818;stroke-width:1;"/></g><!--SRC=[XLJBZjim3BphAuYSsaE2zUQvGT5BBrkWFHKzBrIRTeGeac7HcxgFVo-bs8aK6rlVJ0s7Gt8aTrIcbeqyWSp9Dj-eqmZFLcjx5kvwzaKPfAv6gAtkDFy8ZIK1MMXKTI0eL8CvAMj4wx213t_cSt0aopBwFqaZAsoY265-C2fNqWZXywMfkFZisRfQaTJmsUIgG4FmzP8w-os0lv8L8HXBgbIvz5NTvS1_xxv_Mi4SR8qcWG0ridiFqW43OlIIqLmSrMlAsMENCNODletcc38pha5Pz0dhaF0tKgfjfKoYC6EU4ErpilZmaGzbImTkt5V07lFOyqR4OS8lCX-FOCCSEOiY12Ov8lKacnYqPT2hSgtKwXV2gGFLpzlrwEsuPB_4oQAxXA_IzWVly59-ODp5-2VVg7EgCb0W-unEVjVigKJoKp8uhpdNrjtrbMqJr38emJFFiL3aHptWbkEMRYwSx2fR9Mt5IfFMiiHLsURMtAt0gBaiMKZc_ULmOFRxfVRAltvZ6wPukLL9vJymPs7FHbjP3CHQkQk2XmJjdLagJNn5xzfBF9fva-Rs5ERWBrVIr61LR_J5ugCtxvwzfTi2nRHaMBHr0Exs-9FG5Ev_m6nrHNedZVFzRHsYCNPvYy8U1bbX-9FSlCdf-3Og2aESrnFUjxaV-JmatGTMGeIB6uKseyXM30E8Whk963jQHEE93hXEU4pwo2nwKyAhnR-sKTJDn3y0]--></g></svg>