<svg xmlns="http://www.w3.org/2000/svg" xmlns:xlink="http://www.w3.org/1999/xlink" contentStyleType="text/css" data-diagram-type="DESCRIPTION" height="532px" preserveAspectRatio="none" style="width:998px;height:532px;background:#FFFFFF;" version="1.1" viewBox="0 0 998 532" width="998px" zoomAndPan="magnify"><defs/><g><!--cluster Hospital Incident Manager--><g class="cluster" data-entity="Hospital Incident Manager" data-source-line="8" data-uid="ent0009" id="cluster_Hospital Incident Manager"><rect fill="none" height="519" rx="2.5" ry="2.5" style="stroke:#181818;stroke-width:1;" width="568.89" x="212.62" y="7"/><text fill="#000000" font-family="sans-serif" font-size="14" font-weight="bold" lengthAdjust="spacing" textLength="189.6494" x="402.2403" y="22.5352">Hospital Incident Manager</text></g><!--entity login--><g class="entity" data-entity="login" data-source-line="9" data-uid="ent0010" id="entity_login"><ellipse cx="335.8004" cy="494.999" fill="#F1F1F1" rx="27.1204" ry="14.659" style="stroke:#181818;stroke-width:0.5;"/><text fill="#000000" font-family="sans-serif" font-size="14" lengthAdjust="spacing" textLength="34.1113" x="318.7447" y="499.7431">login</text></g><!--entity authenticate--><g class="entity" data-entity="authenticate" data-source-line="9" data-uid="ent0011" id="entity_authenticate"><ellipse cx="660.238" cy="493.0036" fill="#F1F1F1" rx="61.868" ry="14.7736" style="stroke:#181818;stroke-width:0.5;"/><text fill="#000000" font-family="sans-serif" font-size="14" lengthAdjust="spacing" textLength="84.0547" x="618.2107" y="497.7477">authenticate</text></g><!--entity create ticket--><g class="entity" data-entity="create ticket" data-source-line="10" data-uid="ent0013" id="entity_create ticket"><ellipse cx="335.805" cy="56.999" fill="#F1F1F1" rx="61.695" ry="14.739" style="stroke:#181818;stroke-width:0.5;"/><text fill="#000000" font-family="sans-serif" font-size="14" lengthAdjust="spacing" textLength="83.5693" x="294.0203" y="61.7431">create ticket</text></g><!--entity visualize global tickets--><g class="entity" data-entity="visualize global tickets" data-source-line="11" data-uid="ent0014" id="entity_visualize global tickets"><ellipse cx="335.7971" cy="285.0034" fill="#F1F1F1" rx="90.5171" ry="20.5034" style="stroke:#181818;stroke-width:0.5;"/><text fill="#000000" font-family="sans-serif" font-size="14" lengthAdjust="spacing" textLength="154.4033" x="258.5954" y="289.7476">visualize global tickets</text></g><!--entity visualize department tickets--><g class="entity" data-entity="visualize department tickets" data-source-line="12" data-uid="ent0015" id="entity_visualize department tickets"><ellipse cx="335.7977" cy="205.9955" fill="#F1F1F1" rx="107.1777" ry="23.8355" style="stroke:#181818;stroke-width:0.5;"/><text fill="#000000" font-family="sans-serif" font-size="14" lengthAdjust="spacing" textLength="191.3516" x="240.122" y="210.7397">visualize department tickets</text></g><!--entity filter tickets--><g class="entity" data-entity="filter tickets" data-source-line="13" data-uid="ent0016" id="entity_filter tickets"><ellipse cx="660.239" cy="87.999" fill="#F1F1F1" rx="60.449" ry="14.659" style="stroke:#181818;stroke-width:0.5;"/><text fill="#000000" font-family="sans-serif" font-size="14" lengthAdjust="spacing" textLength="81.2451" x="619.6164" y="92.7431">filter tickets</text></g><!--entity download ticket list--><g class="entity" data-entity="download ticket list" data-source-line="15" data-uid="ent0021" id="entity_download ticket list"><ellipse cx="660.2413" cy="168.0043" fill="#F1F1F1" rx="81.2713" ry="18.6543" style="stroke:#181818;stroke-width:0.5;"/><text fill="#000000" font-family="sans-serif" font-size="14" lengthAdjust="spacing" textLength="133.0752" x="593.7037" y="172.7484">download ticket list</text></g><!--entity visualize my incidents--><g class="entity" data-entity="visualize my incidents" data-source-line="17" data-uid="ent0026" id="entity_visualize my incidents"><ellipse cx="335.8029" cy="127.0046" fill="#F1F1F1" rx="88.4229" ry="20.0846" style="stroke:#181818;stroke-width:0.5;"/><text fill="#000000" font-family="sans-serif" font-size="14" lengthAdjust="spacing" textLength="149.6387" x="260.9836" y="131.7487">visualize my incidents</text></g><!--entity assign department to ticket--><g class="entity" data-entity="assign department to ticket" data-source-line="18" data-uid="ent0027" id="entity_assign department to ticket"><ellipse cx="660.2363" cy="269.0033" fill="#F1F1F1" rx="105.2663" ry="23.4533" style="stroke:#181818;stroke-width:0.5;"/><text fill="#000000" font-family="sans-serif" font-size="14" lengthAdjust="spacing" textLength="187.1816" x="566.6454" y="273.7474">assign department to ticket</text></g><!--entity mark notification as read--><g class="entity" data-entity="mark notification as read" data-source-line="19" data-uid="ent0030" id="entity_mark notification as read"><ellipse cx="660.239" cy="420.9998" fill="#F1F1F1" rx="97.549" ry="21.9098" style="stroke:#181818;stroke-width:0.5;"/><text fill="#000000" font-family="sans-serif" font-size="14" lengthAdjust="spacing" textLength="170.1807" x="575.1487" y="425.7439">mark notification as read</text></g><!--entity open notification tray--><g class="entity" data-entity="open notification tray" data-source-line="19" data-uid="ent0031" id="entity_open notification tray"><ellipse cx="335.7979" cy="425.9976" fill="#F1F1F1" rx="86.8379" ry="19.7676" style="stroke:#181818;stroke-width:0.5;"/><text fill="#000000" font-family="sans-serif" font-size="14" lengthAdjust="spacing" textLength="146.0088" x="262.7935" y="430.7417">open notification tray</text></g><!--entity receive notification--><g class="entity" data-entity="receive notification" data-source-line="20" data-uid="ent0034" id="entity_receive notification"><ellipse cx="660.2366" cy="346.0013" fill="#F1F1F1" rx="79.6566" ry="18.3313" style="stroke:#181818;stroke-width:0.5;"/><text fill="#000000" font-family="sans-serif" font-size="14" lengthAdjust="spacing" textLength="129.2607" x="595.6062" y="350.7455">receive notification</text></g><!--entity view audit log--><g class="entity" data-entity="view audit log" data-source-line="21" data-uid="ent0037" id="entity_view audit log"><ellipse cx="335.8023" cy="356.0005" fill="#F1F1F1" rx="65.7523" ry="15.5505" style="stroke:#181818;stroke-width:0.5;"/><text fill="#000000" font-family="sans-serif" font-size="14" lengthAdjust="spacing" textLength="94.6299" x="288.4873" y="360.7446">view audit log</text></g><!--entity user--><g class="entity" data-entity="user" data-source-line="4" data-uid="ent0002" id="entity_user"><ellipse cx="20.6768" cy="302.26" fill="#F1F1F1" rx="4.5" ry="4.5" style="stroke:#181818;stroke-width:0.5;"/><path d="M8.1768,308.76 L8.1768,313.76 L17.6768,313.76 L17.6768,316.0174 L8.1768,325.5174 L12.4194,329.76 L20.6768,321.5026 L28.9341,329.76 L33.1768,325.5174 L23.6768,316.0174 L23.6768,313.76 L33.1768,313.76 L33.1768,308.76 L8.1768,308.76" fill="#F1F1F1" style="stroke:#181818;stroke-width:0.5;"/><text fill="#000000" font-family="sans-serif" font-size="14" lengthAdjust="spacing" textLength="29.3535" x="6" y="343.7952">user</text></g><!--entity staff--><g class="entity" data-entity="staff" data-source-line="4" data-uid="ent0003" id="entity_staff"><ellipse cx="130.9897" cy="107.26" fill="#F1F1F1" rx="4.5" ry="4.5" style="stroke:#181818;stroke-width:0.5;"/><path d="M118.4897,113.76 L118.4897,118.76 L127.9897,118.76 L127.9897,121.0174 L118.4897,130.5174 L122.7323,134.76 L130.9897,126.5026 L139.2471,134.76 L143.4897,130.5174 L133.9897,121.0174 L133.9897,118.76 L143.4897,118.76 L143.4897,113.76 L118.4897,113.76" fill="#F1F1F1" style="stroke:#181818;stroke-width:0.5;"/><text fill="#000000" font-family="sans-serif" font-size="14" lengthAdjust="spacing" textLength="30.3994" x="115.79" y="148.7952">staff</text></g><!--entity manager--><g class="entity" data-entity="manager" data-source-line="5" data-uid="ent0005" id="entity_manager"><ellipse cx="130.9897" cy="302.26" fill="#F1F1F1" rx="4.5" ry="4.5" style="stroke:#181818;stroke-width:0.5;"/><path d="M118.4897,308.76 L118.4897,313.76 L127.9897,313.76 L127.9897,316.0174 L118.4897,325.5174 L122.7324,329.76 L130.9897,321.5026 L139.2471,329.76 L143.4897,325.5174 L133.9897,316.0174 L133.9897,313.76 L143.4897,313.76 L143.4897,308.76 L118.4897,308.76" fill="#F1F1F1" style="stroke:#181818;stroke-width:0.5;"/><text fill="#000000" font-family="sans-serif" font-size="14" lengthAdjust="spacing" textLength="59.4795" x="101.25" y="343.7952">manager</text></g><!--entity technician--><g class="entity" data-entity="technician" data-source-line="6" data-uid="ent0007" id="entity_technician"><ellipse cx="130.9843" cy="200.26" fill="#F1F1F1" rx="4.5" ry="4.5" style="stroke:#181818;stroke-width:0.5;"/><path d="M118.4843,206.76 L118.4843,211.76 L127.9843,211.76 L127.9843,214.0174 L118.4843,223.5174 L122.7269,227.76 L130.9843,219.5026 L139.2416,227.76 L143.4843,223.5174 L133.9843,214.0174 L133.9843,211.76 L143.4843,211.76 L143.4843,206.76 L118.4843,206.76" fill="#F1F1F1" style="stroke:#181818;stroke-width:0.5;"/><text fill="#000000" font-family="sans-serif" font-size="14" lengthAdjust="spacing" textLength="69.2686" x="96.35" y="241.7952">technician</text></g><!--entity authentication authority--><g class="entity" data-entity="authentication authority" data-source-line="35" data-uid="ent0045" id="entity_authentication authority"><ellipse cx="910.155" cy="473.26" fill="#F1F1F1" rx="4.5" ry="4.5" style="stroke:#181818;stroke-width:0.5;"/><path d="M897.655,479.76 L897.655,484.76 L907.155,484.76 L907.155,487.0174 L897.655,496.5174 L901.8977,500.76 L910.155,492.5026 L918.4124,500.76 L922.655,496.5174 L913.155,487.0174 L913.155,484.76 L922.655,484.76 L922.655,479.76 L897.655,479.76" fill="#F1F1F1" style="stroke:#181818;stroke-width:0.5;"/><text fill="#000000" font-family="sans-serif" font-size="14" lengthAdjust="spacing" textLength="163.29" x="828.51" y="514.7952">authentication authority</text></g><!--reverse link user to staff--><g class="link" data-entity-1="user" data-entity-2="staff" data-source-line="4" data-uid="lnk4" id="link_user_staff"><path d="M41.6002,280.6766 C55.7602,251.5966 72.48,218.68 96.35,178 C102.26,167.94 109.3,157.11 115.41,148.03" fill="none" id="user-backto-staff" style="stroke:#181818;stroke-width:1;"/><polygon fill="none" points="33.72,296.86,46.9947,283.3033,36.2058,278.0499,33.72,296.86" style="stroke:#181818;stroke-width:1;"/></g><!--reverse link user to manager--><g class="link" data-entity-1="user" data-entity-2="manager" data-source-line="5" data-uid="lnk6" id="link_user_manager"><path d="M53.84,322 C70.35,322 80.08,322 101.18,322" fill="none" id="user-backto-manager" style="stroke:#181818;stroke-width:1;"/><polygon fill="none" points="35.84,322,53.84,328,53.84,316,35.84,322" style="stroke:#181818;stroke-width:1;"/></g><!--reverse link user to technician--><g class="link" data-entity-1="user" data-entity-2="technician" data-source-line="6" data-uid="lnk8" id="link_user_technician"><path d="M48.9381,296.3234 C66.0181,280.2234 82.02,265.18 103.35,245.09" fill="none" id="user-backto-technician" style="stroke:#181818;stroke-width:1;"/><polygon fill="none" points="35.84,308.67,53.0537,300.6894,44.8226,291.9573,35.84,308.67" style="stroke:#181818;stroke-width:1;"/></g><!--link login to authenticate--><g class="link" data-entity-1="login" data-entity-2="authenticate" data-source-line="9" data-uid="lnk12" id="link_login_authenticate"><path d="M363.19,494.84 C414.18,494.52 521.4301,493.8573 592.1501,493.4173" fill="none" id="login-to-authenticate" style="stroke:#181818;stroke-width:1;stroke-dasharray:7,7;"/><polygon fill="#181818" points="598.15,493.38,589.1253,489.4361,593.1501,493.4111,589.1751,497.4359,598.15,493.38" style="stroke:#181818;stroke-width:1;"/><text fill="#000000" font-family="sans-serif" font-size="13" lengthAdjust="spacing" textLength="45.7349" x="476.48" y="490.4484">include</text></g><!--reverse link visualize global tickets to filter tickets--><g class="link" data-entity-1="visualize global tickets" data-entity-2="filter tickets" data-source-line="13" data-uid="lnk18" id="link_visualize global tickets_filter tickets"><path d="M395.9834,266.2485 C413.1034,260.2585 426.28,254.97 442.98,247 C444.18,246.43 524.09,198 524.98,197 C546.14,173.24 532.11,154.12 554.98,132 C571.78,115.74 595.49,105.09 616.06,98.35" fill="none" id="visualize global tickets-backto-filter tickets" style="stroke:#181818;stroke-width:1;stroke-dasharray:7,7;"/><polygon fill="#181818" points="390.32,268.23,400.136,269.0333,395.0395,266.5787,397.494,261.4822,390.32,268.23" style="stroke:#181818;stroke-width:1;"/><text fill="#000000" font-family="sans-serif" font-size="13" lengthAdjust="spacing" textLength="50.1973" x="473.98" y="193.5684">extends</text></g><!--reverse link visualize department tickets to filter tickets--><g class="link" data-entity-1="visualize department tickets" data-entity-2="filter tickets" data-source-line="14" data-uid="lnk20" id="link_visualize department tickets_filter tickets"><path d="M402.722,183.9551 C418.072,177.9851 428.67,173.03 442.98,165 C457.63,156.78 457.98,149.58 472.98,142 C517.3,119.59 572.38,105.08 611.11,96.8" fill="none" id="visualize department tickets-backto-filter tickets" style="stroke:#181818;stroke-width:1;stroke-dasharray:7,7;"/><polygon fill="#181818" points="397.13,186.13,406.9678,186.5957,401.79,184.3176,404.068,179.1397,397.13,186.13" style="stroke:#181818;stroke-width:1;"/><text fill="#000000" font-family="sans-serif" font-size="13" lengthAdjust="spacing" textLength="50.1973" x="473.98" y="118.0184">extends</text></g><!--reverse link visualize global tickets to download ticket list--><g class="link" data-entity-1="visualize global tickets" data-entity-2="download ticket list" data-source-line="15" data-uid="lnk23" id="link_visualize global tickets_download ticket list"><path d="M426.6033,276.6878 C460.0533,271.6578 492.34,264.12 524.98,250 C540.15,243.43 541.12,237.03 554.98,228 C578.6,212.61 606.3,196.76 627.22,185.23" fill="none" id="visualize global tickets-backto-download ticket list" style="stroke:#181818;stroke-width:1;stroke-dasharray:7,7;"/><polygon fill="#181818" points="420.67,277.58,430.1647,280.1972,425.6144,276.8365,428.9751,272.2862,420.67,277.58" style="stroke:#181818;stroke-width:1;"/><text fill="#000000" font-family="sans-serif" font-size="13" lengthAdjust="spacing" textLength="50.1973" x="473.98" y="246.5684">extends</text></g><!--reverse link visualize department tickets to download ticket list--><g class="link" data-entity-1="visualize department tickets" data-entity-2="download ticket list" data-source-line="16" data-uid="lnk25" id="link_visualize department tickets_download ticket list"><path d="M407.1456,185.2353 C429.6056,179.3753 449.31,175.17 472.98,172 C507.6,167.37 546.16,165.93 579.18,165.82" fill="none" id="visualize department tickets-backto-download ticket list" style="stroke:#181818;stroke-width:1;stroke-dasharray:7,7;"/><polygon fill="#181818" points="401.34,186.75,411.0583,188.3483,406.178,185.4877,409.0386,180.6075,401.34,186.75" style="stroke:#181818;stroke-width:1;"/><text fill="#000000" font-family="sans-serif" font-size="13" lengthAdjust="spacing" textLength="50.1973" x="473.98" y="163.9384">extends</text></g><!--reverse link visualize global tickets to assign department to ticket--><g class="link" data-entity-1="visualize global tickets" data-entity-2="assign department to ticket" data-source-line="18" data-uid="lnk29" id="link_visualize global tickets_assign department to ticket"><path d="M404.2225,301.2305 C441.0225,308.2905 482.79,312.86 524.98,307 C550.77,303.42 578.58,296.15 602.16,288.91" fill="none" id="visualize global tickets-backto-assign department to ticket" style="stroke:#181818;stroke-width:1;stroke-dasharray:7,7;"/><polygon fill="#181818" points="398.33,300.1,406.4152,305.7241,403.2405,301.0421,407.9225,297.8673,398.33,300.1" style="stroke:#181818;stroke-width:1;"/><text fill="#000000" font-family="sans-serif" font-size="13" lengthAdjust="spacing" textLength="50.1973" x="473.98" y="303.5684">extends</text></g><!--reverse link open notification tray to mark notification as read--><g class="link" data-entity-1="open notification tray" data-entity-2="mark notification as read" data-source-line="19" data-uid="lnk33" id="link_open notification tray_mark notification as read"><path d="M428.7893,424.5767 C471.8793,423.9067 518.22,423.19 562.69,422.5" fill="none" id="open notification tray-backto-mark notification as read" style="stroke:#181818;stroke-width:1;stroke-dasharray:7,7;"/><polygon fill="#181818" points="422.79,424.67,431.8511,428.5296,427.7894,424.5923,431.7267,420.5306,422.79,424.67" style="stroke:#181818;stroke-width:1;"/><text fill="#000000" font-family="sans-serif" font-size="13" lengthAdjust="spacing" textLength="50.1973" x="473.98" y="419.7684">extends</text></g><!--reverse link open notification tray to receive notification--><g class="link" data-entity-1="open notification tray" data-entity-2="receive notification" data-source-line="20" data-uid="lnk36" id="link_open notification tray_receive notification"><path d="M401.7633,409.8847 C461.3933,395.0847 546.86,373.88 604.77,359.51" fill="none" id="open notification tray-backto-receive notification" style="stroke:#181818;stroke-width:1;stroke-dasharray:7,7;"/><polygon fill="#181818" points="395.94,411.33,405.6385,413.0442,400.7928,410.1256,403.7114,405.2798,395.94,411.33" style="stroke:#181818;stroke-width:1;"/><text fill="#000000" font-family="sans-serif" font-size="13" lengthAdjust="spacing" textLength="45.7349" x="476.48" y="377.7784">include</text></g><!--link user to login--><g class="link" data-entity-1="user" data-entity-2="login" data-source-line="24" data-uid="lnk38" id="link_user_login"><path d="M35.69,337.52 C50.1,353.02 73.57,377.04 96.35,395 C140.98,430.17 152.31,440.82 204.62,463 C239.33,477.71 276.3248,485.615 303.1648,490.175" fill="none" id="user-to-login" style="stroke:#181818;stroke-width:1;"/><polygon fill="#181818" points="309.08,491.18,300.8771,485.729,304.1506,490.3425,299.5372,493.616,309.08,491.18" style="stroke:#181818;stroke-width:1;"/></g><!--link user to open notification tray--><g class="link" data-entity-1="user" data-entity-2="open notification tray" data-source-line="25" data-uid="lnk39" id="link_user_open notification tray"><path d="M35.72,331.36 C50.33,340.74 74.14,355.04 96.35,364 C152.29,386.56 213.0699,401.8383 261.6699,412.1183" fill="none" id="user-to-open notification tray" style="stroke:#181818;stroke-width:1;"/><polygon fill="#181818" points="267.54,413.36,259.5626,407.5841,262.6482,412.3253,257.907,415.4109,267.54,413.36" style="stroke:#181818;stroke-width:1;"/></g><!--link staff to create ticket--><g class="link" data-entity-1="staff" data-entity-2="create ticket" data-source-line="27" data-uid="lnk40" id="link_staff_create ticket"><path d="M146.52,118.05 C160.85,109.56 183.59,96.95 204.62,89 C230.85,79.08 255.3643,72.6725 280.1743,67.3325" fill="none" id="staff-to-create ticket" style="stroke:#181818;stroke-width:1;"/><polygon fill="#181818" points="286.04,66.07,276.3998,64.0533,281.1519,67.1221,278.0832,71.8742,286.04,66.07" style="stroke:#181818;stroke-width:1;"/></g><!--link staff to visualize my incidents--><g class="link" data-entity-1="staff" data-entity-2="visualize my incidents" data-source-line="28" data-uid="lnk41" id="link_staff_visualize my incidents"><path d="M146.57,127 C167.74,127 202.62,127 240.89,127" fill="none" id="staff-to-visualize my incidents" style="stroke:#181818;stroke-width:1;"/><polygon fill="#181818" points="246.89,127,237.89,123,241.89,127,237.89,131,246.89,127" style="stroke:#181818;stroke-width:1;"/></g><!--link manager to visualize global tickets--><g class="link" data-entity-1="manager" data-entity-2="visualize global tickets" data-source-line="30" data-uid="lnk42" id="link_manager_visualize global tickets"><path d="M161.05,316.7 C187.88,311.8 222.9172,305.4055 258.3172,298.9555" fill="none" id="manager-to-visualize global tickets" style="stroke:#181818;stroke-width:1;"/><polygon fill="#181818" points="264.22,297.88,254.6488,295.5581,259.301,298.7763,256.0828,303.4285,264.22,297.88" style="stroke:#181818;stroke-width:1;"/></g><!--link manager to view audit log--><g class="link" data-entity-1="manager" data-entity-2="view audit log" data-source-line="31" data-uid="lnk43" id="link_manager_view audit log"><path d="M161.05,326.87 C192.26,332.1 236.6426,339.5479 275.1126,345.9979" fill="none" id="manager-to-view audit log" style="stroke:#181818;stroke-width:1;"/><polygon fill="#181818" points="281.03,346.99,272.8153,341.5569,276.0988,346.1632,271.4925,349.4467,281.03,346.99" style="stroke:#181818;stroke-width:1;"/></g><!--link technician to visualize department tickets--><g class="link" data-entity-1="technician" data-entity-2="visualize department tickets" data-source-line="33" data-uid="lnk44" id="link_technician_visualize department tickets"><path d="M165.93,217.66 C184.54,216.37 202.7042,215.1232 226.8942,213.4532" fill="none" id="technician-to-visualize department tickets" style="stroke:#181818;stroke-width:1;"/><polygon fill="#181818" points="232.88,213.04,223.6259,209.6694,227.8919,213.3844,224.1769,217.6504,232.88,213.04" style="stroke:#181818;stroke-width:1;"/></g><!--link authenticate to authentication authority--><g class="link" data-entity-1="authenticate" data-entity-2="authentication authority" data-source-line="35" data-uid="lnk46" id="link_authenticate_authentication authority"><path d="M722.53,493 C754.5,493 788.03,493 822.46,493" fill="none" id="authenticate-to-authentication authority" style="stroke:#181818;stroke-width:1;"/><polygon fill="#181818" points="828.46,493,819.46,489,823.46,493,819.46,497,828.46,493" style="stroke:#181818;stroke-width:1;"/></g><!--SRC=[ZLCvSiCm3Epv2emggP0VuCcaTefKUG4YGZB65EaX8JlAyVTGXwDZeiGb5zW522p2YUqPFTQ0XJZ_8gqXE3XZt5KPAWN4WUVgAA3PKo7ih59D80yFdtaEGR0iP-yQBLRaPuXGSRHSC4PU9u2sYXMIWmjd5ZJmP0lMP0MU1shoeLBZAhRPJhkhtJscsCWn9d21GjcURM4QJIejF4K08duYoLHwuT2WuNU2ohZNg3n4mYAaANvMwgxU52xPI6pt1koQSwowARUdDo6hmx-yNsfDtEvlng4UGs0uoFsLxsB_MNzAgrlWSGVTC304hko2x6v3lhk_6lq9h1Ckkwr5pm06YFlIeuGxart6nMCx4uXE8RxG8YU3dWnRRDZ3ZpakJ5V0HdESZQiozJMQDiyZVx3N3DWGLAgtzv2pijiiiZLADHx3EcjjprNQid4rtSzQvpSlg-Mrz9Ha1lMhY4_dMTf4VGC0]--></g></svg>