<svg xmlns="http://www.w3.org/2000/svg" xmlns:xlink="http://www.w3.org/1999/xlink" contentStyleType="text/css" data-diagram-type="DESCRIPTION" height="843px" preserveAspectRatio="none" style="width:1113px;height:843px;" version="1.1" viewBox="0 0 1113 843" width="1113px" zoomAndPan="magnify"><defs/><g><!--cluster Hospital Incident Manager--><g class="cluster" data-entity="Hospital Incident Manager" data-source-line="42" data-uid="ent0009" id="cluster_Hospital Incident Manager"><rect fill="#EEEEEE" fill-opacity="0.40000" height="830" rx="2.5" ry="2.5" style="stroke:#181818;stroke-width:1;" width="672.48" x="217.01" y="7"/><text fill="#000000" font-family="sans-serif" font-size="14" font-weight="bold" lengthAdjust="spacing" textLength="208.8379" x="448.8311" y="21.9951">Hospital Incident Manager</text></g><!--entity UC1 - login--><g class="entity" data-entity="UC1 - login" data-source-line="43" data-uid="ent0010" id="entity_UC1 - login"><ellipse cx="367.8376" cy="746.0036" fill="#EEEEEE" fill-opacity="0.40000" rx="57.4376" ry="14.5236" style="stroke:#181818;stroke-width:0.5;"/><text fill="#000000" font-family="sans-serif" font-size="14" lengthAdjust="spacing" textLength="76.9863" x="329.3444" y="750.6521">UC1 - login</text></g><!--entity UC2 - authenticate--><g class="entity" data-entity="UC2 - authenticate" data-source-line="43" data-uid="ent0011" id="entity_UC2 - authenticate"><ellipse cx="745.0771" cy="801.9974" fill="#EEEEEE" fill-opacity="0.40000" rx="80.5371" ry="18.5074" style="stroke:#181818;stroke-width:0.5;"/><text fill="#000000" font-family="sans-serif" font-size="14" lengthAdjust="spacing" textLength="131.9404" x="679.1068" y="806.6458">UC2 - authenticate</text></g><!--entity UC6 - create ticket--><g class="entity" data-entity="UC6 - create ticket" data-source-line="44" data-uid="ent0013" id="entity_UC6 - create ticket"><ellipse cx="367.8429" cy="78.9986" fill="#EEEEEE" fill-opacity="0.40000" rx="80.2929" ry="18.4586" style="stroke:#181818;stroke-width:0.5;"/><text fill="#000000" font-family="sans-serif" font-size="14" lengthAdjust="spacing" textLength="131.3662" x="302.1598" y="83.647">UC6 - create ticket</text></g><!--entity UC8 - visualize global tickets--><g class="entity" data-entity="UC8 - visualize global tickets" data-source-line="45" data-uid="ent0014" id="entity_UC8 - visualize global tickets"><ellipse cx="367.8388" cy="240.9958" fill="#EEEEEE" fill-opacity="0.40000" rx="111.7788" ry="24.7558" style="stroke:#181818;stroke-width:0.5;"/><text fill="#000000" font-family="sans-serif" font-size="14" lengthAdjust="spacing" textLength="201.7217" x="266.978" y="245.6442">UC8 - visualize global tickets</text></g><!--entity UC14 - visualize department tickets--><g class="entity" data-entity="UC14 - visualize department tickets" data-source-line="46" data-uid="ent0015" id="entity_UC14 - visualize department tickets"><ellipse cx="367.8415" cy="468.9963" fill="#EEEEEE" fill-opacity="0.40000" rx="134.8315" ry="29.3663" style="stroke:#181818;stroke-width:0.5;"/><text fill="#000000" font-family="sans-serif" font-size="14" lengthAdjust="spacing" textLength="250.7559" x="242.4636" y="473.6447">UC14 - visualize department tickets</text></g><!--entity UC11 - filter tickets--><g class="entity" data-entity="UC11 - filter tickets" data-source-line="47" data-uid="ent0016" id="entity_UC11 - filter tickets"><ellipse cx="745.0779" cy="388.0016" fill="#EEEEEE" fill-opacity="0.40000" rx="82.0079" ry="18.8016" style="stroke:#181818;stroke-width:0.5;"/><text fill="#000000" font-family="sans-serif" font-size="14" lengthAdjust="spacing" textLength="135.3857" x="677.385" y="392.65">UC11 - filter tickets</text></g><!--entity UC10 - download ticket list--><g class="entity" data-entity="UC10 - download ticket list" data-source-line="49" data-uid="ent0021" id="entity_UC10 - download ticket list"><ellipse cx="745.0772" cy="311.0014" fill="#EEEEEE" fill-opacity="0.40000" rx="105.5572" ry="23.5114" style="stroke:#181818;stroke-width:0.5;"/><text fill="#000000" font-family="sans-serif" font-size="14" lengthAdjust="spacing" textLength="188.2344" x="650.96" y="315.6499">UC10 - download ticket list</text></g><!--entity UC12 - comment on ticket--><g class="entity" data-entity="UC12 - comment on ticket" data-source-line="51" data-uid="ent0026" id="entity_UC12 - comment on ticket"><ellipse cx="745.0847" cy="228.9969" fill="#EEEEEE" fill-opacity="0.40000" rx="103.5847" ry="23.1169" style="stroke:#181818;stroke-width:0.5;"/><text fill="#000000" font-family="sans-serif" font-size="14" lengthAdjust="spacing" textLength="183.9277" x="653.1208" y="233.6454">UC12 - comment on ticket</text></g><!--entity UC7 - visualize my incidents--><g class="entity" data-entity="UC7 - visualize my incidents" data-source-line="53" data-uid="ent0031" id="entity_UC7 - visualize my incidents"><ellipse cx="367.837" cy="156.9994" fill="#EEEEEE" fill-opacity="0.40000" rx="109.997" ry="24.3994" style="stroke:#181818;stroke-width:0.5;"/><text fill="#000000" font-family="sans-serif" font-size="14" lengthAdjust="spacing" textLength="197.873" x="268.9005" y="161.6478">UC7 - visualize my incidents</text></g><!--entity UC9 - assign department to ticket--><g class="entity" data-entity="UC9 - assign department to ticket" data-source-line="54" data-uid="ent0032" id="entity_UC9 - assign department to ticket"><ellipse cx="745.0795" cy="70.0019" fill="#EEEEEE" fill-opacity="0.40000" rx="128.4095" ry="28.0819" style="stroke:#181818;stroke-width:0.5;"/><text fill="#000000" font-family="sans-serif" font-size="14" lengthAdjust="spacing" textLength="237.2139" x="626.4725" y="74.6503">UC9 - assign department to ticket</text></g><!--entity UC5 - mark notification as read--><g class="entity" data-entity="UC5 - mark notification as read" data-source-line="55" data-uid="ent0035" id="entity_UC5 - mark notification as read"><ellipse cx="745.0768" cy="722.0034" fill="#EEEEEE" fill-opacity="0.40000" rx="119.7168" ry="26.3434" style="stroke:#181818;stroke-width:0.5;"/><text fill="#000000" font-family="sans-serif" font-size="14" lengthAdjust="spacing" textLength="218.75" x="635.7018" y="726.6518">UC5 - mark notification as read</text></g><!--entity UC4 - open notification tray--><g class="entity" data-entity="UC4 - open notification tray" data-source-line="55" data-uid="ent0036" id="entity_UC4 - open notification tray"><ellipse cx="367.836" cy="640.0012" fill="#EEEEEE" fill-opacity="0.40000" rx="108.006" ry="24.0012" style="stroke:#181818;stroke-width:0.5;"/><text fill="#000000" font-family="sans-serif" font-size="14" lengthAdjust="spacing" textLength="193.5596" x="271.0562" y="644.6496">UC4 - open notification tray</text></g><!--entity UC3 - receive notification--><g class="entity" data-entity="UC3 - receive notification" data-source-line="56" data-uid="ent0039" id="entity_UC3 - receive notification"><ellipse cx="745.0783" cy="638.0037" fill="#EEEEEE" fill-opacity="0.40000" rx="100.6683" ry="22.5337" style="stroke:#181818;stroke-width:0.5;"/><text fill="#000000" font-family="sans-serif" font-size="14" lengthAdjust="spacing" textLength="177.5293" x="656.3136" y="642.6521">UC3 - receive notification</text></g><!--entity UC13 - view audit log--><g class="entity" data-entity="UC13 - view audit log" data-source-line="57" data-uid="ent0042" id="entity_UC13 - view audit log"><ellipse cx="367.8362" cy="352.9992" fill="#EEEEEE" fill-opacity="0.40000" rx="88.3462" ry="20.0692" style="stroke:#181818;stroke-width:0.5;"/><text fill="#000000" font-family="sans-serif" font-size="14" lengthAdjust="spacing" textLength="149.9873" x="292.8425" y="357.6477">UC13 - view audit log</text></g><!--entity UC15 - update ticket status--><g class="entity" data-entity="UC15 - update ticket status" data-source-line="58" data-uid="ent0043" id="entity_UC15 - update ticket status"><ellipse cx="745.0761" cy="556.9972" fill="#EEEEEE" fill-opacity="0.40000" rx="107.4361" ry="23.8872" style="stroke:#181818;stroke-width:0.5;"/><text fill="#000000" font-family="sans-serif" font-size="14" lengthAdjust="spacing" textLength="192.3223" x="648.9149" y="561.6456">UC15 - update ticket status</text></g><!--entity UC16 - assign technician to ticket--><g class="entity" data-entity="UC16 - assign technician to ticket" data-source-line="59" data-uid="ent0046" id="entity_UC16 - assign technician to ticket"><ellipse cx="745.0776" cy="469.9955" fill="#EEEEEE" fill-opacity="0.40000" rx="127.7276" ry="27.9455" style="stroke:#181818;stroke-width:0.5;"/><text fill="#000000" font-family="sans-serif" font-size="14" lengthAdjust="spacing" textLength="235.7715" x="627.1919" y="474.644">UC16 - assign technician to ticket</text></g><!--entity UC17 - close ticket--><g class="entity" data-entity="UC17 - close ticket" data-source-line="60" data-uid="ent0049" id="entity_UC17 - close ticket"><ellipse cx="745.0759" cy="151.9972" fill="#EEEEEE" fill-opacity="0.40000" rx="80.3859" ry="18.4772" style="stroke:#181818;stroke-width:0.5;"/><text fill="#000000" font-family="sans-serif" font-size="14" lengthAdjust="spacing" textLength="131.585" x="679.2834" y="156.6456">UC17 - close ticket</text></g><!--entity user--><g class="entity" data-entity="user" data-source-line="38" data-uid="ent0002" id="entity_user"><ellipse cx="21.2681" cy="449.35" fill="#EEEEEE" fill-opacity="0.40000" rx="4.5" ry="4.5" style="stroke:#181818;stroke-width:0.5;"/><path d="M8.7681,455.85 L8.7681,460.85 L18.2681,460.85 L18.2681,463.1074 L8.7681,472.6074 L13.0107,476.85 L21.2681,468.5926 L29.5254,476.85 L33.7681,472.6074 L24.2681,463.1074 L24.2681,460.85 L33.7681,460.85 L33.7681,455.85 L8.7681,455.85" fill="#EEEEEE" fill-opacity="0.40000" style="stroke:#181818;stroke-width:0.5;"/><text fill="#000000" font-family="sans-serif" font-size="14" lengthAdjust="spacing" textLength="30.5361" x="6" y="490.3451">user</text></g><!--entity staff--><g class="entity" data-entity="staff" data-source-line="38" data-uid="ent0003" id="entity_staff"><ellipse cx="133.7699" cy="137.35" fill="#EEEEEE" fill-opacity="0.40000" rx="4.5" ry="4.5" style="stroke:#181818;stroke-width:0.5;"/><path d="M121.2699,143.85 L121.2699,148.85 L130.7699,148.85 L130.7699,151.1074 L121.2699,160.6074 L125.5125,164.85 L133.7699,156.5926 L142.0272,164.85 L146.2699,160.6074 L136.7699,151.1074 L136.7699,148.85 L146.2699,148.85 L146.2699,143.85 L121.2699,143.85" fill="#EEEEEE" fill-opacity="0.40000" style="stroke:#181818;stroke-width:0.5;"/><text fill="#000000" font-family="sans-serif" font-size="14" lengthAdjust="spacing" textLength="31.2197" x="118.16" y="178.3451">staff</text></g><!--entity manager--><g class="entity" data-entity="manager" data-source-line="39" data-uid="ent0005" id="entity_manager"><ellipse cx="133.7724" cy="333.35" fill="#EEEEEE" fill-opacity="0.40000" rx="4.5" ry="4.5" style="stroke:#181818;stroke-width:0.5;"/><path d="M121.2724,339.85 L121.2724,344.85 L130.7724,344.85 L130.7724,347.1074 L121.2724,356.6074 L125.515,360.85 L133.7724,352.5926 L142.0298,360.85 L146.2724,356.6074 L136.7724,347.1074 L136.7724,344.85 L146.2724,344.85 L146.2724,339.85 L121.2724,339.85" fill="#EEEEEE" fill-opacity="0.40000" style="stroke:#181818;stroke-width:0.5;"/><text fill="#000000" font-family="sans-serif" font-size="14" lengthAdjust="spacing" textLength="62.9248" x="102.31" y="374.3451">manager</text></g><!--entity technician--><g class="entity" data-entity="technician" data-source-line="40" data-uid="ent0007" id="entity_technician"><ellipse cx="133.7773" cy="449.35" fill="#EEEEEE" fill-opacity="0.40000" rx="4.5" ry="4.5" style="stroke:#181818;stroke-width:0.5;"/><path d="M121.2773,455.85 L121.2773,460.85 L130.7773,460.85 L130.7773,463.1074 L121.2773,472.6074 L125.5199,476.85 L133.7773,468.5926 L142.0347,476.85 L146.2773,472.6074 L136.7773,463.1074 L136.7773,460.85 L146.2773,460.85 L146.2773,455.85 L121.2773,455.85" fill="#EEEEEE" fill-opacity="0.40000" style="stroke:#181818;stroke-width:0.5;"/><text fill="#000000" font-family="sans-serif" font-size="14" lengthAdjust="spacing" textLength="72.4746" x="97.54" y="490.3451">technician</text></g><!--entity authentication authority--><g class="entity" data-entity="authentication authority" data-source-line="74" data-uid="ent0059" id="entity_authentication authority"><ellipse cx="1021.5017" cy="782.35" fill="#EEEEEE" fill-opacity="0.40000" rx="4.5" ry="4.5" style="stroke:#181818;stroke-width:0.5;"/><path d="M1009.0017,788.85 L1009.0017,793.85 L1018.5017,793.85 L1018.5017,796.1074 L1009.0017,805.6074 L1013.2444,809.85 L1021.5017,801.5926 L1029.7591,809.85 L1034.0017,805.6074 L1024.5017,796.1074 L1024.5017,793.85 L1034.0017,793.85 L1034.0017,788.85 L1009.0017,788.85" fill="#EEEEEE" fill-opacity="0.40000" style="stroke:#181818;stroke-width:0.5;"/><text fill="#000000" font-family="sans-serif" font-size="14" lengthAdjust="spacing" textLength="170.0234" x="936.49" y="823.3451">authentication authority</text></g><!--reverse link user to staff--><g class="link" data-entity-1="user" data-entity-2="staff" data-source-line="38" data-uid="lnk4" id="link_user_staff"><path d="M37.1317,427.0336 C57.8317,368.6136 103.14,240.66 123.87,182.12" fill="none" id="user-backto-staff" style="stroke:#181818;stroke-width:1;"/><polygon fill="none" points="31.12,444,42.7872,429.0375,31.4763,425.0297,31.12,444" style="stroke:#181818;stroke-width:1;"/></g><!--reverse link user to manager--><g class="link" data-entity-1="user" data-entity-2="manager" data-source-line="39" data-uid="lnk6" id="link_user_manager"><path d="M49.1233,440.805 C67.4933,421.515 87.05,400.99 109.03,377.92" fill="none" id="user-backto-manager" style="stroke:#181818;stroke-width:1;"/><polygon fill="none" points="36.71,453.84,53.4683,444.9428,44.7783,436.6673,36.71,453.84" style="stroke:#181818;stroke-width:1;"/></g><!--reverse link user to technician--><g class="link" data-entity-1="user" data-entity-2="technician" data-source-line="40" data-uid="lnk8" id="link_user_technician"><path d="M54.71,469 C70.04,469 76.84,469 97.4,469" fill="none" id="user-backto-technician" style="stroke:#181818;stroke-width:1;"/><polygon fill="none" points="36.71,469,54.71,475,54.71,463,36.71,469" style="stroke:#181818;stroke-width:1;"/></g><!--link UC1 - login to UC2 - authenticate--><g class="link" data-entity-1="UC1 - login" data-entity-2="UC2 - authenticate" data-source-line="43" data-uid="lnk12" id="link_UC1 - login_UC2 - authenticate"><path d="M418.28,753.38 C484.46,763.25 596.1457,779.9248 670.4957,791.0148" fill="none" id="UC1 - login-to-UC2 - authenticate" style="stroke:#181818;stroke-width:1;stroke-dasharray:7,7;"/><polygon fill="#181818" points="676.43,791.9,668.1186,786.616,671.4847,791.1624,666.9384,794.5285,676.43,791.9" style="stroke:#181818;stroke-width:1;"/><text fill="#000000" font-family="sans-serif" font-size="13" lengthAdjust="spacing" textLength="47.0996" x="536.17" y="766.7169">include</text></g><!--reverse link UC8 - visualize global tickets to UC11 - filter tickets--><g class="link" data-entity-1="UC8 - visualize global tickets" data-entity-2="UC11 - filter tickets" data-source-line="47" data-uid="lnk18" id="link_UC8 - visualize global tickets_UC11 - filter tickets"><path d="M416.0709,267.1131 C455.3209,288.8131 502.67,315 502.67,315 C502.67,315 532.67,358 532.67,358 C532.67,358 612.7,369.36 674.27,378.09" fill="none" id="UC8 - visualize global tickets-backto-UC11 - filter tickets" style="stroke:#181818;stroke-width:1;stroke-dasharray:7,7;"/><polygon fill="#181818" points="410.82,264.21,416.761,272.0652,415.1958,266.6292,420.6318,265.064,410.82,264.21" style="stroke:#181818;stroke-width:1;"/><text fill="#000000" font-family="sans-serif" font-size="13" lengthAdjust="spacing" textLength="52.0508" x="533.67" y="354.0669">extends</text></g><!--reverse link UC14 - visualize department tickets to UC11 - filter tickets--><g class="link" data-entity-1="UC14 - visualize department tickets" data-entity-2="UC11 - filter tickets" data-source-line="48" data-uid="lnk20" id="link_UC14 - visualize department tickets_UC11 - filter tickets"><path d="M508.619,471.5612 C526.419,471.8912 532.67,472 532.67,472 C532.67,472 586.67,472 586.67,472 C586.67,472 616.67,425 616.67,425 C616.67,425 657.55,413.13 693,402.84" fill="none" id="UC14 - visualize department tickets-backto-UC11 - filter tickets" style="stroke:#181818;stroke-width:1;stroke-dasharray:7,7;"/><polygon fill="#181818" points="502.62,471.45,511.5443,475.6161,507.6191,471.5427,511.6926,467.6175,502.62,471.45" style="stroke:#181818;stroke-width:1;"/><text fill="#000000" font-family="sans-serif" font-size="13" lengthAdjust="spacing" textLength="52.0508" x="533.67" y="468.0669">extends</text></g><!--reverse link UC8 - visualize global tickets to UC10 - download ticket list--><g class="link" data-entity-1="UC8 - visualize global tickets" data-entity-2="UC10 - download ticket list" data-source-line="49" data-uid="lnk23" id="link_UC8 - visualize global tickets_UC10 - download ticket list"><path d="M461.7762,257.637 C522.4562,268.497 586.67,280 586.67,280 C586.67,280 625.72,287.69 664.92,295.41" fill="none" id="UC8 - visualize global tickets-backto-UC10 - download ticket list" style="stroke:#181818;stroke-width:1;stroke-dasharray:7,7;"/><polygon fill="#181818" points="455.87,256.58,464.0245,262.103,460.7918,257.4609,465.4339,254.2281,455.87,256.58" style="stroke:#181818;stroke-width:1;"/><text fill="#000000" font-family="sans-serif" font-size="13" lengthAdjust="spacing" textLength="52.0508" x="533.67" y="266.6469">extends</text></g><!--reverse link UC14 - visualize department tickets to UC10 - download ticket list--><g class="link" data-entity-1="UC14 - visualize department tickets" data-entity-2="UC10 - download ticket list" data-source-line="50" data-uid="lnk25" id="link_UC14 - visualize department tickets_UC10 - download ticket list"><path d="M444.3005,441.6343 C508.0205,418.5243 586.67,390 586.67,390 C586.67,390 616.67,352 616.67,352 C616.67,352 650.81,341.02 683.74,330.42" fill="none" id="UC14 - visualize department tickets-backto-UC10 - download ticket list" style="stroke:#181818;stroke-width:1;stroke-dasharray:7,7;"/><polygon fill="#181818" points="438.66,443.68,448.4845,444.3718,443.3604,441.9753,445.7569,436.8511,438.66,443.68" style="stroke:#181818;stroke-width:1;"/><text fill="#000000" font-family="sans-serif" font-size="13" lengthAdjust="spacing" textLength="52.0508" x="533.67" y="386.0669">extends</text></g><!--reverse link UC8 - visualize global tickets to UC12 - comment on ticket--><g class="link" data-entity-1="UC8 - visualize global tickets" data-entity-2="UC12 - comment on ticket" data-source-line="51" data-uid="lnk28" id="link_UC8 - visualize global tickets_UC12 - comment on ticket"><path d="M474.8241,229.3543 C508.9341,225.6043 532.67,223 532.67,223 C532.67,223 586.67,223 586.67,223 C586.67,223 612.16,223.97 642.61,225.13" fill="none" id="UC8 - visualize global tickets-backto-UC12 - comment on ticket" style="stroke:#181818;stroke-width:1;stroke-dasharray:7,7;"/><polygon fill="#181818" points="468.86,230.01,478.2432,233.0025,473.8301,229.4636,477.369,225.0504,468.86,230.01" style="stroke:#181818;stroke-width:1;"/><text fill="#000000" font-family="sans-serif" font-size="13" lengthAdjust="spacing" textLength="52.0508" x="533.67" y="219.0669">extends</text></g><!--reverse link UC14 - visualize department tickets to UC12 - comment on ticket--><g class="link" data-entity-1="UC14 - visualize department tickets" data-entity-2="UC12 - comment on ticket" data-source-line="52" data-uid="lnk30" id="link_UC14 - visualize department tickets_UC12 - comment on ticket"><path d="M421.5839,438.2589 C460.0539,415.8389 502.67,391 502.67,391 C502.67,391 532.67,337 532.67,337 C532.67,337 586.67,305 586.67,305 C586.67,305 616.67,270 616.67,270 C616.67,270 651.32,258.85 684.48,248.18" fill="none" id="UC14 - visualize department tickets-backto-UC12 - comment on ticket" style="stroke:#181818;stroke-width:1;stroke-dasharray:7,7;"/><polygon fill="#181818" points="416.4,441.28,426.1899,440.2042,420.7199,438.7624,422.1618,433.2924,416.4,441.28" style="stroke:#181818;stroke-width:1;"/><text fill="#000000" font-family="sans-serif" font-size="13" lengthAdjust="spacing" textLength="52.0508" x="533.67" y="301.0669">extends</text></g><!--reverse link UC8 - visualize global tickets to UC9 - assign department to ticket--><g class="link" data-entity-1="UC8 - visualize global tickets" data-entity-2="UC9 - assign department to ticket" data-source-line="54" data-uid="lnk34" id="link_UC8 - visualize global tickets_UC9 - assign department to ticket"><path d="M439.5243,218.8221 C473.6243,208.1121 502.67,199 502.67,199 C502.67,199 532.67,162 532.67,162 C532.67,162 616.67,116 616.67,116 C616.67,116 646.33,105.29 677.02,94.21" fill="none" id="UC8 - visualize global tickets-backto-UC9 - assign department to ticket" style="stroke:#181818;stroke-width:1;stroke-dasharray:7,7;"/><polygon fill="#181818" points="433.8,220.62,443.585,221.7394,438.5703,219.1218,441.1879,214.107,433.8,220.62" style="stroke:#181818;stroke-width:1;"/><text fill="#000000" font-family="sans-serif" font-size="13" lengthAdjust="spacing" textLength="52.0508" x="533.67" y="129.5969">extends</text></g><!--reverse link UC4 - open notification tray to UC5 - mark notification as read--><g class="link" data-entity-1="UC4 - open notification tray" data-entity-2="UC5 - mark notification as read" data-source-line="55" data-uid="lnk38" id="link_UC4 - open notification tray_UC5 - mark notification as read"><path d="M452.0016,658.1714 C513.8916,671.7014 594.78,689.37 658.71,703.34" fill="none" id="UC4 - open notification tray-backto-UC5 - mark notification as read" style="stroke:#181818;stroke-width:1;stroke-dasharray:7,7;"/><polygon fill="#181818" points="446.14,656.89,454.0781,662.7198,451.0246,657.9578,455.7866,654.9044,446.14,656.89" style="stroke:#181818;stroke-width:1;"/><text fill="#000000" font-family="sans-serif" font-size="13" lengthAdjust="spacing" textLength="52.0508" x="533.67" y="672.1569">extends</text></g><!--reverse link UC4 - open notification tray to UC3 - receive notification--><g class="link" data-entity-1="UC4 - open notification tray" data-entity-2="UC3 - receive notification" data-source-line="56" data-uid="lnk41" id="link_UC4 - open notification tray_UC3 - receive notification"><path d="M481.829,642.07 C512.919,642.64 532.67,643 532.67,643 C532.67,643 586.67,643 586.67,643 C586.67,643 613.66,642.14 645.29,641.14" fill="none" id="UC4 - open notification tray-backto-UC3 - receive notification" style="stroke:#181818;stroke-width:1;stroke-dasharray:7,7;"/><polygon fill="#181818" points="475.83,641.96,484.7552,646.1243,480.8292,642.0517,484.9018,638.1256,475.83,641.96" style="stroke:#181818;stroke-width:1;"/><text fill="#000000" font-family="sans-serif" font-size="13" lengthAdjust="spacing" textLength="47.0996" x="536.17" y="639.0669">include</text></g><!--reverse link UC14 - visualize department tickets to UC15 - update ticket status--><g class="link" data-entity-1="UC14 - visualize department tickets" data-entity-2="UC15 - update ticket status" data-source-line="58" data-uid="lnk45" id="link_UC14 - visualize department tickets_UC15 - update ticket status"><path d="M426.9057,499.1235 C474.7957,523.9735 532.67,554 532.67,554 C532.67,554 584.91,554.74 637.45,555.49" fill="none" id="UC14 - visualize department tickets-backto-UC15 - update ticket status" style="stroke:#181818;stroke-width:1;stroke-dasharray:7,7;"/><polygon fill="#181818" points="421.58,496.36,427.7262,504.0557,426.0181,498.6629,431.4109,496.9548,421.58,496.36" style="stroke:#181818;stroke-width:1;"/><text fill="#000000" font-family="sans-serif" font-size="13" lengthAdjust="spacing" textLength="52.0508" x="533.67" y="550.0669">extends</text></g><!--reverse link UC14 - visualize department tickets to UC16 - assign technician to ticket--><g class="link" data-entity-1="UC14 - visualize department tickets" data-entity-2="UC16 - assign technician to ticket" data-source-line="59" data-uid="lnk48" id="link_UC14 - visualize department tickets_UC16 - assign technician to ticket"><path d="M443.9541,496.5131 C488.6041,512.8631 532.67,529 532.67,529 C532.67,529 586.67,529 586.67,529 C586.67,529 616.67,516 616.67,516 C616.67,516 646.57,505.21 677.39,494.08" fill="none" id="UC14 - visualize department tickets-backto-UC16 - assign technician to ticket" style="stroke:#181818;stroke-width:1;stroke-dasharray:7,7;"/><polygon fill="#181818" points="438.32,494.45,445.3958,501.3008,443.0151,496.1693,448.1466,493.7886,438.32,494.45" style="stroke:#181818;stroke-width:1;"/><text fill="#000000" font-family="sans-serif" font-size="13" lengthAdjust="spacing" textLength="52.0508" x="533.67" y="525.0669">extends</text></g><!--reverse link UC8 - visualize global tickets to UC17 - close ticket--><g class="link" data-entity-1="UC8 - visualize global tickets" data-entity-2="UC17 - close ticket" data-source-line="60" data-uid="lnk51" id="link_UC8 - visualize global tickets_UC17 - close ticket"><path d="M446.9837,220.488 C490.8737,208.978 532.67,198 532.67,198 C532.67,198 622.91,178.37 685.47,164.75" fill="none" id="UC8 - visualize global tickets-backto-UC17 - close ticket" style="stroke:#181818;stroke-width:1;stroke-dasharray:7,7;"/><polygon fill="#181818" points="441.18,222.01,450.9003,223.5961,446.0165,220.7417,448.8709,215.8578,441.18,222.01" style="stroke:#181818;stroke-width:1;"/><text fill="#000000" font-family="sans-serif" font-size="13" lengthAdjust="spacing" textLength="52.0508" x="533.67" y="182.9469">extends</text></g><!--link user to UC1 - login--><g class="link" data-entity-1="user" data-entity-2="UC1 - login" data-source-line="63" data-uid="lnk52" id="link_user_UC1 - login"><path d="M36.92,485.71 C80.94,535.93 209.01,682 209.01,682 C209.01,682 284.5398,712.6252 330.4798,731.2552" fill="none" id="user-to-UC1 - login" style="stroke:#181818;stroke-width:1;"/><polygon fill="#181818" points="336.04,733.51,329.2029,726.421,331.4065,731.631,326.1965,733.8346,336.04,733.51" style="stroke:#181818;stroke-width:1;"/></g><!--link user to UC4 - open notification tray--><g class="link" data-entity-1="user" data-entity-2="UC4 - open notification tray" data-source-line="64" data-uid="lnk53" id="link_user_UC4 - open notification tray"><path d="M36.78,477.1 C58.65,489.3 97.54,511 97.54,511 C97.54,511 238.5288,578.538 315.4388,615.378" fill="none" id="user-to-UC4 - open notification tray" style="stroke:#181818;stroke-width:1;"/><polygon fill="#181818" points="320.85,617.97,314.4611,610.4745,316.3406,615.81,311.0051,617.6895,320.85,617.97" style="stroke:#181818;stroke-width:1;"/></g><!--link staff to UC6 - create ticket--><g class="link" data-entity-1="staff" data-entity-2="UC6 - create ticket" data-source-line="66" data-uid="lnk54" id="link_staff_UC6 - create ticket"><path d="M149.8,148.5 C171.49,136.23 209.01,115 209.01,115 C209.01,115 258.8002,103.644 304.0102,93.334" fill="none" id="staff-to-UC6 - create ticket" style="stroke:#181818;stroke-width:1;"/><polygon fill="#181818" points="309.86,92,300.1959,90.1012,304.9852,93.1117,301.9746,97.9009,309.86,92" style="stroke:#181818;stroke-width:1;"/></g><!--link staff to UC7 - visualize my incidents--><g class="link" data-entity-1="staff" data-entity-2="UC7 - visualize my incidents" data-source-line="67" data-uid="lnk55" id="link_staff_UC7 - visualize my incidents"><path d="M149.64,157 C171.75,157 209.24,157 251.54,157" fill="none" id="staff-to-UC7 - visualize my incidents" style="stroke:#181818;stroke-width:1;"/><polygon fill="#181818" points="257.54,157,248.54,153,252.54,157,248.54,161,257.54,157" style="stroke:#181818;stroke-width:1;"/></g><!--link manager to UC8 - visualize global tickets--><g class="link" data-entity-1="manager" data-entity-2="UC8 - visualize global tickets" data-source-line="69" data-uid="lnk56" id="link_manager_UC8 - visualize global tickets"><path d="M165.4,337.32 C185.85,326.86 209.01,315 209.01,315 C209.01,315 266.7777,287.9176 313.1977,266.1476" fill="none" id="manager-to-UC8 - visualize global tickets" style="stroke:#181818;stroke-width:1;"/><polygon fill="#181818" points="318.63,263.6,308.7832,263.7999,314.1031,265.723,312.18,271.043,318.63,263.6" style="stroke:#181818;stroke-width:1;"/></g><!--link manager to UC13 - view audit log--><g class="link" data-entity-1="manager" data-entity-2="UC13 - view audit log" data-source-line="70" data-uid="lnk57" id="link_manager_UC13 - view audit log"><path d="M165.59,353 C194.5,353 233.15,353 273.05,353" fill="none" id="manager-to-UC13 - view audit log" style="stroke:#181818;stroke-width:1;"/><polygon fill="#181818" points="279.05,353,270.05,349,274.05,353,270.05,357,279.05,353" style="stroke:#181818;stroke-width:1;"/></g><!--link technician to UC14 - visualize department tickets--><g class="link" data-entity-1="technician" data-entity-2="UC14 - visualize department tickets" data-source-line="72" data-uid="lnk58" id="link_technician_UC14 - visualize department tickets"><path d="M170.27,469 C187.6,469 203.67,469 226.7,469" fill="none" id="technician-to-UC14 - visualize department tickets" style="stroke:#181818;stroke-width:1;"/><polygon fill="#181818" points="232.7,469,223.7,465,227.7,469,223.7,473,232.7,469" style="stroke:#181818;stroke-width:1;"/></g><!--link UC2 - authenticate to authentication authority--><g class="link" data-entity-1="UC2 - authenticate" data-entity-2="authentication authority" data-source-line="74" data-uid="lnk60" id="link_UC2 - authenticate_authentication authority"><path d="M825.83,802 C860.48,802 895.11,802 930.26,802" fill="none" id="UC2 - authenticate-to-authentication authority" style="stroke:#181818;stroke-width:1;"/><polygon fill="#181818" points="936.26,802,927.26,798,931.26,802,927.26,806,936.26,802" style="stroke:#181818;stroke-width:1;"/></g><!--SRC=[dLHDRzD04BtlhnZI0-IGggKG848SMbKKgQKI7sUqMO-T9PjPopjkC2t_dLctRkmeSkhwvfatRzzyXgMbN1Tw1TgmBxvpvH0kl7D-hHoc3EoXiDc28R456hQUL7YCkRI4NEK8kNULan_r4guisPLsm0jSuGpM2yi82-qywCANb00wSH07yEGgrMARQxFCQioPTxu0BZG5SGbOlKWm5Nuukxwy_lRhz3CSOFrDfrkkhzS_pk4WbU_eI9mYw9n2MI1evy3FVqiEGUJSY078qwJrI4j0IvMmwz8nt2g0qos5ZHhrhvs7SJg4VVWDF1UGpl3f0R4FcZ8t8CJuLUufvlZa4FBSzq2iSmTVpy-0AfK1ZGvxSr22A-3ZtMG2WNMQjlvNcgHkHSl2Q1PaZTMarAPAemiVSiioar_8s2HMuUe-T7IhNlqyEuO9E9zP6XycVas7dyJsMcowb1acjaOpZcUMZ2iJZ05JSPe2nGpYNIAFe_MzM6ziABMpVn4ov-Tn2sf_g077Rpg81AKG75UXYufoKkjOachiXsLUg-fzOeP_62a9-qZso-Wm7GawbiLvdJmWmDd0pn2rbsgWjDWacUmQuAdfnN1T_Jp3HBthW5SLs8UPk-_kXpXN8TYCEaJ-sUBVGbo4OXdtrQPnLkL4onDo9NJoI1TJy3bI5oMth-gGdGXCzWQjdCSsSWmr4VGpmGnQIt9yKgU0QzcZn7BSiFlvZehBFDbiJrniBfyzeDDDIJVxlwEa0sbZ8utp0OUr1XgEvdHD9dNTDaUcO-uffnpBUF0Qv8wZq_7t3PvwE9KDjlzKRO5tDbArIjtWzfytjUkorl6ZbgaUOFdrXULgz1y0]--></g></svg>