<svg xmlns="http://www.w3.org/2000/svg" xmlns:xlink="http://www.w3.org/1999/xlink" contentStyleType="text/css" data-diagram-type="DESCRIPTION" height="686px" preserveAspectRatio="none" style="width:998px;height:686px;background:#FFFFFF;" version="1.1" viewBox="0 0 998 686" width="998px" zoomAndPan="magnify"><defs/><g><!--cluster Hospital Incident Manager--><g class="cluster" data-entity="Hospital Incident Manager" data-source-line="8" data-uid="ent0009" id="cluster_Hospital Incident Manager"><rect fill="none" height="673" rx="2.5" ry="2.5" style="stroke:#181818;stroke-width:1;" width="568.89" x="212.62" y="7"/><text fill="#000000" font-family="sans-serif" font-size="14" font-weight="bold" lengthAdjust="spacing" textLength="189.6494" x="402.2403" y="22.5352">Hospital Incident Manager</text></g><!--entity login--><g class="entity" data-entity="login" data-source-line="9" data-uid="ent0010" id="entity_login"><ellipse cx="335.8004" cy="612.999" fill="#F1F1F1" rx="27.1204" ry="14.659" style="stroke:#181818;stroke-width:0.5;"/><text fill="#000000" font-family="sans-serif" font-size="14" lengthAdjust="spacing" textLength="34.1113" x="318.7447" y="617.7431">login</text></g><!--entity authenticate--><g class="entity" data-entity="authenticate" data-source-line="9" data-uid="ent0011" id="entity_authenticate"><ellipse cx="660.238" cy="649.0036" fill="#F1F1F1" rx="61.868" ry="14.7736" style="stroke:#181818;stroke-width:0.5;"/><text fill="#000000" font-family="sans-serif" font-size="14" lengthAdjust="spacing" textLength="84.0547" x="618.2107" y="653.7477">authenticate</text></g><!--entity create ticket--><g class="entity" data-entity="create ticket" data-source-line="10" data-uid="ent0013" id="entity_create ticket"><ellipse cx="335.805" cy="56.999" fill="#F1F1F1" rx="61.695" ry="14.739" style="stroke:#181818;stroke-width:0.5;"/><text fill="#000000" font-family="sans-serif" font-size="14" lengthAdjust="spacing" textLength="83.5693" x="294.0203" y="61.7431">create ticket</text></g><!--entity visualize global tickets--><g class="entity" data-entity="visualize global tickets" data-source-line="11" data-uid="ent0014" id="entity_visualize global tickets"><ellipse cx="335.7971" cy="203.0034" fill="#F1F1F1" rx="90.5171" ry="20.5034" style="stroke:#181818;stroke-width:0.5;"/><text fill="#000000" font-family="sans-serif" font-size="14" lengthAdjust="spacing" textLength="154.4033" x="258.5954" y="207.7476">visualize global tickets</text></g><!--entity visualize department tickets--><g class="entity" data-entity="visualize department tickets" data-source-line="12" data-uid="ent0015" id="entity_visualize department tickets"><ellipse cx="335.7977" cy="352.9955" fill="#F1F1F1" rx="107.1777" ry="23.8355" style="stroke:#181818;stroke-width:0.5;"/><text fill="#000000" font-family="sans-serif" font-size="14" lengthAdjust="spacing" textLength="191.3516" x="240.122" y="357.7397">visualize department tickets</text></g><!--entity filter tickets--><g class="entity" data-entity="filter tickets" data-source-line="13" data-uid="ent0016" id="entity_filter tickets"><ellipse cx="660.239" cy="137.999" fill="#F1F1F1" rx="60.449" ry="14.659" style="stroke:#181818;stroke-width:0.5;"/><text fill="#000000" font-family="sans-serif" font-size="14" lengthAdjust="spacing" textLength="81.2451" x="619.6164" y="142.7431">filter tickets</text></g><!--entity download ticket list--><g class="entity" data-entity="download ticket list" data-source-line="15" data-uid="ent0021" id="entity_download ticket list"><ellipse cx="660.2413" cy="206.0043" fill="#F1F1F1" rx="81.2713" ry="18.6543" style="stroke:#181818;stroke-width:0.5;"/><text fill="#000000" font-family="sans-serif" font-size="14" lengthAdjust="spacing" textLength="133.0752" x="593.7037" y="210.7484">download ticket list</text></g><!--entity visualize my incidents--><g class="entity" data-entity="visualize my incidents" data-source-line="17" data-uid="ent0026" id="entity_visualize my incidents"><ellipse cx="335.8029" cy="127.0046" fill="#F1F1F1" rx="88.4229" ry="20.0846" style="stroke:#181818;stroke-width:0.5;"/><text fill="#000000" font-family="sans-serif" font-size="14" lengthAdjust="spacing" textLength="149.6387" x="260.9836" y="131.7487">visualize my incidents</text></g><!--entity assign department to ticket--><g class="entity" data-entity="assign department to ticket" data-source-line="18" data-uid="ent0027" id="entity_assign department to ticket"><ellipse cx="660.2363" cy="65.0033" fill="#F1F1F1" rx="105.2663" ry="23.4533" style="stroke:#181818;stroke-width:0.5;"/><text fill="#000000" font-family="sans-serif" font-size="14" lengthAdjust="spacing" textLength="187.1816" x="566.6454" y="69.7474">assign department to ticket</text></g><!--entity mark notification as read--><g class="entity" data-entity="mark notification as read" data-source-line="19" data-uid="ent0030" id="entity_mark notification as read"><ellipse cx="660.239" cy="576.9998" fill="#F1F1F1" rx="97.549" ry="21.9098" style="stroke:#181818;stroke-width:0.5;"/><text fill="#000000" font-family="sans-serif" font-size="14" lengthAdjust="spacing" textLength="170.1807" x="575.1487" y="581.7439">mark notification as read</text></g><!--entity open notification tray--><g class="entity" data-entity="open notification tray" data-source-line="19" data-uid="ent0031" id="entity_open notification tray"><ellipse cx="335.7979" cy="514.9976" fill="#F1F1F1" rx="86.8379" ry="19.7676" style="stroke:#181818;stroke-width:0.5;"/><text fill="#000000" font-family="sans-serif" font-size="14" lengthAdjust="spacing" textLength="146.0088" x="262.7935" y="519.7417">open notification tray</text></g><!--entity receive notification--><g class="entity" data-entity="receive notification" data-source-line="20" data-uid="ent0034" id="entity_receive notification"><ellipse cx="660.2366" cy="502.0013" fill="#F1F1F1" rx="79.6566" ry="18.3313" style="stroke:#181818;stroke-width:0.5;"/><text fill="#000000" font-family="sans-serif" font-size="14" lengthAdjust="spacing" textLength="129.2607" x="595.6062" y="506.7455">receive notification</text></g><!--entity view audit log--><g class="entity" data-entity="view audit log" data-source-line="21" data-uid="ent0037" id="entity_view audit log"><ellipse cx="335.8023" cy="274.0005" fill="#F1F1F1" rx="65.7523" ry="15.5505" style="stroke:#181818;stroke-width:0.5;"/><text fill="#000000" font-family="sans-serif" font-size="14" lengthAdjust="spacing" textLength="94.6299" x="288.4873" y="278.7446">view audit log</text></g><!--entity update ticket notes--><g class="entity" data-entity="update ticket notes" data-source-line="22" data-uid="ent0038" id="entity_update ticket notes"><ellipse cx="660.2418" cy="278.0044" fill="#F1F1F1" rx="80.4218" ry="18.4844" style="stroke:#181818;stroke-width:0.5;"/><text fill="#000000" font-family="sans-serif" font-size="14" lengthAdjust="spacing" textLength="131.0723" x="594.7056" y="282.7485">update ticket notes</text></g><!--entity update ticket status--><g class="entity" data-entity="update ticket status" data-source-line="23" data-uid="ent0041" id="entity_update ticket status"><ellipse cx="660.2361" cy="429.9992" fill="#F1F1F1" rx="81.9961" ry="18.7992" style="stroke:#181818;stroke-width:0.5;"/><text fill="#000000" font-family="sans-serif" font-size="14" lengthAdjust="spacing" textLength="134.7773" x="592.8474" y="434.7434">update ticket status</text></g><!--entity assign technician to ticket--><g class="entity" data-entity="assign technician to ticket" data-source-line="24" data-uid="ent0044" id="entity_assign technician to ticket"><ellipse cx="660.2419" cy="354.0044" fill="#F1F1F1" rx="100.8719" ry="22.5744" style="stroke:#181818;stroke-width:0.5;"/><text fill="#000000" font-family="sans-serif" font-size="14" lengthAdjust="spacing" textLength="177.5361" x="571.4739" y="358.7485">assign technician to ticket</text></g><!--entity user--><g class="entity" data-entity="user" data-source-line="4" data-uid="ent0002" id="entity_user"><ellipse cx="20.6768" cy="336.26" fill="#F1F1F1" rx="4.5" ry="4.5" style="stroke:#181818;stroke-width:0.5;"/><path d="M8.1768,342.76 L8.1768,347.76 L17.6768,347.76 L17.6768,350.0174 L8.1768,359.5174 L12.4194,363.76 L20.6768,355.5026 L28.9341,363.76 L33.1768,359.5174 L23.6768,350.0174 L23.6768,347.76 L33.1768,347.76 L33.1768,342.76 L8.1768,342.76" fill="#F1F1F1" style="stroke:#181818;stroke-width:0.5;"/><text fill="#000000" font-family="sans-serif" font-size="14" lengthAdjust="spacing" textLength="29.3535" x="6" y="377.7952">user</text></g><!--entity staff--><g class="entity" data-entity="staff" data-source-line="4" data-uid="ent0003" id="entity_staff"><ellipse cx="130.9897" cy="107.26" fill="#F1F1F1" rx="4.5" ry="4.5" style="stroke:#181818;stroke-width:0.5;"/><path d="M118.4897,113.76 L118.4897,118.76 L127.9897,118.76 L127.9897,121.0174 L118.4897,130.5174 L122.7323,134.76 L130.9897,126.5026 L139.2471,134.76 L143.4897,130.5174 L133.9897,121.0174 L133.9897,118.76 L143.4897,118.76 L143.4897,113.76 L118.4897,113.76" fill="#F1F1F1" style="stroke:#181818;stroke-width:0.5;"/><text fill="#000000" font-family="sans-serif" font-size="14" lengthAdjust="spacing" textLength="30.3994" x="115.79" y="148.7952">staff</text></g><!--entity manager--><g class="entity" data-entity="manager" data-source-line="5" data-uid="ent0005" id="entity_manager"><ellipse cx="130.9897" cy="252.26" fill="#F1F1F1" rx="4.5" ry="4.5" style="stroke:#181818;stroke-width:0.5;"/><path d="M118.4897,258.76 L118.4897,263.76 L127.9897,263.76 L127.9897,266.0174 L118.4897,275.5174 L122.7324,279.76 L130.9897,271.5026 L139.2471,279.76 L143.4897,275.5174 L133.9897,266.0174 L133.9897,263.76 L143.4897,263.76 L143.4897,258.76 L118.4897,258.76" fill="#F1F1F1" style="stroke:#181818;stroke-width:0.5;"/><text fill="#000000" font-family="sans-serif" font-size="14" lengthAdjust="spacing" textLength="59.4795" x="101.25" y="293.7952">manager</text></g><!--entity technician--><g class="entity" data-entity="technician" data-source-line="6" data-uid="ent0007" id="entity_technician"><ellipse cx="130.9843" cy="336.26" fill="#F1F1F1" rx="4.5" ry="4.5" style="stroke:#181818;stroke-width:0.5;"/><path d="M118.4843,342.76 L118.4843,347.76 L127.9843,347.76 L127.9843,350.0174 L118.4843,359.5174 L122.7269,363.76 L130.9843,355.5026 L139.2416,363.76 L143.4843,359.5174 L133.9843,350.0174 L133.9843,347.76 L143.4843,347.76 L143.4843,342.76 L118.4843,342.76" fill="#F1F1F1" style="stroke:#181818;stroke-width:0.5;"/><text fill="#000000" font-family="sans-serif" font-size="14" lengthAdjust="spacing" textLength="69.2686" x="96.35" y="377.7952">technician</text></g><!--entity authentication authority--><g class="entity" data-entity="authentication authority" data-source-line="38" data-uid="ent0054" id="entity_authentication authority"><ellipse cx="910.155" cy="629.26" fill="#F1F1F1" rx="4.5" ry="4.5" style="stroke:#181818;stroke-width:0.5;"/><path d="M897.655,635.76 L897.655,640.76 L907.155,640.76 L907.155,643.0174 L897.655,652.5174 L901.8977,656.76 L910.155,648.5026 L918.4124,656.76 L922.655,652.5174 L913.155,643.0174 L913.155,640.76 L922.655,640.76 L922.655,635.76 L897.655,635.76" fill="#F1F1F1" style="stroke:#181818;stroke-width:0.5;"/><text fill="#000000" font-family="sans-serif" font-size="14" lengthAdjust="spacing" textLength="163.29" x="828.51" y="670.7952">authentication authority</text></g><!--reverse link user to staff--><g class="link" data-entity-1="user" data-entity-2="staff" data-source-line="4" data-uid="lnk4" id="link_user_staff"><path d="M41.1678,314.789 C62.0078,270.739 97.38,195.94 118.2,151.91" fill="none" id="user-backto-staff" style="stroke:#181818;stroke-width:1;"/><polygon fill="none" points="33.47,331.06,46.5914,317.355,35.7441,312.2231,33.47,331.06" style="stroke:#181818;stroke-width:1;"/></g><!--reverse link user to manager--><g class="link" data-entity-1="user" data-entity-2="manager" data-source-line="5" data-uid="lnk6" id="link_user_manager"><path d="M50.0613,333.9858 C66.5713,321.1758 80.08,310.71 101.18,294.34" fill="none" id="user-backto-manager" style="stroke:#181818;stroke-width:1;"/><polygon fill="none" points="35.84,345.02,53.7394,338.7262,46.3832,329.2453,35.84,345.02" style="stroke:#181818;stroke-width:1;"/></g><!--reverse link user to technician--><g class="link" data-entity-1="user" data-entity-2="technician" data-source-line="6" data-uid="lnk8" id="link_user_technician"><path d="M53.84,356 C69.09,356 75.91,356 96.23,356" fill="none" id="user-backto-technician" style="stroke:#181818;stroke-width:1;"/><polygon fill="none" points="35.84,356,53.84,362,53.84,350,35.84,356" style="stroke:#181818;stroke-width:1;"/></g><!--link login to authenticate--><g class="link" data-entity-1="login" data-entity-2="authenticate" data-source-line="9" data-uid="lnk12" id="link_login_authenticate"><path d="M362.35,616.94 C389.69,621.06 434.32,627.54 472.98,632 C515.72,636.93 558.141,640.8088 594.881,643.8888" fill="none" id="login-to-authenticate" style="stroke:#181818;stroke-width:1;stroke-dasharray:7,7;"/><polygon fill="#181818" points="600.86,644.39,592.2256,639.6521,595.8775,643.9723,591.5573,647.6242,600.86,644.39" style="stroke:#181818;stroke-width:1;"/><text fill="#000000" font-family="sans-serif" font-size="13" lengthAdjust="spacing" textLength="45.7349" x="476.48" y="628.5684">include</text></g><!--reverse link visualize global tickets to filter tickets--><g class="link" data-entity-1="visualize global tickets" data-entity-2="filter tickets" data-source-line="13" data-uid="lnk18" id="link_visualize global tickets_filter tickets"><path d="M410.2717,188.1846 C472.6917,175.6046 557.88,158.43 612.58,147.41" fill="none" id="visualize global tickets-backto-filter tickets" style="stroke:#181818;stroke-width:1;stroke-dasharray:7,7;"/><polygon fill="#181818" points="404.39,189.37,414.0029,191.5131,409.2914,188.3822,412.4223,183.6708,404.39,189.37" style="stroke:#181818;stroke-width:1;"/><text fill="#000000" font-family="sans-serif" font-size="13" lengthAdjust="spacing" textLength="50.1973" x="473.98" y="163.1784">extends</text></g><!--reverse link visualize department tickets to filter tickets--><g class="link" data-entity-1="visualize department tickets" data-entity-2="filter tickets" data-source-line="14" data-uid="lnk20" id="link_visualize department tickets_filter tickets"><path d="M402.4689,330.6426 C418.3189,323.8026 429.28,317.53 442.98,307 C460.03,293.88 457.57,284.03 472.98,269 C493.66,248.83 506.47,252.18 524.98,230 C544.08,207.11 532.22,189.26 554.98,170 C569.65,157.58 589.07,149.98 607.18,145.33" fill="none" id="visualize department tickets-backto-filter tickets" style="stroke:#181818;stroke-width:1;stroke-dasharray:7,7;"/><polygon fill="#181818" points="396.96,333.02,406.8083,333.1266,401.5508,331.0389,403.6385,325.7814,396.96,333.02" style="stroke:#181818;stroke-width:1;"/><text fill="#000000" font-family="sans-serif" font-size="13" lengthAdjust="spacing" textLength="50.1973" x="473.98" y="226.5684">extends</text></g><!--reverse link visualize global tickets to download ticket list--><g class="link" data-entity-1="visualize global tickets" data-entity-2="download ticket list" data-source-line="15" data-uid="lnk23" id="link_visualize global tickets_download ticket list"><path d="M432.6197,203.8953 C480.3197,204.3353 532.48,204.82 578.71,205.25" fill="none" id="visualize global tickets-backto-download ticket list" style="stroke:#181818;stroke-width:1;stroke-dasharray:7,7;"/><polygon fill="#181818" points="426.62,203.84,435.5827,207.9228,431.6198,203.8861,435.6565,199.9232,426.62,203.84" style="stroke:#181818;stroke-width:1;"/><text fill="#000000" font-family="sans-serif" font-size="13" lengthAdjust="spacing" textLength="50.1973" x="473.98" y="200.8884">extends</text></g><!--reverse link visualize department tickets to download ticket list--><g class="link" data-entity-1="visualize department tickets" data-entity-2="download ticket list" data-source-line="16" data-uid="lnk25" id="link_visualize department tickets_download ticket list"><path d="M426.415,336.4952 C461.375,327.1152 494.95,313.68 524.98,290 C544.73,274.42 535.3,257.67 554.98,242 C568.01,231.62 584.23,224.14 599.96,218.79" fill="none" id="visualize department tickets-backto-download ticket list" style="stroke:#181818;stroke-width:1;stroke-dasharray:7,7;"/><polygon fill="#181818" points="420.62,338.05,430.3491,339.5811,425.4492,336.7543,428.276,331.8544,420.62,338.05" style="stroke:#181818;stroke-width:1;"/><text fill="#000000" font-family="sans-serif" font-size="13" lengthAdjust="spacing" textLength="50.1973" x="473.98" y="286.5684">extends</text></g><!--reverse link visualize global tickets to assign department to ticket--><g class="link" data-entity-1="visualize global tickets" data-entity-2="assign department to ticket" data-source-line="18" data-uid="lnk29" id="link_visualize global tickets_assign department to ticket"><path d="M398.154,184.7305 C414.864,178.8905 427.25,173.57 442.98,165 C457.73,156.96 458.51,150.55 472.98,142 C507.24,121.75 518.23,121.29 554.98,106 C571.5,99.13 589.61,91.9 606.04,85.46" fill="none" id="visualize global tickets-backto-assign department to ticket" style="stroke:#181818;stroke-width:1;stroke-dasharray:7,7;"/><polygon fill="#181818" points="392.49,186.71,402.3058,187.5167,397.21,185.0604,399.6664,179.9647,392.49,186.71" style="stroke:#181818;stroke-width:1;"/><text fill="#000000" font-family="sans-serif" font-size="13" lengthAdjust="spacing" textLength="50.1973" x="473.98" y="114.3784">extends</text></g><!--reverse link open notification tray to mark notification as read--><g class="link" data-entity-1="open notification tray" data-entity-2="mark notification as read" data-source-line="19" data-uid="lnk33" id="link_open notification tray_mark notification as read"><path d="M403.8755,530.4387 C427.2755,535.6687 448.39,540.18 472.98,545 C508.07,551.88 547.05,558.7 580.24,564.27" fill="none" id="open notification tray-backto-mark notification as read" style="stroke:#181818;stroke-width:1;stroke-dasharray:7,7;"/><polygon fill="#181818" points="398.02,529.13,405.9308,534.9968,402.8996,530.2206,407.6758,527.1894,398.02,529.13" style="stroke:#181818;stroke-width:1;"/><text fill="#000000" font-family="sans-serif" font-size="13" lengthAdjust="spacing" textLength="50.1973" x="473.98" y="541.5684">extends</text></g><!--reverse link open notification tray to receive notification--><g class="link" data-entity-1="open notification tray" data-entity-2="receive notification" data-source-line="20" data-uid="lnk36" id="link_open notification tray_receive notification"><path d="M427.1679,519.207 C459.6379,520.057 491.06,520.01 524.98,518 C546.77,516.71 570.45,514.24 591.77,511.63" fill="none" id="open notification tray-backto-receive notification" style="stroke:#181818;stroke-width:1;stroke-dasharray:7,7;"/><polygon fill="#181818" points="421.17,519.05,430.0622,523.2842,426.1683,519.1808,430.2716,515.2869,421.17,519.05" style="stroke:#181818;stroke-width:1;"/><text fill="#000000" font-family="sans-serif" font-size="13" lengthAdjust="spacing" textLength="45.7349" x="476.48" y="514.5684">include</text></g><!--reverse link visualize department tickets to update ticket notes--><g class="link" data-entity-1="visualize department tickets" data-entity-2="update ticket notes" data-source-line="22" data-uid="lnk40" id="link_visualize department tickets_update ticket notes"><path d="M437.09,364.3216 C468.2,364.3816 496.19,360.29 524.98,347 C542.97,338.69 538.43,324.91 554.98,314 C569.69,304.3 587.29,296.93 603.81,291.46" fill="none" id="visualize department tickets-backto-update ticket notes" style="stroke:#181818;stroke-width:1;stroke-dasharray:7,7;"/><polygon fill="#181818" points="431.09,364.31,440.0823,368.3274,436.09,364.3196,440.0977,360.3274,431.09,364.31" style="stroke:#181818;stroke-width:1;"/><text fill="#000000" font-family="sans-serif" font-size="13" lengthAdjust="spacing" textLength="50.1973" x="473.98" y="343.5684">extends</text></g><!--reverse link visualize department tickets to update ticket status--><g class="link" data-entity-1="visualize department tickets" data-entity-2="update ticket status" data-source-line="23" data-uid="lnk43" id="link_visualize department tickets_update ticket status"><path d="M370.9441,379.7204 C397.2141,398.9204 432.86,421.21 472.98,432 C510.45,442.08 553.72,442.27 589.12,439.63" fill="none" id="visualize department tickets-backto-update ticket status" style="stroke:#181818;stroke-width:1;stroke-dasharray:7,7;"/><polygon fill="#181818" points="366.1,376.18,371.0059,384.72,370.1368,379.1304,375.7264,378.2612,366.1,376.18" style="stroke:#181818;stroke-width:1;"/><text fill="#000000" font-family="sans-serif" font-size="13" lengthAdjust="spacing" textLength="50.1973" x="473.98" y="428.5684">extends</text></g><!--reverse link visualize department tickets to assign technician to ticket--><g class="link" data-entity-1="visualize department tickets" data-entity-2="assign technician to ticket" data-source-line="24" data-uid="lnk46" id="link_visualize department tickets_assign technician to ticket"><path d="M388.0915,377.2215 C413.9815,388.3615 441.8,398.35 472.98,404 C495.72,408.12 502.23,408.1 524.98,404 C529.41,403.2 571.9,387.27 607.91,373.6" fill="none" id="visualize department tickets-backto-assign technician to ticket" style="stroke:#181818;stroke-width:1;stroke-dasharray:7,7;"/><polygon fill="#181818" points="382.58,374.85,389.2662,382.0815,387.1729,376.8262,392.4282,374.7329,382.58,374.85" style="stroke:#181818;stroke-width:1;"/><text fill="#000000" font-family="sans-serif" font-size="13" lengthAdjust="spacing" textLength="50.1973" x="473.98" y="400.5684">extends</text></g><!--link user to login--><g class="link" data-entity-1="user" data-entity-2="login" data-source-line="27" data-uid="lnk47" id="link_user_login"><path d="M35.72,375.71 C63.91,414.1 131.02,499.68 204.62,552 C239.2,576.58 279.6244,593.3608 306.6644,603.2408" fill="none" id="user-to-login" style="stroke:#181818;stroke-width:1;"/><polygon fill="#181818" points="312.3,605.3,305.2194,598.4542,307.6037,603.584,302.4738,605.9683,312.3,605.3" style="stroke:#181818;stroke-width:1;"/></g><!--link user to open notification tray--><g class="link" data-entity-1="user" data-entity-2="open notification tray" data-source-line="28" data-uid="lnk48" id="link_user_open notification tray"><path d="M35.59,364.13 C50.49,372.77 74.9,386.71 96.35,398 C166.14,434.71 243.667,472.0127 291.047,494.4427" fill="none" id="user-to-open notification tray" style="stroke:#181818;stroke-width:1;"/><polygon fill="#181818" points="296.47,497.01,290.047,489.5437,291.9508,494.8706,286.624,496.7744,296.47,497.01" style="stroke:#181818;stroke-width:1;"/></g><!--link staff to create ticket--><g class="link" data-entity-1="staff" data-entity-2="create ticket" data-source-line="30" data-uid="lnk49" id="link_staff_create ticket"><path d="M146.52,118.05 C160.85,109.56 183.59,96.95 204.62,89 C230.85,79.08 255.3643,72.6725 280.1743,67.3325" fill="none" id="staff-to-create ticket" style="stroke:#181818;stroke-width:1;"/><polygon fill="#181818" points="286.04,66.07,276.3998,64.0533,281.1519,67.1221,278.0832,71.8742,286.04,66.07" style="stroke:#181818;stroke-width:1;"/></g><!--link staff to visualize my incidents--><g class="link" data-entity-1="staff" data-entity-2="visualize my incidents" data-source-line="31" data-uid="lnk50" id="link_staff_visualize my incidents"><path d="M146.57,127 C167.74,127 202.62,127 240.89,127" fill="none" id="staff-to-visualize my incidents" style="stroke:#181818;stroke-width:1;"/><polygon fill="#181818" points="246.89,127,237.89,123,241.89,127,237.89,131,246.89,127" style="stroke:#181818;stroke-width:1;"/></g><!--link manager to visualize global tickets--><g class="link" data-entity-1="manager" data-entity-2="visualize global tickets" data-source-line="33" data-uid="lnk51" id="link_manager_visualize global tickets"><path d="M161.01,258.67 C174.17,252.87 190.04,246.22 204.62,241 C227.56,232.79 247.4572,226.6454 269.9072,220.2854" fill="none" id="manager-to-visualize global tickets" style="stroke:#181818;stroke-width:1;"/><polygon fill="#181818" points="275.68,218.65,265.9305,217.2546,270.8693,220.0128,268.1111,224.9517,275.68,218.65" style="stroke:#181818;stroke-width:1;"/></g><!--link manager to view audit log--><g class="link" data-entity-1="manager" data-entity-2="view audit log" data-source-line="34" data-uid="lnk52" id="link_manager_view audit log"><path d="M161.05,272.29 C189.3,272.57 227.2003,272.941 263.8103,273.301" fill="none" id="manager-to-view audit log" style="stroke:#181818;stroke-width:1;"/><polygon fill="#181818" points="269.81,273.36,260.8498,269.2717,264.8102,273.3108,260.7711,277.2713,269.81,273.36" style="stroke:#181818;stroke-width:1;"/></g><!--link technician to visualize department tickets--><g class="link" data-entity-1="technician" data-entity-2="visualize department tickets" data-source-line="36" data-uid="lnk53" id="link_technician_visualize department tickets"><path d="M165.93,355.5 C183.41,355.24 199.7807,354.9998 222.4907,354.6598" fill="none" id="technician-to-visualize department tickets" style="stroke:#181818;stroke-width:1;"/><polygon fill="#181818" points="228.49,354.57,219.4311,350.7052,223.4906,354.6448,219.5509,358.7043,228.49,354.57" style="stroke:#181818;stroke-width:1;"/></g><!--link authenticate to authentication authority--><g class="link" data-entity-1="authenticate" data-entity-2="authentication authority" data-source-line="38" data-uid="lnk55" id="link_authenticate_authentication authority"><path d="M722.53,649 C754.5,649 788.03,649 822.46,649" fill="none" id="authenticate-to-authentication authority" style="stroke:#181818;stroke-width:1;"/><polygon fill="#181818" points="828.46,649,819.46,645,823.46,649,819.46,653,828.46,649" style="stroke:#181818;stroke-width:1;"/></g><!--SRC=[bLFBSi8m3BpxApISu00Vm7HwfeUU-WLgh0GDZfsn5MZw-FSg49h708MZ9UtAMcdJZds54Kl0J49yayOHR89puM0SvG8I87An5R0SAHCEtfWwKOIdx-KIac2U3zubUYme3Y92sTPpngYubW1zeHrccv0g5dJmuZEsv0LUJz3PbvcxKB1Vh6mu-DNp76lPQW5dABHOiyzSRSdCiqWQ08tlI1PclkTKe-DFWiA5TsK-PT8ePKc7bRBjrwTpTgBVFGTMTQLThzAjwKF8s_GlxaAl7jlEvWBQBWMEazpV-IxqpVvzMTa0TpjenS2KkF0ZS3YBVFV_Iemxy44uRxUcDmEOGFTbEufGaH_d9M8p8D1B8TxJg6O1Hp1SGyCQ_evZptG0h2shDg7GiUhAzjVIWkd1XOq9zEwbVf2XKxOtn0rbRn7zT0PSBbMBarK6WIlY67EqwgbcOfr1vjfPcCxOqwgfrIPbuoMOmUWJdak-D6Fd7o6pGUXuLleCaQMPcLy0]--></g></svg>